# Created by DisUnity v0.3.4
v 0.119353905 1.446527E-8 0.1320933
v 0.13603108 0.0743549 -7.779687E-9
v 0.1687919 1.0372285E-9 -1.1755632E-9
v 0.096188486 0.07435492 0.106455304
v 2.3695473E-10 2.0266969E-8 0.18680812
v 0.096188486 0.07435492 0.106455304
v 0.119353905 1.446527E-8 0.1320933
v 2.3695526E-10 0.07435492 0.15055053
v 1.0752638E-15 0.14913593 0.12729552
v 0.09001153 0.14913593 0.090011515
v 2.369547E-10 5.095938E-9 -0.16439308
v 0.06592332 2.5851066E-9 -0.1592635
v 2.369553E-10 0.0798696 -0.12651624
v 0.02521896 0.06630524 -0.1430048
v 1.0440852E-15 0.14913592 -0.12729555
v 0.11935392 -1.2390815E-8 -0.1320933
v 0.15846646 -4.404287E-9 -0.06930366
v 0.096188515 0.07435489 -0.1064553
v 0.06592333 -1.38091645E-8 -0.17121322
v 0.13603108 0.0743549 -7.779687E-9
v 0.12729552 0.14913592 -1.5316742E-8
v 0.090011545 0.14913592 -0.09001154
v 0.1687919 1.0372285E-9 -1.1755632E-9
v 0.02521896 0.06630524 -0.1430048
v 1.0440852E-15 0.14913592 -0.12729555
v 0.12729552 0.14913592 -1.5316742E-8
v 1.6127307E-15 0.22697167 -2.3114868E-8
v 0.090011545 0.14913592 -0.09001154
v 1.0440852E-15 0.14913592 -0.12729555
v 0.12729552 0.14913592 -1.5316742E-8
v 0.09001153 0.14913593 0.090011515
v 1.6127307E-15 0.22697167 -2.3114868E-8
v 1.0752638E-15 0.14913593 0.12729552
v 0.09001153 0.14913593 0.090011515
v 0.13603108 0.0743549 -7.779687E-9
v 0.096188486 0.07435492 0.106455304
v 0.12729552 0.14913592 -1.5316742E-8
v -0.11935389 1.446527E-8 0.1320933
v -0.13603108 0.0743549 -7.779687E-9
v -0.096188486 0.07435492 0.106455304
v -0.1687919 1.0372281E-9 -1.1755632E-9
v -0.09001153 0.14913593 0.090011515
v -0.12729552 0.14913592 -1.5316742E-8
v 2.3695473E-10 2.0266969E-8 0.18680812
v -0.096188486 0.07435492 0.106455304
v 2.3695526E-10 0.07435492 0.15055053
v -0.11935389 1.446527E-8 0.1320933
v 1.0752638E-15 0.14913593 0.12729552
v -0.09001153 0.14913593 0.090011515
v 2.369547E-10 5.095938E-9 -0.16439308
v 2.369553E-10 0.0798696 -0.12651624
v -0.06592332 2.585106E-9 -0.1592635
v -0.025218958 0.06630524 -0.1430048
v 1.0440852E-15 0.14913592 -0.12729555
v -0.11935392 -1.2390814E-8 -0.1320933
v -0.096188515 0.07435489 -0.1064553
v -0.15846646 -4.4042876E-9 -0.06930366
v -0.065923326 -1.3809166E-8 -0.17121322
v -0.13603108 0.0743549 -7.779687E-9
v -0.12729552 0.14913592 -1.5316742E-8
v -0.090011545 0.14913592 -0.09001154
v -0.1687919 1.0372281E-9 -1.1755632E-9
v -0.025218958 0.06630524 -0.1430048
v 1.0440852E-15 0.14913592 -0.12729555
v -0.12729552 0.14913592 -1.5316742E-8
v -0.090011545 0.14913592 -0.09001154
v 1.6127307E-15 0.22697167 -2.3114868E-8
v 1.0440852E-15 0.14913592 -0.12729555
v -0.12729552 0.14913592 -1.5316742E-8
v 1.6127307E-15 0.22697167 -2.3114868E-8
v -0.09001153 0.14913593 0.090011515
v 1.0752638E-15 0.14913593 0.12729552
v -0.065923326 -1.3809166E-8 -0.17121322
v -0.06592332 2.585106E-9 -0.1592635
v -0.025218958 0.06630524 -0.1430048
v 0.02521896 0.06630524 -0.1430048
v 0.06592332 2.5851066E-9 -0.1592635
v 0.06592333 -1.38091645E-8 -0.17121322
vn 0.6594119 0.42035213 0.62328166
vn 0.93390834 0.34843603 -0.08004693
vn 0.9113595 0.40154558 0.09047122
vn 0.58923966 0.37091404 0.71778786
vn -0.0 0.43829596 0.8988308
vn 0.58923966 0.37091404 0.71778786
vn 0.6594119 0.42035213 0.62328166
vn -0.0 0.37581635 0.92669415
vn -0.0 0.2767251 0.9609491
vn 0.37255463 0.22855033 0.8994264
vn -0.0 0.42849168 -0.9035457
vn -0.033085708 0.35565335 -0.93403214
vn -0.0 0.07221057 -0.9973894
vn -0.593597 -0.14036046 -0.79242766
vn -0.0 -0.0112502705 -0.9999367
vn 0.6626414 0.4202078 -0.619945
vn 0.8349521 0.45506713 -0.3094655
vn 0.6760087 0.3624357 -0.64160156
vn 0.4427663 0.47959065 -0.7575954
vn 0.93390834 0.34843603 -0.08004693
vn 0.92440027 0.12731263 -0.3595492
vn 0.7165286 0.2194094 -0.66215277
vn 0.9113595 0.40154558 0.09047122
vn 0.37178257 0.3887498 -0.84300137
vn -0.0 0.30111292 -0.9535885
vn 0.5216649 0.8531505 0.0
vn -0.0 1.0 0.0
vn 0.36887285 0.8531504 -0.36887285
vn -0.0 0.85315037 -0.52166504
vn 0.5216649 0.8531505 0.0
vn 0.36887285 0.8531505 0.3688727
vn -0.0 1.0 0.0
vn -0.0 0.8531505 0.52166486
vn 0.9233392 0.13597073 0.3591054
vn 0.92188054 0.12646846 0.36625403
vn 0.9255822 0.15262747 0.34641382
vn 0.91854566 0.10730003 0.3804741
vn -0.6594119 0.42035213 0.62328166
vn -0.95321214 0.30073947 0.030698301
vn -0.68420655 0.32990906 0.65040094
vn -0.9113594 0.4015457 0.090471216
vn -0.7189152 0.19508101 0.66716135
vn -0.99193144 0.1262764 0.011239002
vn -0.0 0.43829596 0.8988308
vn -0.68420655 0.32990906 0.65040094
vn -0.0 0.37581635 0.92669415
vn -0.6594119 0.42035213 0.62328166
vn -0.0 0.2767251 0.9609491
vn -0.7189152 0.19508101 0.66716135
vn -0.0 0.42849168 -0.9035457
vn -0.0 0.07221057 -0.9973894
vn 0.033085912 0.35565314 -0.9340322
vn 0.59359705 -0.14036053 -0.7924276
vn -0.0 -0.0112502705 -0.9999367
vn -0.66264147 0.42020783 -0.619945
vn -0.67600864 0.3624357 -0.6416017
vn -0.8349521 0.45506713 -0.30946544
vn -0.4427663 0.4795906 -0.7575955
vn -0.95321214 0.30073947 0.030698301
vn -0.99193144 0.1262764 0.011239002
vn -0.7165286 0.21940938 -0.66215277
vn -0.9113594 0.4015457 0.090471216
vn -0.3717826 0.38874984 -0.8430013
vn -0.0 0.30111292 -0.9535885
vn -0.521665 0.8531504 0.0
vn -0.36887285 0.8531504 -0.36887285
vn -0.0 1.0 0.0
vn -0.0 0.85315037 -0.52166504
vn -0.521665 0.8531504 0.0
vn -0.0 1.0 0.0
vn -0.36887288 0.8531505 0.3688727
vn -0.0 0.8531505 0.52166486
vn 0.852225 -0.5231755 1.5492675E-7
vn 0.852225 -0.5231754 1.5492675E-7
vn 0.852225 -0.5231755 1.5492675E-7
vn -0.85222507 -0.5231753 -6.425114E-7
vn -0.85222507 -0.5231753 -6.425114E-7
vn -0.8522251 -0.52317524 -6.425114E-7
vt 0.37774786 0.9887711
vt 0.7388583 0.6780013
vt 0.7388583 0.9887711
vt 0.37774786 0.6780013
vt 0.7388584 0.9887711
vt 0.37774795 0.6780013
vt 0.37774795 0.9887711
vt 0.7388584 0.6780013
vt 0.7388584 0.36723167
vt 0.37774795 0.36723167
vt 0.016637422 0.9887711
vt 0.19719264 0.9887711
vt 0.016637422 0.6780013
vt 0.07843193 0.6780013
vt 0.016637422 0.3672316
vt 0.37774786 0.9887711
vt 0.5583031 0.9887711
vt 0.37774786 0.6780013
vt 0.19719264 0.9887711
vt 0.7388584 0.6780013
vt 0.7388584 0.3672316
vt 0.37774786 0.3672316
vt 0.7388584 0.9887711
vt 0.07843193 0.6780013
vt 0.016637422 0.3672316
vt 0.9931987 0.44491363
vt 0.9931987 0.011235952
vt 0.68654233 0.31789255
vt 0.55952096 0.011236072
vt 0.9931987 0.44491363
vt 0.68654203 0.31789243
vt 0.9931987 0.011235952
vt 0.55952096 0.011235952
vt 0.37774786 0.36723167
vt 0.7388583 0.6780013
vt 0.37774786 0.6780013
vt 0.7388583 0.36723167
vt 0.37774786 0.9887711
vt 0.7388583 0.6780013
vt 0.37774786 0.6780013
vt 0.7388583 0.9887711
vt 0.37774786 0.36723167
vt 0.7388583 0.36723167
vt 0.7388584 0.9887711
vt 0.37774795 0.6780013
vt 0.7388584 0.6780013
vt 0.37774795 0.9887711
vt 0.7388584 0.36723167
vt 0.37774795 0.36723167
vt 0.016637422 0.9887711
vt 0.016637422 0.6780013
vt 0.19719264 0.9887711
vt 0.07843193 0.6780013
vt 0.016637422 0.3672316
vt 0.37774786 0.9887711
vt 0.37774786 0.6780013
vt 0.5583031 0.9887711
vt 0.19719264 0.9887711
vt 0.7388584 0.6780013
vt 0.7388584 0.3672316
vt 0.37774786 0.3672316
vt 0.7388584 0.9887711
vt 0.07843193 0.6780013
vt 0.016637422 0.3672316
vt 0.9931987 0.44491363
vt 0.68654233 0.31789255
vt 0.9931987 0.011235952
vt 0.55952096 0.011236072
vt 0.9931987 0.44491363
vt 0.9931987 0.011235952
vt 0.68654203 0.31789243
vt 0.55952096 0.011235952
vt 0.19719264 0.9887711
vt 0.19719264 0.9887711
vt 0.07843193 0.6780013
vt 0.07843193 0.6780013
vt 0.19719264 0.9887711
vt 0.19719264 0.9887711

g barrack
s 1
usemtl barrack
f 3/3/3 2/2/2 1/1/1 
f 4/4/4 1/1/1 2/2/2 
f 7/7/7 6/6/6 5/5/5 
f 8/8/8 5/5/5 6/6/6 
f 8/8/8 6/6/6 9/9/9 
f 10/10/10 9/9/9 6/6/6 
f 13/13/13 12/12/12 11/11/11 
f 14/14/14 12/12/12 13/13/13 
f 13/13/13 15/15/15 14/14/14 
f 18/18/18 17/17/17 16/16/16 
f 16/16/16 19/19/19 18/18/18 
f 17/17/17 18/18/18 20/20/20 
f 20/20/20 18/18/18 21/21/21 
f 22/22/22 21/21/21 18/18/18 
f 23/23/23 17/17/17 20/20/20 
f 18/18/18 24/24/24 22/22/22 
f 18/18/18 19/19/19 24/24/24 
f 25/25/25 22/22/22 24/24/24 
f 28/28/28 27/27/27 26/26/26 
f 28/28/28 29/29/29 27/27/27 
f 32/32/32 31/31/31 30/30/30 
f 32/32/32 33/33/33 31/31/31 
f 36/36/36 35/35/35 34/34/34 
f 37/37/37 34/34/34 35/35/35 
f 40/40/40 39/39/39 38/38/38 
f 41/41/41 38/38/38 39/39/39 
f 40/40/40 42/42/42 39/39/39 
f 43/43/43 39/39/39 42/42/42 
f 46/46/46 45/45/45 44/44/44 
f 47/47/47 44/44/44 45/45/45 
f 46/46/46 48/48/48 45/45/45 
f 49/49/49 45/45/45 48/48/48 
f 52/52/52 51/51/51 50/50/50 
f 51/51/51 52/52/52 53/53/53 
f 54/54/54 51/51/51 53/53/53 
f 57/57/57 56/56/56 55/55/55 
f 58/58/58 55/55/55 56/56/56 
f 56/56/56 57/57/57 59/59/59 
f 59/59/59 60/60/60 56/56/56 
f 61/61/61 56/56/56 60/60/60 
f 57/57/57 62/62/62 59/59/59 
f 56/56/56 61/61/61 63/63/63 
f 58/58/58 56/56/56 63/63/63 
f 64/64/64 63/63/63 61/61/61 
f 67/67/67 66/66/66 65/65/65 
f 68/68/68 66/66/66 67/67/67 
f 71/71/71 70/70/70 69/69/69 
f 72/72/72 70/70/70 71/71/71 
f 75/75/75 74/74/74 73/73/73 
f 78/78/78 77/77/77 76/76/76 

