# Created by DisUnity v0.3.4
v -0.11935394 1.4465274E-8 -0.13209327
v -0.13603108 0.0743549 4.885993E-8
v -0.1687919 1.0372345E-9 5.2149304E-8
v -0.096188515 0.07435492 -0.106455274
v -5.6651444E-8 2.0266969E-8 -0.18680812
v -0.096188515 0.07435492 -0.106455274
v -0.11935394 1.4465274E-8 -0.13209327
v -4.570195E-8 0.07435492 -0.15055053
v -3.8442174E-8 0.14913593 -0.12729552
v -0.09001156 0.14913593 -0.09001149
v 4.940838E-8 5.095938E-9 0.16439308
v -0.065923266 2.585109E-9 0.15926354
v 3.796989E-8 0.0798696 0.12651624
v -0.025218917 0.06630524 0.14300482
v 3.8442195E-8 0.14913592 0.12729555
v -0.11935388 -1.239081E-8 0.13209333
v -0.15846644 -4.4042814E-9 0.069303714
v -0.096188486 0.07435489 0.106455326
v -0.06592328 -1.3809163E-8 0.17121324
v -0.13603108 0.0743549 4.885993E-8
v -0.12729552 0.14913592 5.3758924E-8
v -0.090011515 0.14913592 0.09001157
v -0.1687919 1.0372345E-9 5.2149304E-8
v -0.025218917 0.06630524 0.14300482
v 3.8442195E-8 0.14913592 0.12729555
v -0.12729552 0.14913592 5.3758924E-8
v 1.343142E-14 0.22697167 2.3114868E-8
v -0.090011515 0.14913592 0.09001157
v 3.8442195E-8 0.14913592 0.12729555
v -0.12729552 0.14913592 5.3758924E-8
v -0.09001156 0.14913593 -0.09001149
v 1.343142E-14 0.22697167 2.3114868E-8
v -3.8442174E-8 0.14913593 -0.12729552
v -0.09001156 0.14913593 -0.09001149
v -0.13603108 0.0743549 4.885993E-8
v -0.096188515 0.07435492 -0.106455274
v -0.12729552 0.14913592 5.3758924E-8
v 0.11935385 1.4465265E-8 -0.13209334
v 0.13603108 0.0743549 -3.330056E-8
v 0.096188456 0.07435492 -0.10645533
v 0.1687919 1.0372221E-9 -4.9798174E-8
v 0.0900115 0.14913593 -0.090011545
v 0.12729552 0.14913592 -2.3125441E-8
v -5.6651444E-8 2.0266969E-8 -0.18680812
v 0.096188456 0.07435492 -0.10645533
v -4.570195E-8 0.07435492 -0.15055053
v 0.11935385 1.4465265E-8 -0.13209334
v -3.8442174E-8 0.14913593 -0.12729552
v 0.0900115 0.14913593 -0.090011545
v 4.940838E-8 5.095938E-9 0.16439308
v 3.796989E-8 0.0798696 0.12651624
v 0.06592336 2.5851032E-9 0.15926349
v 0.025219 0.06630524 0.14300479
v 3.8442195E-8 0.14913592 0.12729555
v 0.11935396 -1.2390818E-8 0.13209325
v 0.096188545 0.07435489 0.10645527
v 0.15846647 -4.4042934E-9 0.06930362
v 0.06592338 -1.3809168E-8 0.17121321
v 0.13603108 0.0743549 -3.330056E-8
v 0.12729552 0.14913592 -2.3125441E-8
v 0.090011574 0.14913592 0.09001151
v 0.1687919 1.0372221E-9 -4.9798174E-8
v 0.025219 0.06630524 0.14300479
v 3.8442195E-8 0.14913592 0.12729555
v 0.12729552 0.14913592 -2.3125441E-8
v 0.090011574 0.14913592 0.09001151
v 1.343142E-14 0.22697167 2.3114868E-8
v 3.8442195E-8 0.14913592 0.12729555
v 0.12729552 0.14913592 -2.3125441E-8
v 1.343142E-14 0.22697167 2.3114868E-8
v 0.0900115 0.14913593 -0.090011545
v -3.8442174E-8 0.14913593 -0.12729552
v 0.06592338 -1.3809168E-8 0.17121321
v 0.06592336 2.5851032E-9 0.15926349
v 0.025219 0.06630524 0.14300479
v -0.025218917 0.06630524 0.14300482
v -0.065923266 2.585109E-9 0.15926354
v -0.06592328 -1.3809163E-8 0.17121324
vn -0.6594121 0.42035213 -0.6232815
vn -0.93390834 0.34843603 0.08004722
vn -0.9113595 0.40154558 -0.09047094
vn -0.5892399 0.37091404 -0.7177877
vn -2.9467685E-7 0.43829596 -0.8988308
vn -0.5892399 0.37091404 -0.7177877
vn -0.6594121 0.42035213 -0.6232815
vn -2.7985388E-7 0.37581635 -0.92669415
vn -2.9019859E-7 0.2767251 -0.9609491
vn -0.3725549 0.22855034 -0.8994263
vn 2.7772091E-7 0.42849168 0.9035457
vn 0.03308599 0.35565335 0.93403214
vn 2.8963558E-7 0.07221057 0.9973894
vn 0.5935972 -0.14036047 0.7924275
vn 3.019725E-7 -0.0112502705 0.9999367
vn -0.6626412 0.42020774 0.6199452
vn -0.83495206 0.4550671 0.3094657
vn -0.6760085 0.36243567 0.64160174
vn -0.4427661 0.47959062 0.7575956
vn -0.93390834 0.34843603 0.08004722
vn -0.9244002 0.12731265 0.35954943
vn -0.7165284 0.21940939 0.66215295
vn -0.9113595 0.40154558 -0.09047094
vn -0.3717823 0.38874984 0.8430015
vn 2.8797572E-7 0.30111292 0.9535885
vn -0.5216649 0.8531505 2.0678708E-7
vn -0.0 1.0 0.0
vn -0.36887273 0.8531504 0.36887297
vn 1.575385E-7 0.85315037 0.52166504
vn -0.5216649 0.8531505 2.0678708E-7
vn -0.36887294 0.8531505 -0.3688726
vn -0.0 1.0 0.0
vn -1.575384E-7 0.8531505 -0.52166486
vn -0.9233393 0.13597073 -0.35910517
vn -0.92188066 0.12646846 -0.3662538
vn -0.92558223 0.15262748 -0.34641355
vn -0.9185458 0.107300036 -0.38047382
vn 0.6594117 0.42035216 -0.62328184
vn 0.95321214 0.30073947 -0.030698588
vn 0.68420637 0.32990906 -0.6504011
vn 0.9113594 0.4015457 -0.09047149
vn 0.71891505 0.195081 -0.6671616
vn 0.99193144 0.1262764 -0.011239303
vn -2.9467685E-7 0.43829596 -0.8988308
vn 0.68420637 0.32990906 -0.6504011
vn -2.7985388E-7 0.37581635 -0.92669415
vn 0.6594117 0.42035216 -0.62328184
vn -2.9019859E-7 0.2767251 -0.9609491
vn 0.71891505 0.195081 -0.6671616
vn 2.7772091E-7 0.42849168 0.9035457
vn 2.8963558E-7 0.07221057 0.9973894
vn -0.03308563 0.35565314 0.9340322
vn -0.5935968 -0.14036052 0.7924278
vn 3.019725E-7 -0.0112502705 0.9999367
vn 0.6626416 0.42020774 0.61994475
vn 0.6760088 0.36243567 0.6416014
vn 0.83495224 0.4550671 0.3094652
vn 0.44276655 0.47959056 0.75759536
vn 0.95321214 0.30073947 -0.030698588
vn 0.99193144 0.1262764 -0.011239303
vn 0.71652883 0.21940939 0.6621525
vn 0.9113594 0.4015457 -0.09047149
vn 0.37178287 0.38874984 0.84300125
vn 2.8797572E-7 0.30111292 0.9535885
vn 0.521665 0.8531504 -1.0828982E-7
vn 0.368873 0.8531504 0.36887273
vn -0.0 1.0 0.0
vn 1.575385E-7 0.85315037 0.52166504
vn 0.521665 0.8531504 -1.0828982E-7
vn -0.0 1.0 0.0
vn 0.36887276 0.8531505 -0.36887285
vn -1.575384E-7 0.8531505 -0.52166486
vn -0.852225 -0.5231755 1.02438065E-7
vn -0.852225 -0.5231754 1.02438065E-7
vn -0.852225 -0.5231755 1.0243805E-7
vn 0.85222507 -0.5231753 3.8514656E-7
vn 0.85222507 -0.5231753 3.8514656E-7
vn 0.8522251 -0.52317524 3.851466E-7
vt 0.37774786 0.9887711
vt 0.7388583 0.6780013
vt 0.7388583 0.9887711
vt 0.37774786 0.6780013
vt 0.7388584 0.9887711
vt 0.37774795 0.6780013
vt 0.37774795 0.9887711
vt 0.7388584 0.6780013
vt 0.7388584 0.36723167
vt 0.37774795 0.36723167
vt 0.016637422 0.9887711
vt 0.19719264 0.9887711
vt 0.016637422 0.6780013
vt 0.07843193 0.6780013
vt 0.016637422 0.3672316
vt 0.37774786 0.9887711
vt 0.5583031 0.9887711
vt 0.37774786 0.6780013
vt 0.19719264 0.9887711
vt 0.7388584 0.6780013
vt 0.7388584 0.3672316
vt 0.37774786 0.3672316
vt 0.7388584 0.9887711
vt 0.07843193 0.6780013
vt 0.016637422 0.3672316
vt 0.9931987 0.44491363
vt 0.9931987 0.011235952
vt 0.68654233 0.31789255
vt 0.55952096 0.011236072
vt 0.9931987 0.44491363
vt 0.68654203 0.31789243
vt 0.9931987 0.011235952
vt 0.55952096 0.011235952
vt 0.37774786 0.36723167
vt 0.7388583 0.6780013
vt 0.37774786 0.6780013
vt 0.7388583 0.36723167
vt 0.37774786 0.9887711
vt 0.7388583 0.6780013
vt 0.37774786 0.6780013
vt 0.7388583 0.9887711
vt 0.37774786 0.36723167
vt 0.7388583 0.36723167
vt 0.7388584 0.9887711
vt 0.37774795 0.6780013
vt 0.7388584 0.6780013
vt 0.37774795 0.9887711
vt 0.7388584 0.36723167
vt 0.37774795 0.36723167
vt 0.016637422 0.9887711
vt 0.016637422 0.6780013
vt 0.19719264 0.9887711
vt 0.07843193 0.6780013
vt 0.016637422 0.3672316
vt 0.37774786 0.9887711
vt 0.37774786 0.6780013
vt 0.5583031 0.9887711
vt 0.19719264 0.9887711
vt 0.7388584 0.6780013
vt 0.7388584 0.3672316
vt 0.37774786 0.3672316
vt 0.7388584 0.9887711
vt 0.07843193 0.6780013
vt 0.016637422 0.3672316
vt 0.9931987 0.44491363
vt 0.68654233 0.31789255
vt 0.9931987 0.011235952
vt 0.55952096 0.011236072
vt 0.9931987 0.44491363
vt 0.9931987 0.011235952
vt 0.68654203 0.31789243
vt 0.55952096 0.011235952
vt 0.19719264 0.9887711
vt 0.19719264 0.9887711
vt 0.07843193 0.6780013
vt 0.07843193 0.6780013
vt 0.19719264 0.9887711
vt 0.19719264 0.9887711

g barrack
s 1
usemtl barrack
f 3/3/3 2/2/2 1/1/1 
f 4/4/4 1/1/1 2/2/2 
f 7/7/7 6/6/6 5/5/5 
f 8/8/8 5/5/5 6/6/6 
f 8/8/8 6/6/6 9/9/9 
f 10/10/10 9/9/9 6/6/6 
f 13/13/13 12/12/12 11/11/11 
f 14/14/14 12/12/12 13/13/13 
f 13/13/13 15/15/15 14/14/14 
f 18/18/18 17/17/17 16/16/16 
f 16/16/16 19/19/19 18/18/18 
f 17/17/17 18/18/18 20/20/20 
f 20/20/20 18/18/18 21/21/21 
f 22/22/22 21/21/21 18/18/18 
f 23/23/23 17/17/17 20/20/20 
f 18/18/18 24/24/24 22/22/22 
f 18/18/18 19/19/19 24/24/24 
f 25/25/25 22/22/22 24/24/24 
f 28/28/28 27/27/27 26/26/26 
f 28/28/28 29/29/29 27/27/27 
f 32/32/32 31/31/31 30/30/30 
f 32/32/32 33/33/33 31/31/31 
f 36/36/36 35/35/35 34/34/34 
f 37/37/37 34/34/34 35/35/35 
f 40/40/40 39/39/39 38/38/38 
f 41/41/41 38/38/38 39/39/39 
f 40/40/40 42/42/42 39/39/39 
f 43/43/43 39/39/39 42/42/42 
f 46/46/46 45/45/45 44/44/44 
f 47/47/47 44/44/44 45/45/45 
f 46/46/46 48/48/48 45/45/45 
f 49/49/49 45/45/45 48/48/48 
f 52/52/52 51/51/51 50/50/50 
f 51/51/51 52/52/52 53/53/53 
f 54/54/54 51/51/51 53/53/53 
f 57/57/57 56/56/56 55/55/55 
f 58/58/58 55/55/55 56/56/56 
f 56/56/56 57/57/57 59/59/59 
f 59/59/59 60/60/60 56/56/56 
f 61/61/61 56/56/56 60/60/60 
f 57/57/57 62/62/62 59/59/59 
f 56/56/56 61/61/61 63/63/63 
f 58/58/58 56/56/56 63/63/63 
f 64/64/64 63/63/63 61/61/61 
f 67/67/67 66/66/66 65/65/65 
f 68/68/68 66/66/66 67/67/67 
f 71/71/71 70/70/70 69/69/69 
f 72/72/72 70/70/70 71/71/71 
f 75/75/75 74/74/74 73/73/73 
f 78/78/78 77/77/77 76/76/76 

