# Created by DisUnity v0.3.4
v 0.0014869418 0.003350659 0.07284551
v 2.3539308E-6 -0.009134388 0.10082553
v 0.0014869369 0.0041259257 0.1001107
v 2.3589685E-6 -0.008827058 0.07341736
v 2.3496505E-6 -0.009890118 0.124121435
v 7.446528E-4 0.0074097454 0.12546866
v 2.352635E-6 -0.005095408 0.14050712
v 2.3495024E-6 0.014734387 0.15727045
v -0.0014821996 0.003350659 0.07284551
v 0.0014869369 0.0041259257 0.1001107
v -0.0014822048 0.0041259257 0.1001107
v 0.0014869418 0.003350659 0.07284551
v 7.446528E-4 0.0074097454 0.12546866
v -7.399301E-4 0.0074097454 0.12546866
v 2.3495024E-6 0.014734387 0.15727045
v 0.0014869407 0.0047147176 0.04750691
v -0.0014822012 0.0047147176 0.04750691
v -0.0014821973 0.0074641015 0.026994087
v 0.0014869443 0.0074641015 0.026994087
v 2.3626585E-6 0.0030447957 0.020486753
v -0.0014821996 0.003350659 0.07284551
v 2.3539308E-6 -0.009134388 0.10082553
v 2.3589685E-6 -0.008827058 0.07341736
v -0.0014822048 0.0041259257 0.1001107
v 2.3496505E-6 -0.009890118 0.124121435
v -7.399301E-4 0.0074097454 0.12546866
v 2.352635E-6 -0.005095408 0.14050712
v 2.3495024E-6 0.014734387 0.15727045
v 2.3636378E-6 -0.008204099 0.048007257
v 0.0014869418 0.003350659 0.07284551
v 0.0014869407 0.0047147176 0.04750691
v 2.3589685E-6 -0.008827058 0.07341736
v 0.0014869443 0.0074641015 0.026994087
v 2.3564655E-6 -0.0016436003 0.021553611
v 2.3626585E-6 0.0030447957 0.020486753
v 2.3614136E-6 -0.00854247 0.027420798
v 2.3636378E-6 -0.008204099 0.048007257
v -0.0014821996 0.003350659 0.07284551
v 2.3589685E-6 -0.008827058 0.07341736
v -0.0014822012 0.0047147176 0.04750691
v -0.0014821973 0.0074641015 0.026994087
v 2.3614136E-6 -0.00854247 0.027420798
v 2.3564655E-6 -0.0016436003 0.021553611
v 2.3626585E-6 0.0030447957 0.020486753
v -2.4870286E-9 0.005055901 0.021967541
v -0.0054466077 -2.66003E-4 0.011307096
v 1.3574505E-8 0.0049510784 0.011278368
v -0.0047233384 -2.8185543E-4 0.02434605
v 1.3528931E-8 -0.0058750273 0.011335824
v -3.076637E-9 -0.0059248214 0.023410425
v 0.004723352 -3.1867603E-4 0.024346054
v 0.0054466594 -2.2918265E-4 0.011307095
v -1.2929052E-9 0.0039208387 0.0076172748
v -0.0032802366 1.4783647E-4 0.0076172748
v 4.8855346E-9 0.0039592553 -0.029102301
v -0.0033043101 1.0063998E-4 -0.029102303
v 0.0033043276 1.0063972E-4 -0.029102303
v 0.0032802515 1.4783643E-4 0.0076172766
v 4.9023696E-9 -0.0041704443 -0.029102301
v -1.2761603E-9 -0.004165447 0.0076172743
v -2.4870286E-9 0.005055901 0.021967541
v 1.3574505E-8 0.0049510784 0.011278368
v -1.2929052E-9 0.0039208387 0.0076172748
v 0.004723352 -3.1867603E-4 0.024346054
v -0.0047233384 -2.8185543E-4 0.02434605
v -2.4870286E-9 0.005055901 0.021967541
v -3.076637E-9 -0.0059248214 0.023410425
v 4.8855346E-9 0.0039592553 -0.029102301
v 4.9023696E-9 -0.0041704443 -0.029102301
v 0.0033043276 1.0063972E-4 -0.029102303
v -0.0033043101 1.0063998E-4 -0.029102303
vn 0.9929292 -0.118690096 -0.0020486405
vn 0.9936421 -0.11258095 -9.764696E-4
vn 0.9951616 -0.0979587 0.0075826603
vn 0.99263656 -0.12111216 -0.0021305664
vn 0.9982269 -0.05648814 0.0187647
vn 0.99887604 -0.039085545 0.026814235
vn 0.99923104 -0.03190318 0.02279324
vn 0.9992805 -0.024485031 0.028964201
vn -0.0 0.99991965 0.012676987
vn -0.0 0.9969489 -0.078056514
vn -0.0 0.9969489 -0.078056544
vn -0.0 0.99991965 0.0126769915
vn -0.0 0.98441595 -0.17585558
vn -0.0 0.98441595 -0.17585562
vn -0.0 0.97448665 -0.22444542
vn -0.0 0.99563116 0.09337364
vn -0.0 0.99563116 0.09337364
vn -0.0 0.9785365 -0.20607363
vn -0.0 0.97853655 -0.20607331
vn -0.0 0.8272622 -0.56181604
vn -0.99292946 -0.118688345 -0.0020489085
vn -0.9936423 -0.112579145 -9.768185E-4
vn -0.9926368 -0.12111025 -0.0021308977
vn -0.9951618 -0.09795699 0.007582249
vn -0.998227 -0.056486692 0.018764414
vn -0.9988761 -0.039084442 0.026813755
vn -0.9992311 -0.031902418 0.022792712
vn -0.9992806 -0.02448464 0.028963361
vn 0.99392086 -0.1095063 -0.011391555
vn 0.9929292 -0.118690096 -0.0020486405
vn 0.9933511 -0.11458344 -0.01114467
vn 0.99263656 -0.12111216 -0.0021305664
vn 0.9912346 -0.11799068 -0.059431817
vn 0.99409777 -0.080292895 -0.072957225
vn 0.9800774 -0.044070385 -0.19366518
vn 1.0 6.16756E-7 -1.1816804E-7
vn -0.9938084 -0.11090672 -0.0066826865
vn -0.99292946 -0.118688345 -0.0020489085
vn -0.9926368 -0.12111025 -0.0021308977
vn -0.9933512 -0.11458252 -0.011144728
vn -0.9939691 -0.08923864 -0.063733175
vn -0.9951171 -0.09316296 -0.03259748
vn -0.98755485 -0.08013199 -0.13533004
vn -0.9800777 -0.044067528 -0.19366397
vn -1.578159E-4 0.99921834 0.039530676
vn -0.97764766 -0.012217084 -0.20989482
vn -0.0016735034 0.99093074 -0.13436316
vn -0.9977678 -0.05673543 0.035221174
vn 5.940287E-4 -0.97695 -0.21346767
vn -0.0014401728 -0.99999046 -0.0041238526
vn 0.9974981 -0.060511634 0.03654901
vn 0.9776808 -0.0075265113 -0.20996095
vn -6.404435E-4 0.9817538 -0.19015533
vn -0.96317196 0.0363465 -0.26641834
vn 3.218919E-4 0.9999999 3.3107513E-4
vn -0.9996946 0.024711952 -9.0955546E-5
vn 0.9996954 0.024648288 0.0012237285
vn 0.96279144 0.034394834 -0.2680477
vn 3.8531428E-4 -0.9999994 0.0010416964
vn 1.693666E-4 -0.97072095 -0.24021004
vn -1.578159E-4 0.99921834 0.039530676
vn -0.0016735034 0.99093074 -0.13436316
vn -6.404435E-4 0.9817538 -0.19015533
vn 4.975391E-4 0.12771225 0.99181116
vn 5.033513E-4 0.1292034 0.991618
vn 0.001581675 0.40585175 0.91393757
vn -6.3983735E-4 -0.16409202 0.98644483
vn -0.0 0.0 -1.0
vn -0.0 0.0 -1.0
vn -7.2153534E-7 0.0 -1.0
vn 7.2153705E-7 0.0 -1.0
vt 0.9859648 0.9761602
vt 0.7125487 0.72885346
vt 0.7125487 0.9761602
vt 0.9859648 0.72885346
vt 0.4185431 0.72885346
vt 0.4185431 0.9761602
vt 0.22094652 0.72885346
vt 0.019590583 0.9761602
vt 0.6426914 0.33965325
vt 0.4626241 0.3936789
vt 0.4626241 0.33965325
vt 0.6426914 0.3936789
vt 0.27913925 0.3936789
vt 0.27913925 0.33965325
vt 0.015893565 0.36666626
vt 0.82120234 0.3936789
vt 0.82120234 0.33965325
vt 0.9348018 0.33965325
vt 0.9348018 0.3936789
vt 0.9821409 0.36666584
vt 0.9859648 0.9761602
vt 0.7125487 0.72885346
vt 0.9859648 0.72885346
vt 0.7125487 0.9761602
vt 0.4185431 0.72885346
vt 0.4185431 0.9761602
vt 0.22094652 0.72885346
vt 0.019590583 0.9761602
vt 0.5253502 0.45037878
vt 0.1257292 0.6976855
vt 0.5253502 0.6976855
vt 0.1257292 0.45037878
vt 0.8492976 0.6976855
vt 0.9665583 0.5342388
vt 0.9665583 0.62577844
vt 0.8492976 0.45037878
vt 0.5253502 0.45037878
vt 0.1257292 0.6976855
vt 0.1257292 0.45037878
vt 0.5253502 0.6976855
vt 0.8492976 0.6976855
vt 0.8492976 0.45037878
vt 0.9665583 0.5342388
vt 0.9665583 0.62577844
vt 0.76075983 0.02913487
vt 0.6108504 0.15446544
vt 0.6108504 0.02913487
vt 0.76075983 0.15446544
vt 0.6108504 0.28317326
vt 0.76075983 0.28317326
vt 0.76075983 0.15446544
vt 0.6108504 0.15446544
vt 0.54722923 0.02913487
vt 0.54722923 0.15446544
vt 0.018675875 0.02913487
vt 0.018675875 0.15446544
vt 0.018675856 0.15446544
vt 0.54722923 0.15446544
vt 0.018675856 0.28317326
vt 0.54722923 0.28317326
vt 0.76075983 0.02913487
vt 0.6108504 0.02913487
vt 0.54722923 0.02913487
vt 0.8851497 0.24658334
vt 0.8851497 0.036343694
vt 0.7902432 0.14145344
vt 0.9791392 0.14145344
vt 0.7902432 0.14145344
vt 0.9791392 0.14145344
vt 0.8851497 0.24658334
vt 0.8851497 0.036343694

g blade_n01
s 1
usemtl blade_n01
f 3/3/3 2/2/2 1/1/1 
f 4/4/4 1/1/1 2/2/2 
f 2/2/2 3/3/3 5/5/5 
f 6/6/6 5/5/5 3/3/3 
f 5/5/5 6/6/6 7/7/7 
f 8/8/8 7/7/7 6/6/6 
f 11/11/11 10/10/10 9/9/9 
f 12/12/12 9/9/9 10/10/10 
f 10/10/10 11/11/11 13/13/13 
f 14/14/14 13/13/13 11/11/11 
f 15/15/15 13/13/13 14/14/14 
f 12/12/12 16/16/16 9/9/9 
f 17/17/17 9/9/9 16/16/16 
f 17/17/17 16/16/16 18/18/18 
f 19/19/19 18/18/18 16/16/16 
f 19/19/19 20/20/20 18/18/18 
f 23/23/23 22/22/22 21/21/21 
f 24/24/24 21/21/21 22/22/22 
f 22/22/22 25/25/25 24/24/24 
f 26/26/26 24/24/24 25/25/25 
f 25/25/25 27/27/27 26/26/26 
f 28/28/28 26/26/26 27/27/27 
f 31/31/31 30/30/30 29/29/29 
f 32/32/32 29/29/29 30/30/30 
f 31/31/31 29/29/29 33/33/33 
f 33/33/33 29/29/29 34/34/34 
f 35/35/35 33/33/33 34/34/34 
f 29/29/29 36/36/36 34/34/34 
f 39/39/39 38/38/38 37/37/37 
f 40/40/40 37/37/37 38/38/38 
f 37/37/37 40/40/40 41/41/41 
f 42/42/42 37/37/37 41/41/41 
f 43/43/43 42/42/42 41/41/41 
f 44/44/44 43/43/43 41/41/41 
f 47/47/47 46/46/46 45/45/45 
f 48/48/48 45/45/45 46/46/46 
f 46/46/46 49/49/49 48/48/48 
f 50/50/50 48/48/48 49/49/49 
f 50/50/50 49/49/49 51/51/51 
f 51/51/51 52/52/52 45/45/45 
f 52/52/52 51/51/51 49/49/49 
f 47/47/47 53/53/53 46/46/46 
f 54/54/54 46/46/46 53/53/53 
f 46/46/46 54/54/54 49/49/49 
f 53/53/53 55/55/55 54/54/54 
f 56/56/56 54/54/54 55/55/55 
f 55/55/55 53/53/53 57/57/57 
f 58/58/58 57/57/57 53/53/53 
f 58/58/58 53/53/53 52/52/52 
f 52/52/52 49/49/49 58/58/58 
f 57/57/57 58/58/58 59/59/59 
f 60/60/60 59/59/59 58/58/58 
f 59/59/59 60/60/60 56/56/56 
f 54/54/54 56/56/56 60/60/60 
f 60/60/60 58/58/58 49/49/49 
f 60/60/60 49/49/49 54/54/54 
f 62/62/62 61/61/61 52/52/52 
f 62/62/62 52/52/52 63/63/63 
f 66/66/66 65/65/65 64/64/64 
f 67/67/67 64/64/64 65/65/65 
f 70/70/70 69/69/69 68/68/68 
f 71/71/71 68/68/68 69/69/69 

