# Created by DisUnity v0.3.4
v 0.07884191 0.0 0.0
v 0.0682791 1.5352192 -0.039421003
v 0.068279095 2.4138373E-18 -0.039420955
v 0.07884191 1.5352192 -3.7942325E-8
v 0.039420955 1.5352192 -0.06827915
v 0.039420955 4.1808893E-18 -0.0682791
v -3.4462897E-9 1.5352192 -0.078841954
v -3.4462897E-9 4.8276746E-18 -0.07884191
v -0.039420962 1.5352192 -0.06827915
v -0.039420962 4.1808893E-18 -0.068279095
v -0.0682791 1.5352192 -0.039420992
v -0.0682791 2.4138371E-18 -0.039420955
v -0.07884191 1.5352192 -3.1049744E-8
v -0.07884191 -4.2204877E-25 6.8925794E-9
v -0.07884191 -4.2204877E-25 6.8925794E-9
v -0.068279095 1.5352192 0.039420925
v -0.068279095 -2.413838E-18 0.039420966
v -0.07884191 1.5352192 -3.1049744E-8
v -0.03942095 1.5352192 0.06827907
v -0.03942095 -4.1808897E-18 0.06827911
v 1.0338869E-8 1.5352192 0.07884188
v 1.0338869E-8 -4.8276746E-18 0.07884191
v 0.039420966 1.5352192 0.06827906
v 0.039420966 -4.180889E-18 0.068279095
v 0.06827911 1.5352192 0.03942091
v 0.06827911 -2.4138365E-18 0.039420944
v 0.07884191 1.5352192 -3.7942325E-8
v 0.07884191 0.0 0.0
vn 1.0 0.0 0.0
vn 0.86602545 0.0 -0.49999997
vn 0.86602545 0.0 -0.49999997
vn 1.0 0.0 0.0
vn 0.4999999 0.0 -0.86602545
vn 0.4999999 0.0 -0.86602545
vn -0.0 0.0 -1.0
vn -0.0 0.0 -1.0
vn -0.50000006 0.0 -0.8660253
vn -0.50000006 0.0 -0.8660253
vn -0.86602545 0.0 -0.4999999
vn -0.86602545 0.0 -0.4999999
vn -1.0 0.0 0.0
vn -1.0 0.0 0.0
vn -1.0 0.0 0.0
vn -0.8660253 0.0 0.5000001
vn -0.8660253 0.0 0.5000001
vn -1.0 0.0 0.0
vn -0.4999999 0.0 0.86602545
vn -0.4999999 0.0 0.86602545
vn 1.6695729E-7 0.0 1.0
vn 1.6695729E-7 0.0 1.0
vn 0.5000002 0.0 0.8660253
vn 0.5000002 0.0 0.8660253
vn 0.86602545 0.0 0.4999999
vn 0.86602545 0.0 0.4999999
vn 1.0 0.0 0.0
vn 1.0 0.0 0.0
vt 0.007499993 0.9898218
vt 0.17166674 0.01269877
vt 0.17166674 0.9898218
vt 0.007499993 0.01269877
vt 0.33583325 0.01269877
vt 0.33583325 0.9898218
vt 0.5 0.01269877
vt 0.5 0.9898218
vt 0.66416675 0.01269877
vt 0.66416675 0.9898218
vt 0.8283334 0.01269877
vt 0.8283334 0.9898218
vt 0.9925 0.01269877
vt 0.9925 0.9898218
vt 0.007499993 0.9898218
vt 0.17166674 0.01269877
vt 0.17166674 0.9898218
vt 0.007499993 0.01269877
vt 0.33583337 0.01269877
vt 0.33583337 0.9898218
vt 0.5 0.01269877
vt 0.5 0.9898218
vt 0.66416675 0.01269877
vt 0.66416675 0.9898218
vt 0.8283334 0.01269877
vt 0.8283334 0.9898218
vt 0.9925 0.01269877
vt 0.9925 0.9898218

g Cylinder02
s 1
usemtl Cylinder02
f 3/3/3 2/2/2 1/1/1 
f 2/2/2 4/4/4 1/1/1 
f 5/5/5 2/2/2 3/3/3 
f 6/6/6 5/5/5 3/3/3 
f 7/7/7 5/5/5 6/6/6 
f 8/8/8 7/7/7 6/6/6 
f 9/9/9 7/7/7 8/8/8 
f 10/10/10 9/9/9 8/8/8 
f 11/11/11 9/9/9 10/10/10 
f 12/12/12 11/11/11 10/10/10 
f 13/13/13 11/11/11 12/12/12 
f 14/14/14 13/13/13 12/12/12 
f 17/17/17 16/16/16 15/15/15 
f 16/16/16 18/18/18 15/15/15 
f 19/19/19 16/16/16 17/17/17 
f 20/20/20 19/19/19 17/17/17 
f 21/21/21 19/19/19 20/20/20 
f 22/22/22 21/21/21 20/20/20 
f 23/23/23 21/21/21 22/22/22 
f 24/24/24 23/23/23 22/22/22 
f 25/25/25 23/23/23 24/24/24 
f 26/26/26 25/25/25 24/24/24 
f 27/27/27 25/25/25 26/26/26 
f 28/28/28 27/27/27 26/26/26 

