# Created by DisUnity v0.3.4
v -0.0049215374 0.009083228 0.005558225
v 0.002979214 -0.0065851496 0.007890825
v -0.006541048 -0.005625014 0.006977491
v 0.004598726 0.008123092 0.0064715575
v -0.0028897368 0.023279447 -6.9684506E-4
v 0.006630527 0.022319308 2.1648764E-4
v -0.0025066435 0.024576835 -0.007890829
v 0.0078727985 0.023530044 -0.0068950695
v 0.0017719888 -0.021805419 0.004474287
v -0.0077482737 -0.020845285 0.003560953
v 0.0025757884 -0.024576826 -0.002253015
v -0.0078036534 -0.02353004 -0.003248775
v -0.014118463 0.009641814 8.52437E-4
v -0.015737975 -0.005066433 0.0022717023
v -0.016451996 -0.0064046904 -0.005386384
v -0.014686327 0.0096309325 -0.0069337357
v -0.015569116 -0.01871829 -0.0018201935
v -0.011095439 0.021911163 -0.005740717
v 0.010729267 -0.02137053 7.027614E-4
v 0.015202944 0.019258918 -0.0032177614
v 0.012822809 -0.00794684 0.005011704
v 0.0146863265 -0.009545054 -0.0023991049
v 0.016451998 0.0064905738 -0.0039464566
v 0.014442322 0.006761403 0.0035924362
vn -0.25707328 0.28580877 0.9231612
vn 0.09378111 -0.08301392 0.9921259
vn -0.27995592 -0.030929781 0.9595145
vn 0.11586551 0.23471583 0.96513397
vn -0.20417199 0.7725179 0.60127354
vn 0.21981703 0.74192494 0.6334255
vn -0.0715383 0.9822613 0.1733349
vn 0.2305536 0.9517947 0.20231625
vn 0.086897805 -0.62687325 0.7742601
vn -0.33587974 -0.5977848 0.7278998
vn 0.024085145 -0.9233282 0.38325563
vn -0.27800676 -0.8928617 0.35427427
vn -0.7764655 0.2986724 0.55488396
vn -0.81846225 0.009119234 0.57448786
vn -0.9955599 0.037759397 0.08622504
vn -0.9782731 0.19475646 0.07107577
vn -0.7066508 -0.3972704 0.5855091
vn -0.57590306 0.61962813 0.5332885
vn 0.46741503 -0.48489547 0.73918843
vn 0.60558015 0.5227914 0.59996814
vn 0.6671887 -0.16296002 0.7268448
vn 0.9489573 -0.15834896 0.2727739
vn 0.96624416 -0.0013517762 0.25762448
vn 0.7104369 0.12503903 0.6925639
vt 0.90250206 0.13204587
vt 0.8233662 0.18321663
vt 0.8233662 0.13204587
vt 0.90250206 0.18321663
vt 0.9698743 0.13458139
vt 0.9698744 0.18068117
vt 0.9923506 0.12973684
vt 0.9923506 0.18552577
vt 0.75599396 0.18068117
vt 0.7559939 0.13458139
vt 0.73351777 0.18552577
vt 0.73351777 0.12973684
vt 0.8985809 0.088481545
vt 0.8272874 0.088481545
vt 0.8197953 0.073948026
vt 0.9060729 0.073948026
vt 0.7536335 0.08695519
vt 0.97223485 0.08695507
vt 0.7536335 0.22830737
vt 0.97223496 0.22830737
vt 0.82728744 0.22678107
vt 0.8197954 0.24131453
vt 0.9060729 0.24131453
vt 0.8985809 0.22678107

g Object04
s 1
usemtl Object04
f 3/3/3 2/2/2 1/1/1 
f 4/4/4 1/1/1 2/2/2 
f 1/1/1 4/4/4 5/5/5 
f 6/6/6 5/5/5 4/4/4 
f 5/5/5 6/6/6 7/7/7 
f 8/8/8 7/7/7 6/6/6 
f 2/2/2 3/3/3 9/9/9 
f 10/10/10 9/9/9 3/3/3 
f 9/9/9 10/10/10 11/11/11 
f 12/12/12 11/11/11 10/10/10 
f 1/1/1 13/13/13 3/3/3 
f 14/14/14 3/3/3 13/13/13 
f 3/3/3 14/14/14 10/10/10 
f 14/14/14 13/13/13 15/15/15 
f 16/16/16 15/15/15 13/13/13 
f 17/17/17 14/14/14 15/15/15 
f 17/17/17 12/12/12 10/10/10 
f 17/17/17 10/10/10 14/14/14 
f 18/18/18 16/16/16 13/13/13 
f 18/18/18 5/5/5 7/7/7 
f 19/19/19 9/9/9 11/11/11 
f 20/20/20 8/8/8 6/6/6 
f 13/13/13 1/1/1 18/18/18 
f 5/5/5 18/18/18 1/1/1 
f 9/9/9 19/19/19 2/2/2 
f 21/21/21 2/2/2 19/19/19 
f 19/19/19 22/22/22 21/21/21 
f 22/22/22 23/23/23 21/21/21 
f 24/24/24 21/21/21 23/23/23 
f 20/20/20 24/24/24 23/23/23 
f 24/24/24 4/4/4 21/21/21 
f 2/2/2 21/21/21 4/4/4 
f 20/20/20 6/6/6 24/24/24 
f 4/4/4 24/24/24 6/6/6 

