# Created by DisUnity v0.3.4
v -0.025766453 -0.16072609 0.014876204
v -0.0302536 0.104896575 -0.017466934
v -0.0302536 0.10489655 0.017466916
v -0.025766453 -0.16072609 -0.0148762725
v -0.0 -0.16072604 0.029752433
v 4.6133975E-11 0.10489655 0.034933843
v 4.6133975E-11 0.16072609 8.34465E-9
v -0.0302536 0.104896575 -0.017466934
v 4.6133975E-11 0.104896575 -0.03493385
v -0.025766453 -0.16072609 -0.0148762725
v -0.0 -0.16072604 -0.029752493
v 0.0302536 0.10489655 0.017466916
v 0.0302536 0.104896575 -0.017466934
v 0.025766453 -0.16072609 0.014876204
v 0.025766453 -0.16072609 -0.0148762725
v -0.0 -0.16072604 0.029752433
v 4.6133975E-11 0.10489655 0.034933843
v 0.0302536 0.104896575 -0.017466934
v 4.6133975E-11 0.104896575 -0.03493385
v 0.025766453 -0.16072609 -0.0148762725
v -0.0 -0.16072604 -0.029752493
v -0.0 -0.16072604 -0.029752493
v -0.025766453 -0.16072609 0.014876204
v -0.0 -0.16072604 0.029752433
v -0.025766453 -0.16072609 -0.0148762725
v -0.0 -0.16072604 -0.029752493
v 0.025766453 -0.16072609 0.014876204
v 0.025766453 -0.16072609 -0.0148762725
v -0.0 -0.16072604 0.029752433
vn -0.86586046 -0.019502686 0.4999053
vn -0.83946466 0.2457613 -0.4846653
vn -0.8394648 0.24576099 0.48466527
vn -0.8658604 -0.019502675 -0.4999054
vn -0.0 -0.019502781 0.9998098
vn -0.0 0.24576089 0.9693305
vn -0.0 1.0 1.553529E-7
vn -0.83946466 0.2457613 -0.4846653
vn -0.0 0.24576119 -0.96933043
vn -0.8658604 -0.019502675 -0.4999054
vn -0.0 -0.01950275 -0.9998098
vn 0.8394648 0.24576099 0.48466527
vn 0.83946466 0.2457613 -0.4846653
vn 0.86586046 -0.019502686 0.4999053
vn 0.8658604 -0.019502675 -0.4999054
vn -0.0 -0.019502781 0.9998098
vn -0.0 0.24576089 0.9693305
vn 0.83946466 0.2457613 -0.4846653
vn -0.0 0.24576119 -0.96933043
vn 0.8658604 -0.019502675 -0.4999054
vn -0.0 -0.01950275 -0.9998098
vn -0.0 -1.0 0.0
vn 1.4804897E-6 -1.0 0.0
vn -0.0 -1.0 0.0
vn 1.4804897E-6 -1.0 0.0
vn -0.0 -1.0 0.0
vn -1.4804897E-6 -1.0 0.0
vn -1.4804897E-6 -1.0 0.0
vn -0.0 -1.0 0.0
vt 0.13989624 0.9903333
vt 0.260495 0.3546055
vt 0.13989624 0.3546055
vt 0.260495 0.9903333
vt 0.019297468 0.9903333
vt 0.019297468 0.3546055
vt 0.20019566 0.19567347
vt 0.13989629 0.3546055
vt 0.019297484 0.3546055
vt 0.13989629 0.9903333
vt 0.019297484 0.9903333
vt 0.13989624 0.3546055
vt 0.260495 0.3546055
vt 0.13989624 0.9903333
vt 0.260495 0.9903333
vt 0.019297468 0.9903333
vt 0.019297468 0.3546055
vt 0.13989629 0.3546055
vt 0.019297484 0.3546055
vt 0.13989629 0.9903333
vt 0.019297484 0.9903333
vt 0.5171598 0.27124226
vt 0.3153865 0.38773608
vt 0.24812876 0.27124226
vt 0.44990203 0.38773614
vt 0.5171598 0.27124226
vt 0.3153865 0.38773608
vt 0.44990203 0.38773614
vt 0.24812876 0.27124226

g Object05
s 1
usemtl Object05
f 3/3/3 2/2/2 1/1/1 
f 4/4/4 1/1/1 2/2/2 
f 1/1/1 5/5/5 3/3/3 
f 6/6/6 3/3/3 5/5/5 
f 7/7/7 2/2/2 3/3/3 
f 7/7/7 3/3/3 6/6/6 
f 7/7/7 9/9/9 8/8/8 
f 8/8/8 9/9/9 10/10/10 
f 11/11/11 10/10/10 9/9/9 
f 13/13/13 7/7/7 12/12/12 
f 12/12/12 14/14/14 13/13/13 
f 15/15/15 13/13/13 14/14/14 
f 14/14/14 12/12/12 16/16/16 
f 17/17/17 16/16/16 12/12/12 
f 12/12/12 7/7/7 17/17/17 
f 19/19/19 7/7/7 18/18/18 
f 18/18/18 20/20/20 19/19/19 
f 21/21/21 19/19/19 20/20/20 
f 24/24/24 23/23/23 22/22/22 
f 25/25/25 22/22/22 23/23/23 
f 28/28/28 27/27/27 26/26/26 
f 29/29/29 26/26/26 27/27/27 

