# Created by DisUnity v0.3.4
v -0.003274296 0.0025709127 0.0044619176
v -0.0064522857 -6.77527E-5 0.0024826985
v -0.00661455 0.002353522 -0.0020942478
v -0.002675344 0.008222124 -0.001862993
v -0.003274296 0.0025709127 0.0044619176
v -0.0065302555 0.001978986 -0.004012672
v -0.005128774 0.0026495543 -0.00516412
v -0.0075066313 -0.0023522465 -0.0030273935
v -0.0029518658 0.0026082965 -0.00659418
v 0.009942477 0.0024998954 -0.002344072
v 0.007098659 0.0017738653 0.0040294663
v -0.0017963516 -0.0028896544 -7.128098E-4
v -0.0064522857 -6.77527E-5 0.0024826985
v 4.2642912E-4 -0.0011916005 -9.2022656E-4
v -0.0029518658 0.0026082965 -0.00659418
v 0.007098659 0.0017738653 0.0040294663
v -0.003274296 0.0025709127 0.0044619176
v -0.002675344 0.008222124 -0.001862993
v 4.2642912E-4 -0.0011916005 -9.2022656E-4
v -0.003274296 0.0025709127 0.0044619176
v -0.0017963516 -0.0028896544 -7.128098E-4
v -0.003274296 0.0025709127 0.0044619176
v 4.2642912E-4 -0.0011916005 -9.2022656E-4
v -0.0065302555 0.001978986 -0.004012672
v 4.2642912E-4 -0.0011916005 -9.2022656E-4
v -0.0017963516 -0.0028896544 -7.128098E-4
v -0.0065302555 0.001978986 -0.004012672
v -0.0075066313 -0.0023522465 -0.0030273935
v 4.2642912E-4 -0.0011916005 -9.2022656E-4
v -0.005128774 0.0026495543 -0.00516412
v -0.0065302555 0.001978986 -0.004012672
v 0.007098659 0.0017738653 0.0040294663
v 0.009942477 0.0024998954 -0.002344072
v -0.00661455 0.002353522 -0.0020942478
v -0.0064522857 -6.77527E-5 0.0024826985
v -0.0017963516 -0.0028896544 -7.128098E-4
v -0.0075066313 -0.0023522465 -0.0030273935
v -0.00661455 0.002353522 -0.0020942478
v -0.0017963516 -0.0028896544 -7.128098E-4
v 0.009942477 0.0024998954 -0.002344072
v -0.002675344 0.008222124 -0.001862993
v 4.2642912E-4 -0.0011916005 -9.2022656E-4
v -0.002675344 0.008222124 -0.001862993
v -0.0029518658 0.0026082965 -0.00659418
v 4.2642912E-4 -0.0011916005 -9.2022656E-4
vn -0.2742057 0.11882444 0.95430183
vn -0.717428 0.6049425 0.3454585
vn -0.87180614 0.48379406 0.07679413
vn -0.40475908 0.8652503 0.29582432
vn -0.2742057 0.11882444 0.95430183
vn -0.72364086 0.026094504 -0.68968326
vn -0.57847047 -0.09708945 -0.8099047
vn 0.079812065 -0.23818018 -0.96793604
vn -0.52352685 -0.32506776 -0.7875599
vn 0.90101945 0.12284415 0.4160207
vn 0.62336385 -0.11505163 0.77342135
vn 0.52303237 -0.8106369 -0.26325834
vn 0.0985132 -0.6703307 0.7354943
vn 0.27680477 -0.95136774 0.13519807
vn -0.52352685 -0.32506776 -0.7875599
vn 0.62336385 -0.11505163 0.77342135
vn -0.2742057 0.11882444 0.95430183
vn -0.40475908 0.8652503 0.29582432
vn 0.27680477 -0.95136774 0.13519807
vn -0.2742057 0.11882444 0.95430183
vn 0.52303237 -0.8106369 -0.26325834
vn -0.2742057 0.11882444 0.95430183
vn 0.27680477 -0.95136774 0.13519807
vn -0.72364086 0.026094504 -0.68968326
vn 0.27680477 -0.95136774 0.13519807
vn 0.52303237 -0.8106369 -0.26325834
vn -0.72364086 0.026094504 -0.68968326
vn 0.079812065 -0.23818018 -0.96793604
vn 0.27680477 -0.95136774 0.13519807
vn -0.57847047 -0.09708945 -0.8099047
vn -0.72364086 0.026094504 -0.68968326
vn 0.62336385 -0.11505163 0.77342135
vn 0.90101945 0.12284415 0.4160207
vn -0.6466681 -0.6834769 -0.33864376
vn -0.646668 -0.683477 -0.33864373
vn -0.646668 -0.68347704 -0.33864373
vn -0.38222477 -0.1094914 0.91755974
vn -0.38222474 -0.10949139 0.91755974
vn -0.38222477 -0.1094914 0.91755974
vn -0.09691189 -0.13074489 -0.98666805
vn -0.09691193 -0.13074492 -0.98666805
vn -0.0969119 -0.1307449 -0.98666805
vn 0.8962136 0.25924537 -0.35999027
vn 0.8962136 0.2592454 -0.35999036
vn 0.8962136 0.2592454 -0.3599903
vt 0.20268862 0.19113994
vt 0.19853354 0.43521476
vt 0.16074409 0.58899176
vt 0.104736686 0.6008622
vt 0.20268862 0.19113994
vt 0.16464072 0.6479602
vt 0.14002189 0.6889409
vt 0.21486877 0.612152
vt 0.107759364 0.75309664
vt -0.15737987 0.57259846
vt -0.13239479 0.33770496
vt 0.19853354 0.43521476
vt 0.16074409 0.58899176
vt 0.107759364 0.75309664
vt 0.104736686 0.6008622
vt 0.8676052 0.33770496
vt 1.1212478 0.34750402
vt 1.1047367 0.6008622
vt 1.1212478 0.34750402
vt 1.1047367 0.6008622
vt 0.16074409 0.58899176
vt 0.104736686 0.6008622
vt 0.121247806 0.34750402
vt 0.21486877 0.612152
vt 0.22162169 0.6083111
vt 0.16074409 0.58899176
vt 0.21486877 0.612152
vt 0.16464072 0.6479602
vt 0.104736686 0.6008622
vt 0.16464072 0.6479602
vt 0.14002189 0.6889409
vt -0.15737987 0.57259846
vt -0.13239479 0.33770496
vt 0.16074409 0.58899176
vt 0.19853354 0.43521476
vt 0.16074409 0.58899176
vt 0.21486877 0.612152
vt 0.16074409 0.58899176
vt 0.16074409 0.58899176
vt -0.15737987 0.57259846
vt 0.104736686 0.6008622
vt 0.104736686 0.6008622
vt 0.104736686 0.6008622
vt 0.107759364 0.75309664
vt 0.104736686 0.6008622

g Object01
s 1
usemtl Object01
f 3/3/3 2/2/2 1/1/1 
f 5/5/5 4/4/4 3/3/3 
f 3/3/3 4/4/4 6/6/6 
f 7/7/7 6/6/6 4/4/4 
f 6/6/6 8/8/8 3/3/3 
f 4/4/4 9/9/9 7/7/7 
f 11/11/11 10/10/10 4/4/4 
f 13/13/13 12/12/12 5/5/5 
f 15/15/15 14/14/14 7/7/7 
f 18/18/18 17/17/17 16/16/16 
f 20/20/20 19/19/19 16/16/16 
f 23/23/23 22/22/22 21/21/21 
f 25/25/25 21/21/21 24/24/24 
f 28/28/28 27/27/27 26/26/26 
f 31/31/31 30/30/30 29/29/29 
f 33/33/33 32/32/32 29/29/29 
f 36/36/36 35/35/35 34/34/34 
f 39/39/39 38/38/38 37/37/37 
f 42/42/42 41/41/41 40/40/40 
f 45/45/45 44/44/44 43/43/43 

