# Created by DisUnity v0.3.4
v 0.00949923 0.0025646351 0.018600421
v 0.0046792985 -0.0025646351 0.02035474
v 0.0046792985 0.0025646351 0.020354735
v 0.009499226 -0.0025646351 0.018600421
v 0.0046792985 0.0025646351 0.020354735
v -0.004679303 0.0025646256 -0.02035474
v 0.00949923 0.0025646351 0.018600421
v -0.00949922 0.0025646256 -0.018600415
v -0.00949922 0.0025646256 -0.018600415
v 0.0046792985 -0.0025646351 0.02035474
v -0.00949923 -0.0025646351 -0.018600408
v 0.0046792985 0.0025646351 0.020354735
v 0.009499226 -0.0025646351 0.018600421
v -0.00949923 -0.0025646351 -0.018600408
v 0.0046792985 -0.0025646351 0.02035474
v -0.0046792887 -0.0025646351 -0.020354742
v 0.00949923 0.0025646351 0.018600421
v -0.0046792887 -0.0025646351 -0.020354742
v 0.009499226 -0.0025646351 0.018600421
v -0.004679303 0.0025646256 -0.02035474
vn 0.34202087 3.0510913E-7 0.9396923
vn 0.3420209 3.051081E-7 0.9396923
vn 0.3420203 8.735752E-7 0.93969256
vn 0.3420214 -2.633581E-7 0.93969214
vn -0.0 1.0 -2.1617556E-7
vn -0.0 1.0 -2.1617544E-7
vn -0.0 1.0 -2.1617558E-7
vn -0.0 1.0 -2.161754E-7
vn -0.93969256 2.0747027E-6 0.3420204
vn -0.93969256 4.673403E-7 0.34202024
vn -0.93969256 2.224088E-6 0.3420204
vn -0.93969256 3.1795545E-7 0.34202024
vn -0.0 -1.0 0.0
vn -0.0 -1.0 0.0
vn -0.0 -1.0 0.0
vn -0.0 -1.0 0.0
vn 0.9396927 -6.0557994E-7 -0.34202003
vn 0.93969256 2.4918409E-6 -0.3420204
vn 0.9396927 -8.934474E-7 -0.34201995
vn 0.9396925 2.7797082E-6 -0.34202045
vt 0.027298337 0.7664707
vt 0.053872865 0.7398961
vt 0.053872865 0.7664707
vt 0.027298337 0.7398961
vt 0.97681415 0.7631532
vt 0.7845378 0.7391212
vt 0.97681415 0.7391212
vt 0.7845378 0.7631532
vt 0.7845378 0.7631532
vt 0.97681415 0.787185
vt 0.7845378 0.787185
vt 0.97681415 0.7631532
vt 0.97681415 0.81121707
vt 0.7845378 0.787185
vt 0.97681415 0.787185
vt 0.7845378 0.81121707
vt 0.97681415 0.83524907
vt 0.7845378 0.81121707
vt 0.97681415 0.81121707
vt 0.7845378 0.83524907

g Object07
s 1
usemtl Object07
f 3/3/3 2/2/2 1/1/1 
f 4/4/4 1/1/1 2/2/2 
f 7/7/7 6/6/6 5/5/5 
f 8/8/8 5/5/5 6/6/6 
f 11/11/11 10/10/10 9/9/9 
f 12/12/12 9/9/9 10/10/10 
f 15/15/15 14/14/14 13/13/13 
f 16/16/16 13/13/13 14/14/14 
f 19/19/19 18/18/18 17/17/17 
f 20/20/20 17/17/17 18/18/18 

