# Created by DisUnity v0.3.4
v -0.0058484552 0.12691252 0.013521433
v 0.0058484576 -0.028475637 0.013521409
v -0.0058484697 -0.028475642 0.013521404
v 0.005848472 0.12691255 0.013521433
v -0.0032088826 -0.12691255 0.013521423
v 0.0032088612 -0.12691255 0.013521423
v 0.005848465 0.11703813 -0.012692843
v -0.0058484552 0.12691252 0.013521433
v -0.0058484576 0.11703812 -0.012692843
v 0.005848472 0.12691255 0.013521433
v -0.0058484552 -0.028139858 -0.013521433
v -0.0058484552 0.12691252 0.013521433
v -0.0058484697 -0.028475642 0.013521404
v -0.0058484576 0.11703812 -0.012692843
v -0.0058484743 -0.078559674 -0.0058873654
v -0.004499981 -0.0961881 0.0044427346
v -0.0032088826 -0.12691255 0.013521423
v -0.0032088757 -0.12691255 0.006826186
v -0.0032088757 -0.12691255 0.006826186
v 0.0032088612 -0.12691255 0.013521423
v 0.0032088612 -0.12691255 0.006826186
v -0.0032088826 -0.12691255 0.013521423
v 0.0058484576 -0.028475637 0.013521409
v 0.005848472 -0.028139863 -0.013521433
v 0.00584846 -0.07855967 -0.0058873654
v 0.004499962 -0.096188106 0.0044427346
v 0.0032088612 -0.12691255 0.013521423
v 0.0032088612 -0.12691255 0.006826186
v 0.005848465 0.11703813 -0.012692843
v 0.005848472 0.12691255 0.013521433
vn -0.0 -1.54902E-7 1.0
vn -3.8932686E-7 0.0 1.0
vn -4.076602E-7 0.0 1.0
vn -0.0 -1.5343417E-7 1.0
vn -0.0 1.4810632E-7 1.0
vn -0.0 1.4532269E-7 1.0
vn -9.551196E-7 0.93581116 -0.3525017
vn -1.3338383E-6 0.9358111 -0.35250193
vn -7.6298625E-7 0.9358112 -0.35250163
vn -1.5259716E-6 0.93581104 -0.35250196
vn -1.0 1.8344977E-7 -4.9166357E-7
vn -1.0 0.0 0.0
vn -0.9999614 -0.003428082 0.008094216
vn -1.0 0.0 0.0
vn -0.9976724 -0.024639655 0.0635825
vn -0.9981735 -0.028322063 0.05336248
vn -0.9991868 -0.039209798 0.009401055
vn -0.99911827 -0.041985124 -1.0673632E-6
vn -0.0 -1.0 0.0
vn -0.0 -1.0 0.0
vn -0.0 -1.0 0.0
vn -0.0 -1.0 0.0
vn 0.9999614 -0.0034283008 0.008095111
vn 1.0 0.0 5.2836583E-7
vn 0.9976724 -0.024639837 0.06358283
vn 0.9981735 -0.028322149 0.053362556
vn 0.9991868 -0.039209627 0.009401921
vn 0.99911827 -0.0419849 0.0
vn 1.0 0.0 -1.6525664E-7
vn 1.0 0.0 -2.3817232E-7
vt 0.9755032 0.84769475
vt 0.48427525 0.88467205
vt 0.48427525 0.84769464
vt 0.9755033 0.8846721
vt 0.17308712 0.85603917
vt 0.17308712 0.8763276
vt 0.17151038 0.9045778
vt 0.25438148 0.9415552
vt 0.17151038 0.9415552
vt 0.25438148 0.90457773
vt 0.48533678 0.9033615
vt 0.9755032 0.988852
vt 0.48427525 0.9888519
vt 0.9442873 0.90598094
vt 0.32594484 0.92749506
vt 0.2702162 0.96015155
vt 0.17308712 0.98885196
vt 0.17308712 0.96768636
vt 0.26980683 0.91404843
vt 0.2909724 0.93433684
vt 0.26980683 0.93433684
vt 0.2909724 0.91404843
vt 0.48427525 0.98885196
vt 0.48533672 0.9033615
vt 0.32594484 0.92749506
vt 0.2702161 0.96015155
vt 0.17308712 0.98885196
vt 0.17308712 0.96768636
vt 0.9442874 0.90598094
vt 0.9755033 0.988852

g Object09
s 1
usemtl Object09
f 3/3/3 2/2/2 1/1/1 
f 4/4/4 1/1/1 2/2/2 
f 3/3/3 5/5/5 2/2/2 
f 6/6/6 2/2/2 5/5/5 
f 9/9/9 8/8/8 7/7/7 
f 10/10/10 7/7/7 8/8/8 
f 13/13/13 12/12/12 11/11/11 
f 14/14/14 11/11/11 12/12/12 
f 11/11/11 15/15/15 13/13/13 
f 16/16/16 13/13/13 15/15/15 
f 13/13/13 16/16/16 17/17/17 
f 18/18/18 17/17/17 16/16/16 
f 21/21/21 20/20/20 19/19/19 
f 22/22/22 19/19/19 20/20/20 
f 25/25/25 24/24/24 23/23/23 
f 25/25/25 23/23/23 26/26/26 
f 23/23/23 27/27/27 26/26/26 
f 28/28/28 26/26/26 27/27/27 
f 24/24/24 29/29/29 23/23/23 
f 30/30/30 23/23/23 29/29/29 

