# Created by DisUnity v0.3.4
v -0.0027847507 8.251259E-5 -0.00332431
v -0.0035039496 0.0027973857 0.0014004686
v -0.0011497873 -0.0011813758 0.0011109953
v -0.0014516655 0.002282885 0.0050231717
v -2.74933E-4 -3.9640546E-4 0.004339533
v 0.003687584 -0.0026406527 -0.0034968732
v 0.0014696206 -0.0014198343 -0.005121377
v -0.0020815185 0.0021508043 -0.003695814
v 0.0010794934 0.0012692629 1.6711713E-4
v -0.0035039496 0.0027973857 0.0014004686
v -0.0014516655 0.002282885 0.0050231717
v 0.0010794934 0.0012692629 1.6711713E-4
v 4.168571E-4 1.547107E-4 0.00401808
v -0.0014516655 0.002282885 0.0050231717
v 0.003687584 -0.0026406527 -0.0034968732
v 0.0010794934 0.0012692629 1.6711713E-4
v -0.0020815185 0.0021508043 -0.003695814
v -0.0020815185 0.0021508043 -0.003695814
v 0.0014696206 -0.0014198343 -0.005121377
v 0.003687584 -0.0026406527 -0.0034968732
v -0.0035039496 0.0027973857 0.0014004686
v -0.0027847507 8.251259E-5 -0.00332431
v -0.0020815185 0.0021508043 -0.003695814
v 4.168571E-4 1.547107E-4 0.00401808
v -0.0011497873 -0.0011813758 0.0011109953
v -2.74933E-4 -3.9640546E-4 0.004339533
v -0.0011497873 -0.0011813758 0.0011109953
v 4.168571E-4 1.547107E-4 0.00401808
v 0.0010794934 0.0012692629 1.6711713E-4
v -2.74933E-4 -3.9640546E-4 0.004339533
v -0.0014516655 0.002282885 0.0050231717
v 4.168571E-4 1.547107E-4 0.00401808
v 0.003687584 -0.0026406527 -0.0034968732
v -0.0011497873 -0.0011813758 0.0011109953
v 0.0010794934 0.0012692629 1.6711713E-4
v -0.0027847507 8.251259E-5 -0.00332431
v 0.0014696206 -0.0014198343 -0.005121377
v -0.0020815185 0.0021508043 -0.003695814
vn -0.5905303 -0.8068094 -0.018234296
vn -0.6805045 0.65119946 0.33593577
vn -0.72852975 -0.6669297 0.1563624
vn -0.37538537 0.57329 0.7283024
vn -0.8287641 -0.44915575 0.33378014
vn 0.40934435 -0.36379823 -0.83671266
vn 0.4605683 -0.28282017 -0.84136176
vn 0.48908117 0.84902227 -0.19990179
vn 0.51301014 0.8516145 -0.107579485
vn -0.6805045 0.65119946 0.33593577
vn -0.37538537 0.57329 0.7283024
vn 0.51301014 0.8516145 -0.107579485
vn 0.782813 0.54868996 0.29350162
vn -0.37538537 0.57329 0.7283024
vn 0.40934435 -0.36379823 -0.83671266
vn 0.51301014 0.8516145 -0.107579485
vn 0.48908117 0.84902227 -0.19990179
vn 0.48908117 0.84902227 -0.19990179
vn 0.4605683 -0.28282017 -0.84136176
vn 0.40934435 -0.36379823 -0.83671266
vn -0.9207338 0.2609488 -0.29009473
vn -0.9207338 0.2609488 -0.2900948
vn -0.9207338 0.26094884 -0.29009476
vn 0.628325 -0.777723 0.018831028
vn 0.6283249 -0.7777231 0.018831028
vn 0.62832487 -0.7777231 0.018831026
vn 0.7232835 -0.6865482 -0.07424632
vn 0.7232836 -0.6865481 -0.074246325
vn 0.7232836 -0.6865481 -0.074246325
vn 0.44323462 -0.033893675 0.8957646
vn 0.44323456 -0.033893675 0.89576465
vn 0.44323456 -0.03389368 0.89576465
vn 0.6172394 -0.27800247 0.7360232
vn 0.6172394 -0.27800244 0.73602325
vn 0.6172394 -0.27800244 0.73602325
vn -0.39775974 -0.029472476 -0.9170161
vn -0.39775974 -0.029472476 -0.9170161
vn -0.39775974 -0.029472476 -0.9170161
vt 0.68776405 0.39366233
vt 0.7441896 0.5757723
vt 0.6678662 0.5088911
vt 0.6945687 0.6960658
vt 0.6442897 0.6339754
vt 0.59328836 0.26706082
vt 0.6719215 0.24559963
vt 0.68776405 0.39366233
vt 0.7441896 0.5757723
vt 0.6678662 0.5088911
vt 0.6945687 0.6960658
vt 0.6678662 0.5088911
vt 0.6945687 0.6960658
vt 0.6442897 0.6339754
vt 0.59328836 0.26706082
vt 0.68776405 0.39366233
vt 0.6678662 0.5088911
vt 0.68776405 0.39366233
vt 0.59328836 0.26706082
vt 0.6719215 0.24559963
vt 0.7441896 0.5757723
vt 0.68776405 0.39366233
vt 0.68776405 0.39366233
vt 0.6442897 0.6339754
vt 0.6678662 0.5088911
vt 0.6442897 0.6339754
vt 0.6678662 0.5088911
vt 0.6442897 0.6339754
vt 0.6678662 0.5088911
vt 0.6442897 0.6339754
vt 0.6945687 0.6960658
vt 0.6442897 0.6339754
vt 0.59328836 0.26706082
vt 0.6678662 0.5088911
vt 0.6678662 0.5088911
vt 0.68776405 0.39366233
vt 0.6719215 0.24559963
vt 0.68776405 0.39366233

g Object12
s 1
usemtl Object12
f 3/3/3 2/2/2 1/1/1 
f 2/2/2 3/3/3 4/4/4 
f 5/5/5 4/4/4 3/3/3 
f 3/3/3 1/1/1 6/6/6 
f 7/7/7 6/6/6 1/1/1 
f 10/10/10 9/9/9 8/8/8 
f 9/9/9 10/10/10 11/11/11 
f 14/14/14 13/13/13 12/12/12 
f 17/17/17 16/16/16 15/15/15 
f 20/20/20 19/19/19 18/18/18 
f 23/23/23 22/22/22 21/21/21 
f 26/26/26 25/25/25 24/24/24 
f 29/29/29 28/28/28 27/27/27 
f 32/32/32 31/31/31 30/30/30 
f 35/35/35 34/34/34 33/33/33 
f 38/38/38 37/37/37 36/36/36 

