# Created by DisUnity v0.3.4
v -0.0018146152 -6.968886E-4 -8.9322287E-4
v 2.1260734E-4 -0.0013092665 -0.0023813865
v -0.001646982 0.0032263 -9.2209264E-4
v 0.0018138534 0.0013383076 -0.0026253187
v -0.001646982 0.0032263 -9.2209264E-4
v -0.001646982 0.0032263 -9.2209264E-4
v -0.0026045232 0.0012310391 0.0015919226
v -0.0018146152 -6.968886E-4 -8.9322287E-4
v -0.0010312198 0.001085253 0.0013020887
v 2.1260734E-4 -0.0013092665 -0.0023813865
v 0.0033095474 -5.164902E-4 -0.0012834144
v -0.0010312198 0.001085253 0.0013020887
v -0.0018146152 -6.968886E-4 -8.9322287E-4
v -0.0015002234 -5.7080446E-4 0.0017331344
v 0.0018138534 0.0013383076 -0.0026253187
v 2.1260734E-4 -0.0013092665 -0.0023813865
v 0.0033095474 -5.164902E-4 -0.0012834144
v 0.0033095474 -5.164902E-4 -0.0012834144
v -0.001646982 0.0032263 -9.2209264E-4
v 0.0018138534 0.0013383076 -0.0026253187
v -0.001646982 0.0032263 -9.2209264E-4
v 0.0033095474 -5.164902E-4 -0.0012834144
v -0.0010312198 0.001085253 0.0013020887
v -0.0018146152 -6.968886E-4 -8.9322287E-4
v -0.0026045232 0.0012310391 0.0015919226
v -0.0015002234 -5.7080446E-4 0.0017331344
v -0.0026045232 0.0012310391 0.0015919226
v -0.0010312198 0.001085253 0.0013020887
v -0.0015002234 -5.7080446E-4 0.0017331344
v -0.0026045232 0.0012310391 0.0015919226
v -0.001646982 0.0032263 -9.2209264E-4
v -0.0010312198 0.001085253 0.0013020887
vn -0.47662568 -0.8128435 -0.33483338
vn -0.4105927 -0.8773365 -0.24838343
vn -0.72878116 0.07069378 -0.6810876
vn -0.37383544 0.14164305 -0.91661566
vn -0.72878116 0.07069378 -0.6810876
vn -0.72878116 0.07069378 -0.6810876
vn -0.9434721 0.037890352 -0.329279
vn -0.47662568 -0.8128435 -0.33483338
vn 0.6215925 -0.7169852 0.31552318
vn -0.4105927 -0.8773365 -0.24838343
vn 0.019033918 -0.8353154 0.54944134
vn 0.6215925 -0.7169852 0.31552318
vn -0.47662568 -0.8128435 -0.33483338
vn 0.95027894 -0.29504544 -0.099590145
vn 0.38768154 -0.31430796 -0.8665527
vn 0.38768154 -0.31430796 -0.8665527
vn 0.38768154 -0.31430796 -0.8665527
vn 0.5778467 0.7300036 0.36494935
vn 0.5778467 0.7300036 0.36494932
vn 0.5778467 0.73000354 0.3649493
vn 0.54540116 0.674192 0.49799863
vn 0.54540116 0.674192 0.49799865
vn 0.54540116 0.674192 0.49799865
vn -0.850164 -0.51114315 0.12630866
vn -0.850164 -0.51114315 0.12630866
vn -0.850164 -0.5111431 0.12630865
vn 0.19513623 0.19492444 0.96121085
vn 0.19513628 0.19492444 0.96121085
vn 0.19513626 0.19492446 0.96121085
vn 0.18832536 0.7330839 0.6535454
vn 0.18832533 0.7330839 0.6535453
vn 0.18832533 0.7330839 0.6535453
vt 0.28112984 0.10189849
vt 0.38742188 0.15339732
vt 0.20268862 0.19113994
vt 0.36563718 0.27692443
vt 0.20268862 0.19113994
vt 0.20268862 0.19113994
vt 0.15535624 0.18402189
vt 0.28112984 0.10189849
vt 0.38742188 0.15339732
vt 0.20268862 0.19113994
vt 0.36563718 0.27692443
vt 0.20268862 0.19113994
vt 0.15535624 0.18402189
vt 0.28112984 0.10189849
vt 0.36563718 0.27692443
vt 0.38742188 0.15339732
vt 0.36563718 0.27692443
vt 0.36563718 0.27692443
vt 0.20268862 0.19113994
vt 0.36563718 0.27692443
vt 0.20268862 0.19113994
vt 0.36563718 0.27692443
vt 0.20268862 0.19113994
vt 0.28112984 0.10189849
vt 0.15535624 0.18402189
vt 0.15535624 0.18402189
vt 0.15535624 0.18402189
vt 0.20268862 0.19113994
vt 0.15535624 0.18402189
vt 0.15535624 0.18402189
vt 0.20268862 0.19113994
vt 0.20268862 0.19113994

g Object08
s 1
usemtl Object08
f 3/3/3 2/2/2 1/1/1 
f 2/2/2 5/5/5 4/4/4 
f 1/1/1 7/7/7 6/6/6 
f 10/10/10 9/9/9 8/8/8 
f 9/9/9 10/10/10 11/11/11 
f 14/14/14 13/13/13 12/12/12 
f 17/17/17 16/16/16 15/15/15 
f 20/20/20 19/19/19 18/18/18 
f 23/23/23 22/22/22 21/21/21 
f 26/26/26 25/25/25 24/24/24 
f 29/29/29 28/28/28 27/27/27 
f 32/32/32 31/31/31 30/30/30 

