# Created by DisUnity v0.3.4
v -0.007447277 0.005921202 0.0063030384
v 0.003470051 -0.007996371 0.006991644
v -0.0059472667 -0.008830927 0.005256977
v 0.0019700408 0.006755757 0.008037705
v -0.008103061 0.021098675 0.0025612498
v 0.0013142586 0.021933232 0.0042959163
v -0.007515883 0.023670267 -0.004267037
v 0.002751324 0.024580145 -0.0023758197
v 0.0058142883 -0.022323156 0.0011577308
v -0.0036030305 -0.02315771 -5.76936E-4
v 0.0076574674 -0.02367027 -0.0057972204
v -0.0026097405 -0.024580145 -0.007688437
v -0.016202511 0.0054202173 8.135247E-4
v -0.014702504 -0.00933191 -2.3253798E-4
v -0.01458312 -0.009442214 -0.008037705
v -0.0162185 0.0066412566 -0.0068972385
v -0.011310122 -0.021752564 -0.006345186
v -0.015453686 0.018998114 -0.003455587
v 0.014703892 -0.019447219 -0.0015534126
v 0.010560327 0.021303462 0.0013361871
v 0.013549448 -0.0068282387 0.0049714637
v 0.0162185 -0.0067125927 -0.002364056
v 0.014583119 0.00937088 -0.0012235892
v 0.012049438 0.007923889 0.006017525
vn -0.37548956 0.06417866 0.9246019
vn 0.04112177 -0.23264223 0.9716927
vn -0.33190328 -0.25208938 0.9090056
vn -0.00409877 0.08280241 0.9965576
vn -0.40691602 0.599725 0.6890206
vn 0.010447255 0.65009606 0.7597802
vn -0.29361355 0.9026399 0.3146938
vn 0.0052116355 0.9291215 0.36973786
vn 0.16677757 -0.72071314 0.6728728
vn -0.24810524 -0.7698348 0.5880461
vn 0.19644478 -0.95159614 0.23637731
vn -0.102380484 -0.9780779 0.18133384
vn -0.8588635 0.035595965 0.5109662
vn -0.83861256 -0.2554178 0.48113492
vn -0.98375416 -0.17908412 -0.012516111
vn -0.99976534 -0.02161857 -0.0013503889
vn -0.64274156 -0.6266033 0.4407398
vn -0.7313124 0.3891774 0.56011
vn 0.5091652 -0.5011012 0.6997488
vn 0.43578276 0.5223318 0.73298216
vn 0.6351013 -0.1483334 0.75805247
vn 0.93973666 -0.00862552 0.3417903
vn 0.92372537 0.14884005 0.35295615
vn 0.61741257 0.1439713 0.7733524
vt 0.90250206 0.13204587
vt 0.8233662 0.18321663
vt 0.8233662 0.13204587
vt 0.90250206 0.18321663
vt 0.9698743 0.13458139
vt 0.9698744 0.18068117
vt 0.9923506 0.12973684
vt 0.9923506 0.18552577
vt 0.75599396 0.18068117
vt 0.7559939 0.13458139
vt 0.73351777 0.18552577
vt 0.73351777 0.12973684
vt 0.8985809 0.088481545
vt 0.8272874 0.088481545
vt 0.8197953 0.073948026
vt 0.9060729 0.073948026
vt 0.7536335 0.08695519
vt 0.97223485 0.08695507
vt 0.7536335 0.22830737
vt 0.97223496 0.22830737
vt 0.82728744 0.22678107
vt 0.8197954 0.24131453
vt 0.9060729 0.24131453
vt 0.8985809 0.22678107

g Object03
s 1
usemtl Object03
f 3/3/3 2/2/2 1/1/1 
f 4/4/4 1/1/1 2/2/2 
f 1/1/1 4/4/4 5/5/5 
f 6/6/6 5/5/5 4/4/4 
f 5/5/5 6/6/6 7/7/7 
f 8/8/8 7/7/7 6/6/6 
f 2/2/2 3/3/3 9/9/9 
f 10/10/10 9/9/9 3/3/3 
f 9/9/9 10/10/10 11/11/11 
f 12/12/12 11/11/11 10/10/10 
f 1/1/1 13/13/13 3/3/3 
f 14/14/14 3/3/3 13/13/13 
f 3/3/3 14/14/14 10/10/10 
f 14/14/14 13/13/13 15/15/15 
f 16/16/16 15/15/15 13/13/13 
f 17/17/17 14/14/14 15/15/15 
f 17/17/17 12/12/12 10/10/10 
f 17/17/17 10/10/10 14/14/14 
f 18/18/18 16/16/16 13/13/13 
f 18/18/18 5/5/5 7/7/7 
f 19/19/19 9/9/9 11/11/11 
f 20/20/20 8/8/8 6/6/6 
f 13/13/13 1/1/1 18/18/18 
f 5/5/5 18/18/18 1/1/1 
f 9/9/9 19/19/19 2/2/2 
f 21/21/21 2/2/2 19/19/19 
f 19/19/19 22/22/22 21/21/21 
f 22/22/22 23/23/23 21/21/21 
f 24/24/24 21/21/21 23/23/23 
f 20/20/20 24/24/24 23/23/23 
f 24/24/24 4/4/4 21/21/21 
f 2/2/2 21/21/21 4/4/4 
f 20/20/20 6/6/6 24/24/24 
f 4/4/4 24/24/24 6/6/6 

