# Created by DisUnity v0.3.4
v -0.021630768 -0.06966979 -4.582119E-4
v -0.041226275 -0.069669805 0.019531464
v -0.021630768 -0.06966979 0.019531464
v -0.041226275 -0.069669805 -4.582119E-4
v -0.044858847 0.069669805 -0.010207991
v -0.041226275 -0.069669805 0.019531464
v -0.041226275 -0.069669805 -4.582119E-4
v -0.044858847 0.069669805 0.020644175
v -0.041226275 -0.069669805 -4.582119E-4
v -0.018627834 0.069669805 -0.010207991
v -0.044858847 0.069669805 -0.010207991
v -0.021630768 -0.06966979 -4.582119E-4
v -0.021630768 -0.06966979 0.019531464
v -0.044858847 0.069669805 0.020644175
v -0.018627834 0.069669805 0.020644175
v -0.041226275 -0.069669805 0.019531464
v -0.021630768 -0.06966979 -4.582119E-4
v -0.018627834 0.069669805 0.020644175
v -0.018627834 0.069669805 -0.010207991
v -0.021630768 -0.06966979 0.019531464
v -0.047451194 -0.016788278 0.03384144
v -0.065916665 -0.040717777 0.023929507
v -0.06591666 -0.016788278 0.03384143
v -0.047451198 -0.040717788 0.023929512
v -0.065916665 -0.050629705 -4.7683715E-9
v -0.047451187 -0.050629716 -4.7683715E-9
v -0.047451176 0.007141218 0.023929512
v -0.06591666 0.007141218 0.023929512
v -0.047451176 0.017053152 0.0
v -0.06591666 0.017053152 0.0
v -0.047451187 -0.050629716 -4.7683715E-9
v -0.065916665 -0.040717777 -0.023929514
v -0.065916665 -0.050629705 -4.7683715E-9
v -0.047451198 -0.040717788 -0.023929514
v -0.06591666 -0.016788278 -0.03384144
v -0.047451194 -0.016788278 -0.03384144
v -0.06591666 0.0071412227 -0.023929514
v -0.047451176 0.0071412227 -0.023929514
v -0.06591666 0.017053152 0.0
v -0.047451176 0.017053152 0.0
v -0.047451194 -0.016788278 0.03384144
v -0.047451187 -0.050629716 -4.7683715E-9
v -0.047451198 -0.040717788 0.023929512
v -0.047451194 -0.016788278 -0.03384144
v -0.047451198 -0.040717788 -0.023929514
v -0.047451176 0.017053152 0.0
v -0.047451176 0.0071412227 -0.023929514
v -0.047451176 0.007141218 0.023929512
v -0.06591666 0.007141218 0.023929512
v -0.06591666 0.0071412227 -0.023929514
v -0.06591666 0.017053152 0.0
v -0.065916665 -0.040717777 -0.023929514
v -0.06591666 -0.016788278 -0.03384144
v -0.065916665 -0.040717777 0.023929507
v -0.065916665 -0.050629705 -4.7683715E-9
v -0.06591666 -0.016788278 0.03384143
v -0.021826396 -0.02486751 1.8828869E-4
v 0.024437785 -0.008191867 1.8829346E-4
v -0.021826396 -0.0081918575 1.8828869E-4
v 0.024437785 -0.02486752 1.8828869E-4
v 0.024437785 -0.008191867 0.017920898
v -0.021826396 -0.02486751 0.017920896
v -0.021826396 -0.0081918575 0.017920898
v 0.024437785 -0.02486752 0.017920896
v -0.021826396 -0.02486751 0.017920896
v 0.024437785 -0.02486752 1.8828869E-4
v -0.021826396 -0.02486751 1.8828869E-4
v 0.024437785 -0.02486752 0.017920896
v -0.021826396 -0.0081918575 0.017920898
v 0.024437785 -0.008191867 1.8829346E-4
v 0.024437785 -0.008191867 0.017920898
v -0.021826396 -0.0081918575 1.8828869E-4
v -0.021826396 -0.067960076 1.8828869E-4
v 0.024437785 -0.051284432 1.8829346E-4
v -0.021826396 -0.05128442 1.8828869E-4
v 0.024437785 -0.06796008 1.8828869E-4
v 0.024437785 -0.051284432 0.017920898
v -0.021826396 -0.067960076 0.017920896
v -0.021826396 -0.05128442 0.017920898
v 0.024437785 -0.06796008 0.017920896
v -0.021826396 -0.067960076 0.017920896
v 0.024437785 -0.06796008 1.8828869E-4
v -0.021826396 -0.067960076 1.8828869E-4
v 0.024437785 -0.06796008 0.017920896
v -0.021826396 -0.05128442 0.017920898
v 0.024437785 -0.051284432 1.8829346E-4
v 0.024437785 -0.051284432 0.017920898
v -0.021826396 -0.05128442 1.8828869E-4
v -0.070701964 -0.021582674 -0.0057412433
v -0.041611437 -0.011476731 -0.0057412433
v -0.070701964 -0.011476731 -0.0057412433
v -0.041611437 -0.021582674 -0.0057412433
v -0.041611437 -0.011476731 0.005005236
v -0.070701964 -0.021582674 0.005005236
v -0.070701964 -0.011476731 0.005005236
v -0.041611437 -0.021582674 0.005005236
v -0.070701964 -0.021582674 0.005005236
v -0.041611437 -0.021582674 -0.0057412433
v -0.070701964 -0.021582674 -0.0057412433
v -0.041611437 -0.021582674 0.005005236
v -0.070701964 -0.011476731 0.005005236
v -0.041611437 -0.011476731 -0.0057412433
v -0.041611437 -0.011476731 0.005005236
v -0.070701964 -0.011476731 -0.0057412433
v -0.070701964 -0.011476731 -0.0057412433
v -0.070701964 -0.021582674 0.005005236
v -0.070701964 -0.021582674 -0.0057412433
v -0.070701964 -0.011476731 0.005005236
v 0.070701964 -0.02486751 1.8828869E-4
v 0.024437785 -0.008191867 1.8829346E-4
v 0.024437785 -0.02486752 1.8828869E-4
v 0.070701964 -0.0081918575 1.8828869E-4
v 0.024437785 -0.008191867 0.017920898
v 0.070701964 -0.02486751 0.017920896
v 0.024437785 -0.02486752 0.017920896
v 0.070701964 -0.0081918575 0.017920898
v 0.070701964 -0.02486751 0.017920896
v 0.024437785 -0.02486752 1.8828869E-4
v 0.024437785 -0.02486752 0.017920896
v 0.070701964 -0.02486751 1.8828869E-4
v 0.070701964 -0.0081918575 0.017920898
v 0.024437785 -0.008191867 1.8829346E-4
v 0.070701964 -0.0081918575 1.8828869E-4
v 0.024437785 -0.008191867 0.017920898
v 0.070701964 -0.067960076 1.8828869E-4
v 0.024437785 -0.051284432 1.8829346E-4
v 0.024437785 -0.06796008 1.8828869E-4
v 0.070701964 -0.05128442 1.8828869E-4
v 0.024437785 -0.051284432 0.017920898
v 0.070701964 -0.067960076 0.017920896
v 0.024437785 -0.06796008 0.017920896
v 0.070701964 -0.05128442 0.017920898
v 0.070701964 -0.067960076 0.017920896
v 0.024437785 -0.06796008 1.8828869E-4
v 0.024437785 -0.06796008 0.017920896
v 0.070701964 -0.067960076 1.8828869E-4
v 0.070701964 -0.05128442 0.017920898
v 0.024437785 -0.051284432 1.8829346E-4
v 0.070701964 -0.05128442 1.8828869E-4
v 0.024437785 -0.051284432 0.017920898
vn 4.8668005E-7 -1.0 0.0
vn 4.8668005E-7 -1.0 0.0
vn 4.8668005E-7 -1.0 0.0
vn 4.8668005E-7 -1.0 0.0
vn -0.9996604 -0.026061041 0.0
vn -0.9996604 -0.026061045 0.0
vn -0.9996604 -0.026061043 0.0
vn -0.9996604 -0.026061045 0.0
vn -0.0 -0.06980069 -0.9975609
vn -0.0 -0.06980068 -0.9975609
vn -0.0 -0.06980069 -0.9975609
vn -0.0 -0.06980069 -0.9975609
vn -0.0 -0.007985353 0.9999681
vn -0.0 -0.007985354 0.9999681
vn -0.0 -0.007985354 0.9999681
vn -0.0 -0.007985352 0.9999681
vn 0.99976784 -0.021546189 0.0
vn 0.99976784 -0.021546189 0.0
vn 0.99976784 -0.02154619 0.0
vn 0.99976784 -0.021546189 0.0
vn -3.0040616E-7 1.6428761E-7 1.0
vn -5.0561823E-7 -0.70710677 0.70710677
vn -2.0732303E-7 0.0 1.0
vn -5.2670526E-7 -0.7071068 0.70710677
vn -5.3755053E-7 -1.0 0.0
vn -5.1646344E-7 -1.0 0.0
vn -0.0 0.7071069 0.7071067
vn -0.0 0.70710677 0.7071068
vn -0.0 1.0 0.0
vn -0.0 1.0 0.0
vn -5.1646344E-7 -1.0 0.0
vn -3.6519486E-7 -0.70710677 -0.70710677
vn -5.3755053E-7 -1.0 0.0
vn -3.230208E-7 -0.7071069 -0.7071067
vn -0.0 0.0 -1.0
vn -0.0 2.0535951E-7 -1.0
vn -0.0 0.7071068 -0.70710677
vn -0.0 0.7071069 -0.7071067
vn -0.0 1.0 0.0
vn -0.0 1.0 0.0
vn 1.0 -3.4420017E-7 0.0
vn 1.0 0.0 0.0
vn 1.0 -5.3943796E-7 8.2124456E-7
vn 1.0 -3.442001E-7 0.0
vn 1.0 -5.3943796E-7 -8.212448E-7
vn 1.0 -6.964585E-7 0.0
vn 1.0 -9.621485E-7 3.985349E-7
vn 1.0 -9.62149E-7 -3.9853535E-7
vn -1.0 1.6605624E-7 0.0
vn -1.0 1.6605624E-7 0.0
vn -1.0 0.0 0.0
vn -1.0 1.6605625E-7 0.0
vn -1.0 1.9926749E-7 -4.8107427E-7
vn -1.0 1.6605624E-7 0.0
vn -1.0 0.0 0.0
vn -1.0 1.9926745E-7 4.810742E-7
vn -0.0 0.0 -1.0
vn -0.0 2.2297154E-7 -1.0
vn 1.03068324E-7 0.0 -1.0
vn -0.0 2.859481E-7 -1.0
vn -0.0 -1.4297405E-7 1.0
vn -0.0 -1.4297405E-7 1.0
vn -0.0 -1.4297405E-7 1.0
vn -0.0 -1.4297405E-7 1.0
vn -2.0613665E-7 -1.0 0.0
vn -0.0 -1.0 0.0
vn -2.0613665E-7 -1.0 0.0
vn -0.0 -1.0 0.0
vn 2.0613665E-7 1.0 0.0
vn -0.0 1.0 0.0
vn -0.0 1.0 0.0
vn 2.0613665E-7 1.0 0.0
vn -0.0 0.0 -1.0
vn -0.0 2.2297154E-7 -1.0
vn 1.03068324E-7 0.0 -1.0
vn -0.0 2.859481E-7 -1.0
vn -0.0 -1.4297405E-7 1.0
vn -0.0 -1.4297405E-7 1.0
vn -0.0 -1.4297405E-7 1.0
vn -0.0 -1.4297405E-7 1.0
vn -2.0613665E-7 -1.0 0.0
vn -0.0 -1.0 0.0
vn -2.0613665E-7 -1.0 0.0
vn -0.0 -1.0 0.0
vn 2.0613665E-7 1.0 0.0
vn -0.0 1.0 0.0
vn -0.0 1.0 0.0
vn 2.0613665E-7 1.0 0.0
vn -0.0 0.0 -1.0
vn -0.0 0.0 -1.0
vn -0.0 0.0 -1.0
vn -0.0 0.0 -1.0
vn -0.0 0.0 1.0
vn -0.0 0.0 1.0
vn -0.0 0.0 1.0
vn -0.0 0.0 1.0
vn -0.0 -1.0 0.0
vn -0.0 -1.0 0.0
vn -0.0 -1.0 0.0
vn -0.0 -1.0 0.0
vn -0.0 1.0 0.0
vn -0.0 1.0 0.0
vn -0.0 1.0 0.0
vn -0.0 1.0 0.0
vn -1.0 0.0 0.0
vn -1.0 0.0 0.0
vn -1.0 0.0 0.0
vn -1.0 0.0 0.0
vn -0.0 0.0 -1.0
vn -0.0 2.2297154E-7 -1.0
vn -0.0 2.859481E-7 -1.0
vn -1.03068324E-7 0.0 -1.0
vn -0.0 -1.4297405E-7 1.0
vn -0.0 -1.4297405E-7 1.0
vn -0.0 -1.4297405E-7 1.0
vn -0.0 -1.4297405E-7 1.0
vn 2.0613665E-7 -1.0 0.0
vn -0.0 -1.0 0.0
vn -0.0 -1.0 0.0
vn 2.0613665E-7 -1.0 0.0
vn -2.0613665E-7 1.0 0.0
vn -0.0 1.0 0.0
vn -2.0613665E-7 1.0 0.0
vn -0.0 1.0 0.0
vn -0.0 0.0 -1.0
vn -0.0 2.2297154E-7 -1.0
vn -0.0 2.859481E-7 -1.0
vn -1.03068324E-7 0.0 -1.0
vn -0.0 -1.4297405E-7 1.0
vn -0.0 -1.4297405E-7 1.0
vn -0.0 -1.4297405E-7 1.0
vn -0.0 -1.4297405E-7 1.0
vn 2.0613665E-7 -1.0 0.0
vn -0.0 -1.0 0.0
vn -0.0 -1.0 0.0
vn 2.0613665E-7 -1.0 0.0
vn -2.0613665E-7 1.0 0.0
vn -0.0 1.0 0.0
vn -2.0613665E-7 1.0 0.0
vn -0.0 1.0 0.0
vt 0.52030647 0.4949404
vt 0.61658406 0.39748442
vt 0.52030647 0.39748442
vt 0.61658406 0.4949404
vt 0.30134135 0.6915031
vt 0.39573562 0.9946122
vt 0.30134135 0.9946122
vt 0.39573562 0.6915031
vt 0.43346113 0.9946122
vt 0.47947705 0.6915031
vt 0.43346113 0.6915031
vt 0.47947705 0.9946122
vt 0.47947705 0.9946122
vt 0.43346113 0.6915031
vt 0.47947705 0.6915031
vt 0.43346113 0.9946122
vt 0.30134135 0.9946122
vt 0.39573562 0.6915031
vt 0.30134135 0.6915031
vt 0.39573562 0.9946122
vt 0.8485486 0.40407026
vt 0.9064905 0.36127925
vt 0.8485486 0.36127925
vt 0.9064905 0.40407026
vt 0.9644323 0.36127925
vt 0.9644323 0.40407026
vt 0.7906067 0.40407026
vt 0.7906067 0.36127925
vt 0.732665 0.40407026
vt 0.732665 0.36127925
vt 0.73266476 0.40407026
vt 0.7906067 0.36127925
vt 0.73266476 0.36127925
vt 0.7906067 0.40407026
vt 0.84854835 0.36127925
vt 0.84854835 0.40407026
vt 0.9064905 0.36127925
vt 0.9064905 0.40407026
vt 0.9644323 0.36127925
vt 0.9644323 0.40407026
vt 0.1137495 0.013323009
vt 0.011385515 0.11568707
vt 0.04136727 0.043304622
vt 0.1137495 0.21805096
vt 0.04136727 0.18806928
vt 0.21611348 0.11568707
vt 0.18613172 0.18806916
vt 0.18613172 0.043304622
vt 0.18613172 0.043304622
vt 0.18613172 0.18806916
vt 0.21611348 0.11568707
vt 0.04136727 0.18806928
vt 0.1137495 0.21805096
vt 0.04136727 0.043304622
vt 0.011385515 0.11568707
vt 0.1137495 0.013323009
vt 0.5782878 0.19094634
vt 0.41137332 0.13013387
vt 0.5782878 0.13013387
vt 0.41137332 0.19094634
vt 0.41137332 0.06703305
vt 0.5782878 0.006220579
vt 0.5782878 0.06703305
vt 0.41137332 0.006220579
vt 0.5782878 0.25404716
vt 0.41137332 0.19094634
vt 0.5782878 0.19094634
vt 0.41137332 0.25404716
vt 0.5782878 0.06703305
vt 0.41137332 0.13013387
vt 0.41137332 0.06703305
vt 0.5782878 0.13013387
vt 0.5782878 0.19094634
vt 0.41137332 0.13013387
vt 0.5782878 0.13013387
vt 0.41137332 0.19094634
vt 0.41137332 0.06703305
vt 0.5782878 0.006220579
vt 0.5782878 0.06703305
vt 0.41137332 0.006220579
vt 0.5782878 0.25404716
vt 0.41137332 0.19094634
vt 0.5782878 0.19094634
vt 0.41137332 0.25404716
vt 0.5782878 0.06703305
vt 0.41137332 0.13013387
vt 0.41137332 0.06703305
vt 0.5782878 0.13013387
vt 0.98016065 0.48106265
vt 0.8427377 0.42639166
vt 0.98016065 0.42639166
vt 0.8427377 0.48106265
vt 0.8427377 0.48106265
vt 0.98016065 0.42639166
vt 0.98016065 0.48106265
vt 0.8427377 0.42639166
vt 0.98016065 0.48106265
vt 0.8427377 0.42639166
vt 0.98016065 0.42639166
vt 0.8427377 0.48106265
vt 0.8427377 0.48106265
vt 0.98016065 0.42639166
vt 0.98016065 0.48106265
vt 0.8427377 0.42639166
vt 0.52064896 0.303591
vt 0.60014594 0.3783496
vt 0.52064896 0.3783496
vt 0.60014594 0.303591
vt 0.5782878 0.19094634
vt 0.41137332 0.13013387
vt 0.41137332 0.19094634
vt 0.5782878 0.13013387
vt 0.41137332 0.06703305
vt 0.5782878 0.006220579
vt 0.41137332 0.006220579
vt 0.5782878 0.06703305
vt 0.5782878 0.25404716
vt 0.41137332 0.19094634
vt 0.41137332 0.25404716
vt 0.5782878 0.19094634
vt 0.5782878 0.06703305
vt 0.41137332 0.13013387
vt 0.5782878 0.13013387
vt 0.41137332 0.06703305
vt 0.5782878 0.19094634
vt 0.41137332 0.13013387
vt 0.41137332 0.19094634
vt 0.5782878 0.13013387
vt 0.41137332 0.06703305
vt 0.5782878 0.006220579
vt 0.41137332 0.006220579
vt 0.5782878 0.06703305
vt 0.5782878 0.25404716
vt 0.41137332 0.19094634
vt 0.41137332 0.25404716
vt 0.5782878 0.19094634
vt 0.5782878 0.06703305
vt 0.41137332 0.13013387
vt 0.5782878 0.13013387
vt 0.41137332 0.06703305

g Object06
s 1
usemtl Object06
f 3/3/3 2/2/2 1/1/1 
f 4/4/4 1/1/1 2/2/2 
f 7/7/7 6/6/6 5/5/5 
f 8/8/8 5/5/5 6/6/6 
f 11/11/11 10/10/10 9/9/9 
f 12/12/12 9/9/9 10/10/10 
f 15/15/15 14/14/14 13/13/13 
f 16/16/16 13/13/13 14/14/14 
f 19/19/19 18/18/18 17/17/17 
f 20/20/20 17/17/17 18/18/18 
f 23/23/23 22/22/22 21/21/21 
f 24/24/24 21/21/21 22/22/22 
f 22/22/22 25/25/25 24/24/24 
f 26/26/26 24/24/24 25/25/25 
f 21/21/21 27/27/27 23/23/23 
f 28/28/28 23/23/23 27/27/27 
f 27/27/27 29/29/29 28/28/28 
f 30/30/30 28/28/28 29/29/29 
f 33/33/33 32/32/32 31/31/31 
f 34/34/34 31/31/31 32/32/32 
f 32/32/32 35/35/35 34/34/34 
f 36/36/36 34/34/34 35/35/35 
f 35/35/35 37/37/37 36/36/36 
f 38/38/38 36/36/36 37/37/37 
f 37/37/37 39/39/39 38/38/38 
f 40/40/40 38/38/38 39/39/39 
f 43/43/43 42/42/42 41/41/41 
f 42/42/42 44/44/44 41/41/41 
f 45/45/45 44/44/44 42/42/42 
f 44/44/44 46/46/46 41/41/41 
f 47/47/47 46/46/46 44/44/44 
f 41/41/41 46/46/46 48/48/48 
f 51/51/51 50/50/50 49/49/49 
f 50/50/50 52/52/52 49/49/49 
f 53/53/53 52/52/52 50/50/50 
f 52/52/52 54/54/54 49/49/49 
f 55/55/55 54/54/54 52/52/52 
f 49/49/49 54/54/54 56/56/56 
f 59/59/59 58/58/58 57/57/57 
f 60/60/60 57/57/57 58/58/58 
f 63/63/63 62/62/62 61/61/61 
f 64/64/64 61/61/61 62/62/62 
f 67/67/67 66/66/66 65/65/65 
f 68/68/68 65/65/65 66/66/66 
f 71/71/71 70/70/70 69/69/69 
f 72/72/72 69/69/69 70/70/70 
f 75/75/75 74/74/74 73/73/73 
f 76/76/76 73/73/73 74/74/74 
f 79/79/79 78/78/78 77/77/77 
f 80/80/80 77/77/77 78/78/78 
f 83/83/83 82/82/82 81/81/81 
f 84/84/84 81/81/81 82/82/82 
f 87/87/87 86/86/86 85/85/85 
f 88/88/88 85/85/85 86/86/86 
f 91/91/91 90/90/90 89/89/89 
f 92/92/92 89/89/89 90/90/90 
f 95/95/95 94/94/94 93/93/93 
f 96/96/96 93/93/93 94/94/94 
f 99/99/99 98/98/98 97/97/97 
f 100/100/100 97/97/97 98/98/98 
f 103/103/103 102/102/102 101/101/101 
f 104/104/104 101/101/101 102/102/102 
f 107/107/107 106/106/106 105/105/105 
f 108/108/108 105/105/105 106/106/106 
f 111/111/111 110/110/110 109/109/109 
f 112/112/112 109/109/109 110/110/110 
f 115/115/115 114/114/114 113/113/113 
f 116/116/116 113/113/113 114/114/114 
f 119/119/119 118/118/118 117/117/117 
f 120/120/120 117/117/117 118/118/118 
f 123/123/123 122/122/122 121/121/121 
f 124/124/124 121/121/121 122/122/122 
f 127/127/127 126/126/126 125/125/125 
f 128/128/128 125/125/125 126/126/126 
f 131/131/131 130/130/130 129/129/129 
f 132/132/132 129/129/129 130/130/130 
f 135/135/135 134/134/134 133/133/133 
f 136/136/136 133/133/133 134/134/134 
f 139/139/139 138/138/138 137/137/137 
f 140/140/140 137/137/137 138/138/138 

