# Created by DisUnity v0.3.4
v 0.0025257873 -0.0016290543 8.424388E-4
v 5.148158E-4 0.0013297248 0.005199528
v 0.003825026 0.0016102927 0.0051477803
v 5.148158E-4 0.0013297248 0.005199528
v -0.001850812 -0.0020514985 -0.003933219
v -0.0038403606 -5.035717E-4 -0.0010745673
v -0.0011430917 -0.0019062213 -0.0053121536
v -0.0019171191 -0.0011537677 -0.004139195
v 5.148158E-4 0.0013297248 0.005199528
v -0.0038403606 -5.035717E-4 -0.0010745673
v 0.00217901 0.0012211392 1.6187773E-4
v 0.00217901 0.0012211392 1.6187773E-4
v 0.003825026 0.0016102927 0.0051477803
v 5.148158E-4 0.0013297248 0.005199528
v -0.001400966 -0.0010019216 -0.005349232
v 0.00217901 0.0012211392 1.6187773E-4
v -0.0019171191 -0.0011537677 -0.004139195
v -0.0038403606 -5.035717E-4 -0.0010745673
v -0.001850812 -0.0020514985 -0.003933219
v -0.0019171191 -0.0011537677 -0.004139195
v 0.0025257873 -0.0016290543 8.424388E-4
v 0.003825026 0.0016102927 0.0051477803
v 0.00217901 0.0012211392 1.6187773E-4
v -0.0011430917 -0.0019062213 -0.0053121536
v 0.00217901 0.0012211392 1.6187773E-4
v -0.001400966 -0.0010019216 -0.005349232
v -0.0011430917 -0.0019062213 -0.0053121536
v 0.0025257873 -0.0016290543 8.424388E-4
v 0.00217901 0.0012211392 1.6187773E-4
v -0.001850812 -0.0020514985 -0.003933219
v -0.001400966 -0.0010019216 -0.005349232
v -0.0019171191 -0.0011537677 -0.004139195
v -0.001850812 -0.0020514985 -0.003933219
v -0.0011430917 -0.0019062213 -0.0053121536
v -0.001400966 -0.0010019216 -0.005349232
vn -0.23515412 -0.873941 0.42535818
vn -0.5126763 0.23468068 0.8258862
vn -0.0094941305 0.2885959 0.9574039
vn -0.5126763 0.23468068 0.8258862
vn -0.023054654 -0.98890114 0.1467757
vn -0.8288809 0.24047405 0.50510263
vn 0.1342508 -0.99031377 -0.035431724
vn -0.340399 0.93126273 -0.12991668
vn -0.5126763 0.23468068 0.8258862
vn -0.8288809 0.24047405 0.50510263
vn -0.3194466 0.93996894 -0.12005128
vn -0.3194466 0.93996894 -0.12005128
vn -0.0094941305 0.2885959 0.9574039
vn -0.5126763 0.23468068 0.8258862
vn -0.43980658 0.8949302 -0.075300165
vn -0.3194466 0.93996894 -0.12005128
vn -0.340399 0.93126273 -0.12991668
vn -0.8501446 -0.17660625 -0.49604872
vn -0.8501446 -0.17660624 -0.49604872
vn -0.8501446 -0.17660622 -0.49604872
vn 0.94790554 0.039864846 -0.3160473
vn 0.94790554 0.039864846 -0.31604728
vn 0.94790554 0.039864846 -0.31604728
vn 0.78315055 0.19917384 -0.5890713
vn 0.78315055 0.19917385 -0.5890713
vn 0.78315055 0.19917385 -0.5890713
vn 0.8591748 -0.017571919 -0.51138043
vn 0.8591748 -0.017571919 -0.5113804
vn 0.8591748 -0.017571917 -0.5113804
vn -0.9007029 -0.15926427 -0.40418962
vn -0.9007029 -0.15926425 -0.40418956
vn -0.9007029 -0.15926427 -0.4041896
vn -0.84748834 -0.2606339 -0.4624213
vn -0.84748834 -0.2606339 -0.4624213
vn -0.84748834 -0.26063386 -0.4624213
vt 0.8676052 0.33770496
vt 0.7639326 0.19773126
vt 0.87163836 0.14347154
vt 0.7639326 0.19773126
vt 0.8237206 0.5414363
vt 0.7679839 0.48698747
vt 0.84262013 0.57259846
vt 0.8676052 0.33770496
vt 0.7639326 0.19773126
vt 0.82781565 0.050225735
vt 0.8237206 0.5414363
vt 0.8676052 0.33770496
vt 0.7639326 0.19773126
vt 0.87163836 0.14347154
vt 0.84262013 0.57259846
vt 0.8237206 0.5414363
vt 0.8676052 0.33770496
vt 0.7679839 0.48698747
vt 0.8237206 0.5414363
vt 0.8237206 0.5414363
vt 0.8676052 0.33770496
vt 0.87163836 0.14347154
vt 0.8676052 0.33770496
vt 0.84262013 0.57259846
vt 0.8676052 0.33770496
vt 0.84262013 0.57259846
vt 0.84262013 0.57259846
vt 0.8676052 0.33770496
vt 0.8676052 0.33770496
vt 0.8237206 0.5414363
vt 0.84262013 0.57259846
vt 0.8237206 0.5414363
vt 0.8237206 0.5414363
vt 0.84262013 0.57259846
vt 0.84262013 0.57259846

g Object14
s 1
usemtl Object14
f 3/3/3 2/2/2 1/1/1 
f 5/5/5 1/1/1 4/4/4 
f 2/2/2 6/6/6 5/5/5 
f 1/1/1 5/5/5 7/7/7 
f 10/10/10 9/9/9 8/8/8 
f 11/11/11 8/8/8 9/9/9 
f 14/14/14 13/13/13 12/12/12 
f 17/17/17 16/16/16 15/15/15 
f 20/20/20 19/19/19 18/18/18 
f 23/23/23 22/22/22 21/21/21 
f 26/26/26 25/25/25 24/24/24 
f 29/29/29 28/28/28 27/27/27 
f 32/32/32 31/31/31 30/30/30 
f 35/35/35 34/34/34 33/33/33 

