# Created by DisUnity v0.3.4
v 0.005961146 0.07363175 1.5732765E-4
v 0.0022234297 -0.07363176 0.0103536695
v 0.0013476133 0.073631756 0.010502198
v 0.006024265 -0.073631756 -8.9035035E-5
v 0.0031801937 0.07363174 -0.0011966049
v -0.0014964438 -0.07363176 0.0089997435
v 0.0023043966 -0.07363176 -0.001442976
v -0.0023722504 0.073631756 0.00914828
v -0.0023722504 0.073631756 0.00914828
v 0.005961146 0.07363175 1.5732765E-4
v 0.0013476133 0.073631756 0.010502198
v 0.0031801937 0.07363174 -0.0011966049
v 0.0013476133 0.073631756 0.010502198
v -0.0014964438 -0.07363176 0.0089997435
v -0.0023722504 0.073631756 0.00914828
v 0.0022234297 -0.07363176 0.0103536695
v 0.0023043966 -0.07363176 -0.001442976
v 0.0022234297 -0.07363176 0.0103536695
v 0.006024265 -0.073631756 -8.9035035E-5
v -0.0014964438 -0.07363176 0.0089997435
v -0.009499235 0.009471116 0.018600421
v -0.004679303 0.0043418454 0.02035474
v -0.00949923 0.0043418454 0.018600421
v -0.004679303 0.009471116 0.020354735
v -0.004679303 0.009471116 0.020354735
v 0.0046792985 0.009471106 -0.02035474
v 0.0094992155 0.009471106 -0.018600415
v -0.009499235 0.009471116 0.018600421
v 0.0094992155 0.009471106 -0.018600415
v -0.004679303 0.0043418454 0.02035474
v -0.004679303 0.009471116 0.020354735
v 0.009499226 0.0043418454 -0.018600408
v -0.00949923 0.0043418454 0.018600421
v 0.009499226 0.0043418454 -0.018600408
v 0.004679284 0.0043418454 -0.020354742
v -0.004679303 0.0043418454 0.02035474
v -0.009499235 0.009471116 0.018600421
v 0.004679284 0.0043418454 -0.020354742
v 0.0046792985 0.009471106 -0.02035474
v -0.00949923 0.0043418454 0.018600421
v -0.009499226 -0.036950935 0.01860042
v -0.0046792887 -0.0420802 0.020354733
v -0.009499226 -0.0420802 0.01860042
v -0.0046792887 -0.036950935 0.020354731
v -0.0046792887 -0.036950935 0.020354731
v 0.0046792985 -0.036950935 -0.020354731
v 0.009499235 -0.03695093 -0.018600414
v -0.009499226 -0.036950935 0.01860042
v 0.009499235 -0.03695093 -0.018600414
v -0.0046792887 -0.0420802 0.020354733
v -0.0046792887 -0.036950935 0.020354731
v 0.009499235 -0.0420802 -0.018600412
v -0.009499226 -0.0420802 0.01860042
v 0.009499235 -0.0420802 -0.018600412
v 0.0046792985 -0.0420802 -0.020354733
v -0.0046792887 -0.0420802 0.020354733
v -0.009499226 -0.036950935 0.01860042
v 0.0046792985 -0.0420802 -0.020354733
v 0.0046792985 -0.036950935 -0.020354731
v -0.009499226 -0.0420802 0.01860042
vn 0.9146502 0.004772678 0.40421796
vn 0.9385127 8.378431E-5 0.34524465
vn 0.9132812 0.0050207395 0.40729874
vn 0.93969256 -1.6941498E-4 0.34202027
vn -0.8843235 -0.004241106 -0.46685538
vn -0.93717945 0.0056112795 -0.3488025
vn -0.9396748 0.006160569 -0.34201378
vn -0.881096 -0.0047630575 -0.47291347
vn -1.212806E-7 1.0 -1.173115E-6
vn -1.537852E-6 1.0 -2.486085E-6
vn 2.886782E-7 1.0 -7.931387E-7
vn -2.0071586E-6 1.0 -2.9210692E-6
vn -0.34201795 -0.0029818667 0.93968874
vn -0.3420194 -0.0029818339 0.93968815
vn -0.34201795 -0.0029818676 0.93968874
vn -0.34201938 -0.0029818334 0.9396882
vn 5.000541E-7 -1.0 0.0
vn 1.3928113E-7 -1.0 0.0
vn 6.3933555E-7 -1.0 0.0
vn -0.0 -1.0 0.0
vn -0.34202087 3.0510913E-7 0.9396923
vn -0.3420209 3.051081E-7 0.9396923
vn -0.3420214 -2.633581E-7 0.93969214
vn -0.3420203 8.735752E-7 0.93969256
vn -0.0 1.0 -2.1617556E-7
vn -0.0 1.0 -2.1617544E-7
vn -0.0 1.0 -2.161754E-7
vn -0.0 1.0 -2.1617558E-7
vn 0.93969256 2.0747027E-6 0.3420204
vn 0.93969256 4.673403E-7 0.34202024
vn 0.93969256 3.1795545E-7 0.34202024
vn 0.93969256 2.224088E-6 0.3420204
vn -0.0 -1.0 0.0
vn -0.0 -1.0 0.0
vn -0.0 -1.0 0.0
vn -0.0 -1.0 0.0
vn -0.9396927 -6.0557994E-7 -0.34202003
vn -0.93969256 2.4918409E-6 -0.3420204
vn -0.9396925 2.7797082E-6 -0.34202045
vn -0.9396927 -8.934474E-7 -0.34201995
vn -0.34201995 0.0 0.9396927
vn -0.34201992 0.0 0.9396927
vn -0.34201998 0.0 0.9396927
vn -0.34201992 0.0 0.9396927
vn -0.0 1.0 0.0
vn -4.725723E-7 1.0 0.0
vn -5.083452E-7 1.0 0.0
vn -0.0 1.0 0.0
vn 0.93969256 1.4807601E-7 0.34202042
vn 0.93969256 0.0 0.3420204
vn 0.93969256 0.0 0.3420204
vn 0.93969256 1.589778E-7 0.3420204
vn -0.0 -1.0 0.0
vn -0.0 -1.0 0.0
vn -0.0 -1.0 0.0
vn -0.0 -1.0 0.0
vn -0.93969256 0.0 -0.34202027
vn -0.93969256 1.4574E-7 -0.34202036
vn -0.93969256 1.5897785E-7 -0.3420204
vn -0.93969256 0.0 -0.3420203
vt 0.7627869 0.7738045
vt 0.06560581 0.82301116
vt 0.76278704 0.82301116
vt 0.065605834 0.7738045
vt 0.06560578 0.7738045
vt 0.7627869 0.8230113
vt 0.7627869 0.7738045
vt 0.065605685 0.8230113
vt 0.030505985 0.7745012
vt 0.050344966 0.82852066
vt 0.050344966 0.7745012
vt 0.030505985 0.82852066
vt 0.7627869 0.7423686
vt 0.065605685 0.76202923
vt 0.7627869 0.76202923
vt 0.065605685 0.7423686
vt 0.050344966 0.82852066
vt 0.030505985 0.7745012
vt 0.030505985 0.82852066
vt 0.050344966 0.7745012
vt 0.027298337 0.7664707
vt 0.053872865 0.7398961
vt 0.027298337 0.7398961
vt 0.053872865 0.7664707
vt 0.97681415 0.7631532
vt 0.7845378 0.7391212
vt 0.7845378 0.7631532
vt 0.97681415 0.7391212
vt 0.7845378 0.7631532
vt 0.97681415 0.787185
vt 0.97681415 0.7631532
vt 0.7845378 0.787185
vt 0.97681415 0.81121707
vt 0.7845378 0.787185
vt 0.7845378 0.81121707
vt 0.97681415 0.787185
vt 0.97681415 0.83524907
vt 0.7845378 0.81121707
vt 0.7845378 0.83524907
vt 0.97681415 0.81121707
vt 0.027298337 0.7664707
vt 0.053872865 0.7398961
vt 0.027298337 0.7398961
vt 0.053872865 0.7664707
vt 0.97681415 0.7631532
vt 0.7845378 0.7391212
vt 0.7845378 0.7631532
vt 0.97681415 0.7391212
vt 0.7845378 0.7631532
vt 0.97681415 0.787185
vt 0.97681415 0.7631532
vt 0.7845378 0.787185
vt 0.97681415 0.81121707
vt 0.7845378 0.787185
vt 0.7845378 0.81121707
vt 0.97681415 0.787185
vt 0.97681415 0.83524907
vt 0.7845378 0.81121707
vt 0.7845378 0.83524907
vt 0.97681415 0.81121707

g Object08
s 1
usemtl Object08
f 3/3/3 2/2/2 1/1/1 
f 4/4/4 1/1/1 2/2/2 
f 7/7/7 6/6/6 5/5/5 
f 8/8/8 5/5/5 6/6/6 
f 11/11/11 10/10/10 9/9/9 
f 12/12/12 9/9/9 10/10/10 
f 15/15/15 14/14/14 13/13/13 
f 16/16/16 13/13/13 14/14/14 
f 19/19/19 18/18/18 17/17/17 
f 20/20/20 17/17/17 18/18/18 
f 23/23/23 22/22/22 21/21/21 
f 24/24/24 21/21/21 22/22/22 
f 27/27/27 26/26/26 25/25/25 
f 28/28/28 25/25/25 26/26/26 
f 31/31/31 30/30/30 29/29/29 
f 32/32/32 29/29/29 30/30/30 
f 35/35/35 34/34/34 33/33/33 
f 36/36/36 33/33/33 34/34/34 
f 39/39/39 38/38/38 37/37/37 
f 40/40/40 37/37/37 38/38/38 
f 43/43/43 42/42/42 41/41/41 
f 44/44/44 41/41/41 42/42/42 
f 47/47/47 46/46/46 45/45/45 
f 48/48/48 45/45/45 46/46/46 
f 51/51/51 50/50/50 49/49/49 
f 52/52/52 49/49/49 50/50/50 
f 55/55/55 54/54/54 53/53/53 
f 56/56/56 53/53/53 54/54/54 
f 59/59/59 58/58/58 57/57/57 
f 60/60/60 57/57/57 58/58/58 

