# Created by DisUnity v0.3.4
v -0.02235848 0.009487253 -0.0031948825
v -0.01813659 0.005226676 0.009659597
v -0.025614602 0.0056094145 -4.000574E-4
v -0.015402449 0.00977926 0.0062536765
v -0.014833921 -9.378558E-4 0.0075624976
v -0.021806903 -8.7566375E-5 -0.0022802271
v -0.012219802 0.0041996166 0.014172899
v -0.033485647 0.0050257994 -0.012232204
v -0.02954546 -5.5604335E-4 -0.014228542
v -0.011224722 0.009274825 0.008358024
v -0.018198352 0.005873453 -0.0051356535
v -0.015402449 0.00977926 0.0062536765
v -0.031357195 0.009561381 -0.014562447
v -0.027177105 0.005785135 -0.016655399
v -0.02954546 -5.5604335E-4 -0.014228542
v -0.021806903 -8.7566375E-5 -0.0022802271
v -0.011223403 0.0029135528 0.0039998055
v -0.015402449 0.00977926 0.0062536765
v -0.014833921 -9.378558E-4 0.0075624976
v -0.011224722 0.009274825 0.008358024
v -0.02235848 0.009487253 -0.0031948825
v -0.031357195 0.009561381 -0.014562447
v -0.011223403 0.0029135528 0.0039998055
v -0.012671954 6.2330486E-4 -0.003667028
v -0.008473103 0.009361938 -0.0032598411
v -0.010012684 0.012498405 -0.01838601
v -0.016178114 0.0015340333 -0.018574983
v -0.008457924 -0.005482489 -0.004321275
v -0.011358471 -0.0070739863 -0.019900361
v -0.0 -0.010020358 -0.020641642
v -0.0050165374 -0.0068301735 -0.004627333
v -0.009426625 -0.0034551872 0.0077575427
v -0.011223403 0.0029135528 0.0039998055
v -0.014833921 -9.378558E-4 0.0075624976
v -0.011224722 0.009274825 0.008358024
v -0.012219802 0.0041996166 0.014172899
v -0.0044413726 0.013649487 -0.018480642
v -0.008757671 0.011621055 -0.037286784
v -7.714452E-4 0.0020355622 -0.024874453
v -0.007982378 0.011505761 -0.023117598
v -0.008757671 0.011621055 -0.037286784
v -0.0020199756 0.005523912 -0.037868634
v -0.00962473 0.00902168 -0.04405749
v -0.017680388 0.0036880125 -0.036989696
v -0.007982378 0.011505761 -0.023117598
v -0.00962473 0.00902168 -0.04405749
v -0.014989786 0.0038614331 -0.04367998
v -0.014481137 0.0032222723 -0.05438854
v -0.010493832 0.0073961955 -0.054747388
v -0.0069099483 0.009937846 -0.014997048
v -0.014014819 5.9472496E-4 -0.015497261
v -0.017680388 0.0036880125 -0.036989696
v -0.003195562 0.011111425 -0.021298265
v -0.007982378 0.011505761 -0.023117598
v -0.004837451 0.010117881 -0.015069568
v -0.009711893 -6.959699E-4 -0.043795317
v -0.010721585 -9.967373E-4 -0.05246086
v -0.014989786 0.0038614331 -0.04367998
v -0.008758966 -0.0029162471 -0.037573207
v -0.014481137 0.0032222723 -0.05438854
v -0.008758966 -0.0029162471 -0.037573207
v -0.017680388 0.0036880125 -0.036989696
v -0.007964997 -0.0055052307 -0.023974072
v -7.714452E-4 0.0020355622 -0.024874453
v -0.0064596687 -0.0073425113 -0.018059764
v -0.0020199756 0.005523912 -0.037868634
v -0.009711893 -6.959699E-4 -0.043795317
v -0.0057127443 0.0049947845 -0.044083588
v -0.007226478 0.0038077224 -0.054651227
v -0.010721585 -9.967373E-4 -0.05246086
v -0.0064596687 -0.0073425113 -0.018059764
v -8.2830957E-4 -0.0076358565 -0.018579457
v -0.00962473 0.00902168 -0.04405749
v -0.0057127443 0.0049947845 -0.044083588
v -0.007226478 0.0038077224 -0.054651227
v -0.00962473 0.00902168 -0.04405749
v -0.010493832 0.0073961955 -0.054747388
v -0.0064596687 -0.0073425113 -0.018059764
v -0.007964997 -0.0055052307 -0.023974072
v -0.017680388 0.0036880125 -0.036989696
v -0.016178114 0.0015340333 -0.018574983
v -0.0044413726 0.013649487 -0.018480642
v -0.010012684 0.012498405 -0.01838601
v -0.0 -0.010020358 -0.020641642
v -0.011358471 -0.0070739863 -0.019900361
v -0.008473103 0.009361938 -0.0032598411
v -0.012219802 0.0041996166 0.014172899
v -0.011224722 0.009274825 0.008358024
v -0.0050165374 -0.0068301735 -0.004627333
v -0.009426625 -0.0034551872 0.0077575427
v -0.0044413726 0.013649487 -0.018480642
v -0.0 -0.010020358 -0.020641642
v -7.714452E-4 0.0020355622 -0.024874453
v -0.004837451 0.010117881 -0.015069568
v -0.003195562 0.011111425 -0.021298265
v -8.2830957E-4 -0.0076358565 -0.018579457
v -0.005877743 0.0037364953 -0.06110951
v -0.007226478 0.0038077224 -0.054651227
v -0.010452202 0.009080117 -0.061109465
v -0.0067242724 -0.014189263 -0.06103726
v -0.0113807665 -0.012047759 -0.057071473
v -0.010493832 0.0073961955 -0.054747388
v -0.014481137 0.0032222723 -0.05438854
v -0.017510151 -0.0014617919 -0.061193924
v -0.01636068 -0.013971027 -0.061037324
v -0.0113807665 -0.012047759 -0.057071473
v -0.0113807665 -0.012047759 -0.057071473
v -0.010721585 -9.967373E-4 -0.05246086
v -0.010721585 -9.967373E-4 -0.05246086
v -0.0113807665 -0.012047759 -0.057071473
v -0.017510151 -0.0014617919 -0.061193924
v -0.005877743 0.0037364953 -0.06110951
v -0.010452202 0.009080117 -0.061109465
v -0.0067242724 -0.014189263 -0.06103726
v -0.01636068 -0.013971027 -0.061037324
v -0.0067242724 -0.014189263 -0.06103726
v -0.01636068 -0.013971027 -0.061037324
v -0.0113807665 -0.012047759 -0.057071473
v -0.03874986 0.0047853193 -0.018222088
v -0.033701718 -0.002131429 -0.025370257
v -0.038234416 0.00383211 -0.026131699
v -0.035978843 -0.0020641396 -0.018376807
v -0.033485647 0.0050257994 -0.012232204
v -0.02954546 -5.5604335E-4 -0.014228542
v -0.031357195 0.009561381 -0.014562447
v -0.035533223 0.010963882 -0.020010473
v -0.033117086 0.0097924145 -0.026717523
v -0.02954546 -5.5604335E-4 -0.014228542
v -0.033701718 -0.002131429 -0.025370257
v -0.027177105 0.005785135 -0.016655399
v -0.031357195 0.009561381 -0.014562447
v -0.035533223 0.010963882 -0.020010473
v -0.027177105 0.005785135 -0.016655399
v -0.033701718 -0.002131429 -0.025370257
v -0.033117086 0.0097924145 -0.026717523
v -0.027177105 0.005785135 -0.016655399
v -0.033701718 -0.002131429 -0.025370257
v -0.034095906 0.0031997631 -0.030418446
v -0.038234416 0.00383211 -0.026131699
v -0.033117086 0.0097924145 -0.026717523
v -0.029138952 0.003126914 -0.028823277
v -0.033117086 0.0097924145 -0.026717523
v -0.029138952 0.003126914 -0.028823277
v -0.033701718 -0.002131429 -0.025370257
vn -0.046863727 0.99887687 0.006983889
vn -0.6922148 0.13361426 0.70921504
vn -0.8164056 0.11815225 0.56526273
vn 0.029464997 0.9948091 0.09739977
vn -0.37837604 -0.9137868 0.1477338
vn -0.069644816 -0.9972984 -0.023355406
vn -0.55340755 -0.032655887 0.83227015
vn -0.74468124 0.04103948 0.6661573
vn 0.2455512 -0.9571875 0.15328626
vn -0.37810123 0.9251937 -0.032496218
vn 0.7794636 0.15518245 -0.6069225
vn 0.029464997 0.9948091 0.09739977
vn -0.4046501 0.8409154 0.3593321
vn 0.847588 0.04601579 -0.5286559
vn 0.2455512 -0.9571875 0.15328626
vn -0.069644816 -0.9972984 -0.023355406
vn -0.69441026 -0.106499106 -0.71165466
vn 0.029464997 0.9948091 0.09739977
vn -0.37837604 -0.9137868 0.1477338
vn -0.37810123 0.9251937 -0.032496218
vn -0.046863727 0.99887687 0.006983889
vn -0.4046501 0.8409154 0.3593321
vn -0.69441026 -0.106499106 -0.71165466
vn -0.9852302 -0.088643074 0.14650539
vn -0.8895398 0.45067814 0.07488764
vn -0.5743695 0.78381604 0.23607643
vn -0.96937233 -0.03585573 0.24296412
vn -0.58706933 -0.8007698 0.118816756
vn -0.5787369 -0.79335946 0.18879692
vn -0.2581528 -0.95700145 0.13230768
vn -0.35595757 -0.92992836 0.09234369
vn -0.68943834 -0.72341186 0.03674393
vn -0.69441026 -0.106499106 -0.71165466
vn -0.37837604 -0.9137868 0.1477338
vn -0.37810123 0.9251937 -0.032496218
vn -0.55340755 -0.032655887 0.83227015
vn -0.1939124 0.9564755 0.21806563
vn 0.028919196 0.9901512 -0.1369829
vn 0.89646053 -0.1959198 -0.39745936
vn -0.1848839 0.9823694 -0.02771942
vn 0.028919196 0.9901512 -0.1369829
vn 0.9563266 0.14753404 -0.25233528
vn -0.01797085 0.9539816 -0.29932627
vn -0.99055547 -0.019796716 -0.13567589
vn -0.1848839 0.9823694 -0.02771942
vn -0.01797085 0.9539816 -0.29932627
vn -0.975132 -0.028132858 -0.21983227
vn -0.9482383 0.227764 0.22128649
vn -0.0064687068 0.99776185 0.0665534
vn -0.45043096 0.86891043 0.20519906
vn -0.986915 -0.06863093 0.14590602
vn -0.99055547 -0.019796716 -0.13567589
vn 0.22166659 0.87923914 -0.4216663
vn -0.1848839 0.9823694 -0.02771942
vn -0.08100763 0.98737174 0.13614269
vn 0.07985557 -0.97426426 -0.2107895
vn 0.059058297 -0.77489406 0.6293261
vn -0.975132 -0.028132858 -0.21983227
vn 0.102986075 -0.95240617 -0.2869084
vn -0.9482383 0.227764 0.22128649
vn 0.102986075 -0.95240617 -0.2869084
vn -0.99055547 -0.019796716 -0.13567589
vn -0.051535673 -0.97712505 -0.2063267
vn 0.89646053 -0.1959198 -0.39745936
vn -0.20868786 -0.83985615 -0.5010899
vn 0.9563266 0.14753404 -0.25233528
vn 0.07985557 -0.97426426 -0.2107895
vn 0.9282733 0.07437916 -0.36438492
vn 0.97168034 0.18657446 0.14500792
vn 0.059058297 -0.77489406 0.6293261
vn -0.20868786 -0.83985615 -0.5010899
vn -0.1051781 -0.54205036 -0.83373797
vn -0.01797085 0.9539816 -0.29932627
vn 0.9282733 0.07437916 -0.36438492
vn 0.97168034 0.18657446 0.14500792
vn -0.01797085 0.9539816 -0.29932627
vn -0.0064687068 0.99776185 0.0665534
vn -0.20868786 -0.83985615 -0.5010899
vn -0.051535673 -0.97712505 -0.2063267
vn -0.99055547 -0.019796716 -0.13567589
vn -0.05716592 0.08380168 -0.99484134
vn 0.73289204 0.18879198 -0.65362597
vn -0.023230163 0.03028518 -0.9992713
vn 0.79828817 0.21457697 -0.56275463
vn -0.029337099 0.13604587 -0.9902681
vn 0.94617575 0.16943794 0.2757575
vn 0.95604026 0.13040887 0.26264146
vn 0.9703101 0.07369223 0.23036441
vn 0.9476974 0.16120575 0.27546746
vn 0.94573426 0.08145967 0.3145648
vn 0.73289204 0.18879198 -0.65362597
vn 0.79828817 0.21457697 -0.56275463
vn 0.951497 0.15957259 0.26303992
vn 0.95116645 0.15390947 0.267571
vn 0.95062125 0.14599165 0.27387163
vn 0.95169896 0.16353957 0.25985357
vn 0.93334776 0.3035832 0.19157028
vn 0.97168034 0.18657446 0.14500792
vn -0.023833504 0.98308444 0.18159571
vn 0.49650872 -0.53743935 0.68164366
vn -4.6491734E-4 -0.53679216 0.8437144
vn -0.0064687068 0.99776185 0.0665534
vn -0.9482383 0.227764 0.22128649
vn -0.9349836 0.11934373 0.33401003
vn -0.49852255 -0.50184417 0.7068435
vn -4.6491734E-4 -0.53679216 0.8437144
vn -4.6491734E-4 -0.53679216 0.8437144
vn 0.059058297 -0.77489406 0.6293261
vn 0.059058297 -0.77489406 0.6293261
vn -4.6491734E-4 -0.53679216 0.8437144
vn 0.0059712925 -0.0044310763 -0.99997234
vn 0.007098672 3.5351873E-4 -0.9999747
vn 0.0052461354 0.0044990354 -0.9999761
vn 0.004203907 -0.008745638 -0.9999529
vn -2.7763282E-4 -0.012543123 -0.99992126
vn 0.49650872 -0.53743935 0.68164366
vn -0.49852255 -0.50184417 0.7068435
vn -4.6491734E-4 -0.53679216 0.8437144
vn -0.95340365 0.056121152 0.29643193
vn -0.34173453 -0.8467299 -0.40775725
vn -0.9192309 -0.056378614 -0.3896614
vn -0.5551891 -0.8023989 0.21890873
vn -0.74468124 0.04103948 0.6661573
vn 0.2455512 -0.9571875 0.15328626
vn -0.4046501 0.8409154 0.3593321
vn -0.8118173 0.5637157 0.15224114
vn -0.5140072 0.58182657 -0.6302971
vn 0.2455512 -0.9571875 0.15328626
vn -0.34173453 -0.8467299 -0.40775725
vn 0.847588 0.04601579 -0.5286559
vn 0.5798113 0.7772468 -0.2443488
vn 0.86591625 0.40383992 -0.29513103
vn 0.5817862 0.55136186 -0.5979338
vn 0.9573766 0.24642749 0.15067682
vn 0.86026937 0.015400659 0.5096072
vn 0.5817862 0.55136186 -0.5979338
vn -0.34173453 -0.8467299 -0.40775725
vn -0.2329368 -0.10773036 -0.96650636
vn -0.9192309 -0.056378614 -0.3896614
vn -0.5140072 0.58182657 -0.6302971
vn 0.30193153 -0.1313121 -0.94424284
vn 0.86026937 0.015400659 0.5096072
vn 0.55197734 0.06685016 0.83117515
vn 0.9573766 0.24642749 0.15067682
vt 0.47042587 0.81694734
vt 0.3944998 0.6947048
vt 0.3944998 0.81694734
vt 0.47042587 0.6947048
vt 0.32664242 0.6947048
vt 0.32664242 0.81694734
vt 0.36670867 0.6208488
vt 0.3944998 0.98904413
vt 0.32664242 0.98904413
vt 0.4704259 0.64455
vt 0.52323437 0.81694734
vt 0.47042587 0.6947048
vt 0.47042587 0.98904413
vt 0.52323437 0.98904413
vt 0.60406077 0.98904413
vt 0.60406077 0.81694734
vt 0.54764163 0.6947048
vt 0.47042587 0.6947048
vt 0.60406077 0.6947048
vt 0.4704259 0.64455
vt 0.47042587 0.81694734
vt 0.47042587 0.98904413
vt 0.7824564 0.23456877
vt 0.7820713 0.28550225
vt 0.89808244 0.28550225
vt 0.88565755 0.47704226
vt 0.7820713 0.47704226
vt 0.70210916 0.28550225
vt 0.70210916 0.47704226
vt 0.610654 0.4771225
vt 0.66316545 0.28550225
vt 0.7115225 0.13706833
vt 0.7824564 0.23456877
vt 0.76864135 0.13915944
vt 0.8859426 0.14554673
vt 0.7321531 0.05923289
vt 0.9383904 0.47704226
vt 0.722156 0.7268306
vt 0.6478629 0.589278
vt 0.72348344 0.579534
vt 0.722156 0.7268306
vt 0.65436363 0.7268306
vt 0.722156 0.82798874
vt 0.7898421 0.7268306
vt 0.72348344 0.579534
vt 0.722156 0.82798874
vt 0.7898421 0.82798874
vt 0.7898421 0.9718214
vt 0.722156 0.9718214
vt 0.7199545 0.51454985
vt 0.7892453 0.5130708
vt 0.7898421 0.7268306
vt 0.6927391 0.55230606
vt 0.72348344 0.579534
vt 0.7075987 0.51475763
vt 0.8862658 0.82798874
vt 0.8862658 0.9718214
vt 0.7898421 0.82798874
vt 0.8862658 0.7268306
vt 0.7898421 0.9718214
vt 0.8862658 0.7268306
vt 0.7898421 0.7268306
vt 0.88274574 0.5776632
vt 0.9674424 0.5871362
vt 0.88670194 0.5138929
vt 0.9879567 0.7268306
vt 0.8862658 0.82798874
vt 0.9879567 0.82798874
vt 0.9879567 0.9718214
vt 0.8862658 0.9718214
vt 0.88670194 0.5138929
vt 0.9683269 0.5137899
vt 0.722156 0.82798874
vt 0.65436363 0.82798874
vt 0.65436363 0.9718214
vt 0.722156 0.82798874
vt 0.722156 0.9718214
vt 0.88670194 0.5138929
vt 0.88274574 0.5776632
vt 0.7898421 0.7268306
vt 0.8142832 0.47340685
vt 0.7993468 0.47716117
vt 0.79944694 0.47561765
vt 0.8366297 0.4771161
vt 0.8287903 0.47424388
vt 0.80784523 0.039741576
vt 0.82190317 0.037905395
vt 0.81686133 0.041053116
vt 0.80812514 0.027056396
vt 0.8176032 0.031255543
vt 0.79545236 0.041068733
vt 0.7958599 0.02260214
vt 0.80317 0.015516937
vt 0.79545236 0.021404207
vt 0.79579693 0.016598165
vt 0.80926895 0.021881878
vt 0.30246237 0.93186265
vt 0.25898606 0.9410233
vt 0.300068 0.9769603
vt 0.29864836 0.8429288
vt 0.27022856 0.8307612
vt 0.26454252 0.9746642
vt 0.25898606 0.9410233
vt 0.302429 0.93167126
vt 0.29864836 0.8429288
vt 0.27022856 0.8307612
vt 0.27022856 0.8307612
vt 0.23936032 0.9188323
vt 0.23936032 0.9188323
vt 0.27022856 0.8307612
vt 0.58544624 0.3179918
vt 0.54080117 0.30277395
vt 0.5621152 0.2781948
vt 0.5376224 0.3744905
vt 0.5955081 0.37731904
vt 0.5376224 0.3744905
vt 0.5955081 0.37731904
vt 0.56391627 0.40820193
vt 0.39241144 0.29552191
vt 0.50497174 0.37432963
vt 0.39241144 0.37432963
vt 0.45876536 0.29552191
vt 0.4051108 0.20623392
vt 0.44909474 0.20623392
vt 0.32535204 0.20623392
vt 0.32535204 0.29552191
vt 0.32535204 0.37432963
vt 0.44909474 0.20623392
vt 0.56283545 0.25990337
vt 0.56283545 0.20623392
vt 0.5644908 0.44460714
vt 0.5485984 0.5191262
vt 0.45838645 0.4522345
vt 0.3991253 0.58019173
vt 0.5644908 0.58128107
vt 0.36927688 0.47876954
vt 0.36977413 0.017436981
vt 0.36977413 0.09512746
vt 0.43188244 0.09512746
vt 0.36977413 0.17569482
vt 0.3085043 0.09512746
vt 0.5083008 0.3908773
vt 0.42344564 0.4519676
vt 0.33847755 0.3908773

g p2
s 1
usemtl p2
f 3/3/3 2/2/2 1/1/1 
f 4/4/4 1/1/1 2/2/2 
f 2/2/2 3/3/3 5/5/5 
f 6/6/6 5/5/5 3/3/3 
f 5/5/5 7/7/7 2/2/2 
f 3/3/3 1/1/1 8/8/8 
f 3/3/3 8/8/8 6/6/6 
f 9/9/9 6/6/6 8/8/8 
f 7/7/7 10/10/10 2/2/2 
f 4/4/4 2/2/2 10/10/10 
f 1/1/1 12/12/12 11/11/11 
f 1/1/1 11/11/11 13/13/13 
f 14/14/14 13/13/13 11/11/11 
f 14/14/14 11/11/11 15/15/15 
f 16/16/16 15/15/15 11/11/11 
f 16/16/16 11/11/11 17/17/17 
f 17/17/17 11/11/11 18/18/18 
f 19/19/19 16/16/16 17/17/17 
f 18/18/18 20/20/20 17/17/17 
f 22/22/22 8/8/8 21/21/21 
f 25/25/25 24/24/24 23/23/23 
f 25/25/25 26/26/26 24/24/24 
f 27/27/27 24/24/24 26/26/26 
f 24/24/24 27/27/27 28/28/28 
f 29/29/29 28/28/28 27/27/27 
f 29/29/29 30/30/30 28/28/28 
f 31/31/31 28/28/28 30/30/30 
f 31/31/31 32/32/32 28/28/28 
f 28/28/28 32/32/32 24/24/24 
f 33/33/33 24/24/24 32/32/32 
f 32/32/32 34/34/34 33/33/33 
f 35/35/35 25/25/25 33/33/33 
f 32/32/32 36/36/36 34/34/34 
f 26/26/26 25/25/25 37/37/37 
f 40/40/40 39/39/39 38/38/38 
f 42/42/42 41/41/41 39/39/39 
f 41/41/41 42/42/42 43/43/43 
f 41/41/41 43/43/43 44/44/44 
f 44/44/44 45/45/45 41/41/41 
f 47/47/47 44/44/44 46/46/46 
f 47/47/47 46/46/46 48/48/48 
f 49/49/49 48/48/48 46/46/46 
f 51/51/51 50/50/50 45/45/45 
f 52/52/52 51/51/51 45/45/45 
f 45/45/45 50/50/50 53/53/53 
f 53/53/53 39/39/39 54/54/54 
f 55/55/55 53/53/53 50/50/50 
f 57/57/57 56/56/56 48/48/48 
f 56/56/56 59/59/59 58/58/58 
f 58/58/58 60/60/60 56/56/56 
f 62/62/62 58/58/58 61/61/61 
f 61/61/61 63/63/63 62/62/62 
f 64/64/64 63/63/63 61/61/61 
f 65/65/65 63/63/63 64/64/64 
f 66/66/66 64/64/64 61/61/61 
f 61/61/61 67/67/67 66/66/66 
f 68/68/68 66/66/66 67/67/67 
f 68/68/68 67/67/67 69/69/69 
f 70/70/70 69/69/69 67/67/67 
f 64/64/64 72/72/72 71/71/71 
f 74/74/74 73/73/73 42/42/42 
f 74/74/74 75/75/75 73/73/73 
f 77/77/77 76/76/76 75/75/75 
f 79/79/79 78/78/78 51/51/51 
f 79/79/79 51/51/51 80/80/80 
f 83/83/83 82/82/82 81/81/81 
f 82/82/82 84/84/84 81/81/81 
f 81/81/81 84/84/84 85/85/85 
f 88/88/88 87/87/87 86/86/86 
f 87/87/87 89/89/89 86/86/86 
f 90/90/90 89/89/89 87/87/87 
f 86/86/86 89/89/89 91/91/91 
f 89/89/89 92/92/92 91/91/91 
f 95/95/95 94/94/94 93/93/93 
f 96/96/96 93/93/93 94/94/94 
f 99/99/99 98/98/98 97/97/97 
f 98/98/98 100/100/100 97/97/97 
f 100/100/100 98/98/98 101/101/101 
f 99/99/99 102/102/102 98/98/98 
f 103/103/103 102/102/102 99/99/99 
f 104/104/104 103/103/103 99/99/99 
f 105/105/105 103/103/103 104/104/104 
f 106/106/106 103/103/103 105/105/105 
f 98/98/98 108/108/108 107/107/107 
f 110/110/110 109/109/109 103/103/103 
f 113/113/113 112/112/112 111/111/111 
f 112/112/112 114/114/114 111/111/111 
f 115/115/115 111/111/111 114/114/114 
f 118/118/118 117/117/117 116/116/116 
f 121/121/121 120/120/120 119/119/119 
f 122/122/122 119/119/119 120/120/120 
f 119/119/119 122/122/122 123/123/123 
f 124/124/124 123/123/123 122/122/122 
f 123/123/123 125/125/125 119/119/119 
f 126/126/126 119/119/119 125/125/125 
f 119/119/119 126/126/126 121/121/121 
f 127/127/127 121/121/121 126/126/126 
f 122/122/122 129/129/129 128/128/128 
f 128/128/128 129/129/129 130/130/130 
f 133/133/133 132/132/132 131/131/131 
f 135/135/135 132/132/132 134/134/134 
f 136/136/136 134/134/134 132/132/132 
f 139/139/139 138/138/138 137/137/137 
f 140/140/140 138/138/138 139/139/139 
f 138/138/138 141/141/141 137/137/137 
f 140/140/140 141/141/141 138/138/138 
f 144/144/144 143/143/143 142/142/142 

