# Created by DisUnity v0.3.4
v 0.049396668 -0.07106577 0.0014827347
v -0.07731155 -0.09096586 0.0014827537
v 0.049396668 -0.09096586 0.0014827537
v -0.07731155 -0.07106577 0.0014827347
v 0.049396668 -0.09096586 0.0014827537
v -0.07731155 -0.09096586 0.014523201
v 0.049396668 -0.09096586 0.014523201
v -0.07731155 -0.09096586 0.0014827537
v 0.049396668 -0.09096586 0.014523201
v -0.07731155 -0.07106577 0.0145231625
v 0.049396668 -0.07106577 0.0145231625
v -0.07731155 -0.09096586 0.014523201
v 0.049396668 -0.07106577 0.0145231625
v -0.07731155 -0.07106577 0.0014827347
v 0.049396668 -0.07106577 0.0014827347
v -0.07731155 -0.07106577 0.0145231625
v 0.07845215 -0.26468036 0.030681457
v 0.03839966 0.26468036 -0.030681476
v 0.07845215 -0.2646804 0.011023636
v 0.03839966 0.26468036 -0.011802845
v 0.07845215 -0.2646804 0.011023636
v 0.019521179 0.26468036 -0.030681228
v 0.058793943 -0.2646804 0.011023636
v 0.03839966 0.26468036 -0.030681476
v 0.058793943 -0.2646804 0.011023636
v 0.019521179 0.26468036 -0.011802845
v 0.058793943 -0.26468036 0.030681457
v 0.019521179 0.26468036 -0.030681228
v 0.058793943 -0.26468036 0.030681457
v 0.03839966 0.26468036 -0.011802845
v 0.07845215 -0.26468036 0.030681457
v 0.019521179 0.26468036 -0.011802845
v 0.04335846 0.20452507 -0.019966735
v -0.07127258 0.1796191 -0.019966716
v 0.04335846 0.1796191 -0.019966716
v -0.07127258 0.20452507 -0.019966735
v 0.04335846 0.1796191 -0.019966716
v -0.07127258 0.1796191 -0.012815532
v 0.04335846 0.1796191 -0.012815532
v -0.07127258 0.1796191 -0.019966716
v 0.04335846 0.1796191 -0.012815532
v -0.07127258 0.20452507 -0.012815552
v 0.04335846 0.20452507 -0.012815552
v -0.07127258 0.1796191 -0.012815532
v 0.04335846 0.20452507 -0.012815552
v -0.07127258 0.20452507 -0.019966735
v 0.04335846 0.20452507 -0.019966735
v -0.07127258 0.20452507 -0.012815552
v 0.050538022 0.015296974 -0.009112072
v -0.07845215 0.09102001 -0.009112072
v 0.034528807 -0.0037821387 -0.009112072
v -0.062442932 0.11009906 -0.009112072
v 0.034528807 -0.0037821387 -0.009112072
v -0.07845199 0.09102001 -2.949333E-4
v 0.034528807 -0.0037821196 -2.949333E-4
v -0.07845215 0.09102001 -0.009112072
v 0.034528807 -0.0037821196 -2.949333E-4
v -0.062442932 0.11009906 -2.949333E-4
v 0.050538022 0.015296936 -2.949333E-4
v -0.07845199 0.09102001 -2.949333E-4
v 0.050538022 0.015296936 -2.949333E-4
v -0.062442932 0.11009906 -0.009112072
v 0.050538022 0.015296974 -0.009112072
v -0.062442932 0.11009906 -2.949333E-4
vn -0.0 -9.584621E-7 -1.0
vn -0.0 -9.584621E-7 -1.0
vn -0.0 -9.584621E-7 -1.0
vn -0.0 -9.584621E-7 -1.0
vn -0.0 -1.0 0.0
vn -0.0 -1.0 0.0
vn -0.0 -1.0 0.0
vn -0.0 -1.0 0.0
vn -0.0 1.9169242E-6 1.0
vn -0.0 1.9169242E-6 1.0
vn -0.0 1.9169242E-6 1.0
vn -0.0 1.9169242E-6 1.0
vn -0.0 1.0 0.0
vn -0.0 1.0 0.0
vn -0.0 1.0 0.0
vn -0.0 1.0 0.0
vn 0.9971498 0.075446345 0.0
vn 0.9971498 0.075446345 0.0
vn 0.9971498 0.07544634 0.0
vn 0.9971498 0.07544634 0.0
vn -6.4128158E-6 -0.07854078 -0.99691087
vn -6.412816E-6 -0.07854079 -0.99691087
vn -6.4128153E-6 -0.07854077 -0.99691087
vn -6.412816E-6 -0.078540795 -0.99691087
vn -0.9972593 -0.073985726 0.0
vn -0.9972593 -0.073985726 0.0
vn -0.9972593 -0.073985726 0.0
vn -0.9972593 -0.073985726 0.0
vn -0.0 0.07999864 0.996795
vn -0.0 0.079998635 0.996795
vn -0.0 0.07999864 0.996795
vn -0.0 0.079998635 0.996795
vn -0.0 -7.6581983E-7 -1.0
vn -0.0 -7.6581983E-7 -1.0
vn -0.0 -7.6581983E-7 -1.0
vn -0.0 -7.6581983E-7 -1.0
vn -0.0 -1.0 0.0
vn -0.0 -1.0 0.0
vn -0.0 -1.0 0.0
vn -0.0 -1.0 0.0
vn -0.0 7.6581983E-7 1.0
vn -0.0 7.6581983E-7 1.0
vn -0.0 7.6581983E-7 1.0
vn -0.0 7.6581983E-7 1.0
vn -0.0 1.0 0.0
vn -0.0 1.0 0.0
vn -0.0 1.0 0.0
vn -0.0 1.0 0.0
vn -0.0 0.0 -1.0
vn -0.0 0.0 -1.0
vn -0.0 0.0 -1.0
vn -0.0 0.0 -1.0
vn -0.6427873 -0.76604474 6.453632E-6
vn -0.6427873 -0.76604474 6.4536325E-6
vn -0.6427873 -0.76604474 6.453632E-6
vn -0.6427873 -0.76604474 6.453632E-6
vn -0.0 0.0 1.0
vn -0.0 0.0 1.0
vn -0.0 0.0 1.0
vn -0.0 0.0 1.0
vn 0.64278686 0.76604503 1.6134077E-6
vn 0.6427869 0.76604503 1.6134077E-6
vn 0.64278686 0.76604503 1.6134076E-6
vn 0.6427869 0.76604503 1.6134077E-6
vt 0.5640874 0.7718683
vt 0.8883416 0.8520918
vt 0.5640874 0.8520918
vt 0.8883416 0.7718683
vt 0.5640874 0.7718683
vt 0.8883416 0.8520918
vt 0.5640874 0.8520918
vt 0.8883416 0.7718683
vt 0.5640874 0.7718683
vt 0.8883416 0.8520918
vt 0.5640874 0.8520918
vt 0.8883416 0.7718683
vt 0.5640874 0.7718683
vt 0.8883416 0.8520918
vt 0.5640874 0.8520918
vt 0.8883416 0.7718683
vt 0.026293486 0.9820724
vt 0.111563236 0.014751613
vt 0.111563236 0.9820724
vt 0.026293486 0.014751613
vt 0.026293486 0.9820724
vt 0.111563236 0.014751613
vt 0.111563236 0.9820724
vt 0.026293486 0.014751613
vt 0.026293486 0.9820724
vt 0.111563236 0.014751613
vt 0.111563236 0.9820724
vt 0.026293486 0.014751613
vt 0.026293486 0.9820724
vt 0.111563236 0.014751613
vt 0.111563236 0.9820724
vt 0.026293486 0.014751613
vt 0.5640874 0.7718683
vt 0.8883416 0.8520918
vt 0.5640874 0.8520918
vt 0.8883416 0.7718683
vt 0.5640874 0.7718683
vt 0.8883416 0.8520918
vt 0.5640874 0.8520918
vt 0.8883416 0.7718683
vt 0.5640874 0.7718683
vt 0.8883416 0.8520918
vt 0.5640874 0.8520918
vt 0.8883416 0.7718683
vt 0.5640874 0.7718683
vt 0.8883416 0.8520918
vt 0.5640874 0.8520918
vt 0.8883416 0.7718683
vt 0.5640874 0.7718683
vt 0.8883416 0.8520918
vt 0.5640874 0.8520918
vt 0.8883416 0.7718683
vt 0.5640874 0.7718683
vt 0.8883416 0.8520918
vt 0.5640874 0.8520918
vt 0.8883416 0.7718683
vt 0.5640874 0.7718683
vt 0.8883416 0.8520918
vt 0.5640874 0.8520918
vt 0.8883416 0.7718683
vt 0.5640874 0.7718683
vt 0.8883416 0.8520918
vt 0.5640874 0.8520918
vt 0.8883416 0.7718683

g t4
s 1
usemtl t4
f 3/3/3 2/2/2 1/1/1 
f 2/2/2 4/4/4 1/1/1 
f 7/7/7 6/6/6 5/5/5 
f 6/6/6 8/8/8 5/5/5 
f 11/11/11 10/10/10 9/9/9 
f 10/10/10 12/12/12 9/9/9 
f 15/15/15 14/14/14 13/13/13 
f 14/14/14 16/16/16 13/13/13 
f 19/19/19 18/18/18 17/17/17 
f 18/18/18 20/20/20 17/17/17 
f 23/23/23 22/22/22 21/21/21 
f 22/22/22 24/24/24 21/21/21 
f 27/27/27 26/26/26 25/25/25 
f 26/26/26 28/28/28 25/25/25 
f 31/31/31 30/30/30 29/29/29 
f 30/30/30 32/32/32 29/29/29 
f 35/35/35 34/34/34 33/33/33 
f 34/34/34 36/36/36 33/33/33 
f 39/39/39 38/38/38 37/37/37 
f 38/38/38 40/40/40 37/37/37 
f 43/43/43 42/42/42 41/41/41 
f 42/42/42 44/44/44 41/41/41 
f 47/47/47 46/46/46 45/45/45 
f 46/46/46 48/48/48 45/45/45 
f 51/51/51 50/50/50 49/49/49 
f 50/50/50 52/52/52 49/49/49 
f 55/55/55 54/54/54 53/53/53 
f 54/54/54 56/56/56 53/53/53 
f 59/59/59 58/58/58 57/57/57 
f 58/58/58 60/60/60 57/57/57 
f 63/63/63 62/62/62 61/61/61 
f 62/62/62 64/64/64 61/61/61 

