# Created by DisUnity v0.3.4
v 5.592781E-4 -0.004193689 0.1305012
v 0.0044944384 -1.6783823E-5 -0.06277376
v 5.594302E-4 -0.0041762274 -0.06276902
v 0.0052987533 -1.8693634E-5 0.13041438
v 5.594253E-4 0.0039700717 -0.06276718
v 5.592685E-4 0.0039951354 0.13042498
v -0.0035364972 -1.6787888E-5 -0.06277379
v 5.592781E-4 -0.004193689 0.1305012
v -0.0043411124 -1.8699891E-5 0.13041435
v 5.594253E-4 0.0039700717 -0.06276718
v 5.592685E-4 0.0039951354 0.13042498
v 0.0044944384 -1.6783823E-5 -0.06277376
v -0.0035364972 -1.6787888E-5 -0.06277379
v 5.594302E-4 -0.0041762274 -0.06276902
v 5.594253E-4 0.0039700717 -0.06276718
v 8.131752E-9 -0.00755821 0.21455444
v 1.2362616E-8 -4.6577546E-9 0.24493977
v 0.0034475797 -5.168631E-9 0.21455444
v 0.0059375307 -1.04713545E-8 0.1565342
v 1.2850543E-8 -0.008509127 0.16443722
v 5.592781E-4 -0.004193689 0.1305012
v 0.0052987533 -1.8693634E-5 0.13041438
v 5.592781E-4 -0.004193689 0.1305012
v 1.287502E-8 -0.008509127 0.14863127
v 1.2362616E-8 -4.6577546E-9 0.24493977
v 8.131752E-9 -0.00755821 0.21455444
v -0.0034475639 -4.7081232E-9 0.21455444
v -0.005937524 -9.678252E-9 0.1565342
v 1.2850543E-8 -0.008509127 0.16443722
v 5.592781E-4 -0.004193689 0.1305012
v -0.0043411124 -1.8699891E-5 0.13041435
v 5.592781E-4 -0.004193689 0.1305012
v 1.287502E-8 -0.008509127 0.14863127
v 5.592685E-4 0.0039951354 0.13042498
v 0.0059375307 -1.04713545E-8 0.1565342
v 1.2148496E-8 0.008509116 0.14863127
v 0.0052987533 -1.8693634E-5 0.13041438
v 7.4864195E-9 0.0075581972 0.21455444
v 0.0034475797 -5.168631E-9 0.21455444
v 1.2362616E-8 -4.6577546E-9 0.24493977
v 1.212402E-8 0.008509116 0.16443722
v 1.2362616E-8 -4.6577546E-9 0.24493977
v -0.0034475639 -4.7081232E-9 0.21455444
v 7.4864195E-9 0.0075581972 0.21455444
v -0.005937524 -9.678252E-9 0.1565342
v 1.212402E-8 0.008509116 0.16443722
v 5.592685E-4 0.0039951354 0.13042498
v -0.0043411124 -1.8699891E-5 0.13041435
v 5.592685E-4 0.0039951354 0.13042498
v 1.2148496E-8 0.008509116 0.14863127
v 1.2148496E-8 0.008509116 0.14863127
v 0.0059375307 -1.04713545E-8 0.1565342
v 6.3470083E-9 0.03635269 0.15653422
v 0.0059375307 -1.04713545E-8 0.1565342
v 1.212402E-8 0.008509116 0.16443722
v 6.3470083E-9 0.03635269 0.15653422
v 1.212402E-8 0.008509116 0.16443722
v -0.005937524 -9.678252E-9 0.1565342
v 6.3470083E-9 0.03635269 0.15653422
v -0.005937524 -9.678252E-9 0.1565342
v 1.2148496E-8 0.008509116 0.14863127
v 6.3470083E-9 0.03635269 0.15653422
v 1.2850543E-8 -0.008509127 0.16443722
v 0.0059375307 -1.04713545E-8 0.1565342
v 1.4051447E-8 -0.0363527 0.15653422
v 0.0059375307 -1.04713545E-8 0.1565342
v 1.287502E-8 -0.008509127 0.14863127
v 1.4051447E-8 -0.0363527 0.15653422
v -0.005937524 -9.678252E-9 0.1565342
v 1.2850543E-8 -0.008509127 0.16443722
v 1.4051447E-8 -0.0363527 0.15653422
v 1.287502E-8 -0.008509127 0.14863127
v -0.005937524 -9.678252E-9 0.1565342
v 1.4051447E-8 -0.0363527 0.15653422
vn 0.008205498 -0.99996 -0.0035546755
vn 0.999952 0.009559044 -0.0021389583
vn 0.0100173205 -0.9999498 -9.033815E-5
vn 0.99998754 0.0044588367 -0.0022319038
vn 0.010005604 0.99994177 -0.004035984
vn 0.008199301 0.9999664 -1.2972229E-4
vn -0.9999518 0.009581189 -0.0021420107
vn 0.008205498 -0.99996 -0.0035546755
vn -0.999988 0.0043561268 -0.0022374531
vn 0.010005604 0.99994177 -0.004035984
vn 0.008199301 0.9999664 -1.2972229E-4
vn 4.1568437E-6 -0.0011434498 -0.99999934
vn 4.156844E-6 -0.0011434498 -0.99999934
vn 4.156844E-6 -0.0011434498 -0.99999934
vn 4.155387E-6 0.001654611 -0.9999986
vn 0.9033801 -0.4236369 0.06660505
vn 0.9050111 -0.41280845 0.10268396
vn 0.90757424 -0.41397765 0.07022478
vn 0.82740283 -0.5607972 -0.030181848
vn 0.8246871 -0.5654874 0.01072956
vn 0.71740615 -0.69571716 -0.036137868
vn 0.6607659 -0.75042945 -0.015622709
vn 0.71740615 -0.69571716 -0.036137868
vn 0.8555476 -0.50897837 -0.094758965
vn -0.9050111 -0.41280845 0.10268421
vn -0.90338 -0.42363706 0.06660521
vn -0.90757424 -0.41397765 0.07022497
vn -0.83217824 -0.5522942 -0.049502358
vn -0.8246862 -0.5654887 0.010729431
vn -0.7133009 -0.6977806 -0.06560546
vn -0.6476237 -0.7609597 -0.039037455
vn -0.7133009 -0.6977806 -0.06560546
vn -0.8683163 -0.47582996 -0.14004542
vn 0.7081136 0.7050766 -0.0379765
vn 0.8271839 0.561006 -0.03223522
vn 0.85689175 0.5058805 -0.09910377
vn 0.64616257 0.7630247 -0.016348127
vn 0.90338 0.42363706 0.066604994
vn 0.90757424 0.41397774 0.070224725
vn 0.9050111 0.4128086 0.10268394
vn 0.82468736 0.56548697 0.010729572
vn -0.9050111 0.41280854 0.102684215
vn -0.90757424 0.4139777 0.07022493
vn -0.90338 0.42363715 0.06660518
vn -0.8319582 0.55245066 -0.051418025
vn -0.8246865 0.5654883 0.010729444
vn -0.7041512 0.7068772 -0.06705092
vn -0.63311774 0.7730598 -0.03924854
vn -0.7041512 0.7068772 -0.06705092
vn -0.86928743 0.47288343 -0.14394696
vn 0.8581822 0.1401683 -0.49383822
vn 0.8581822 0.1401683 -0.49383822
vn 0.8581822 0.1401683 -0.49383822
vn 0.85818464 0.14016767 0.49383417
vn 0.85818464 0.14016765 0.49383423
vn 0.85818464 0.14016765 0.49383423
vn -0.8581838 0.14016767 0.49383554
vn -0.85818386 0.14016768 0.4938355
vn -0.8581838 0.14016767 0.49383554
vn -0.8581814 0.14016832 -0.49383953
vn -0.85818136 0.14016832 -0.4938396
vn -0.8581814 0.14016834 -0.49383953
vn 0.8581845 -0.1401675 0.49383435
vn 0.8581845 -0.1401675 0.4938344
vn 0.8581845 -0.1401675 0.49383435
vn 0.85818213 -0.14016816 -0.4938384
vn 0.85818213 -0.14016815 -0.4938384
vn 0.85818213 -0.14016815 -0.4938384
vn -0.8581838 -0.1401679 0.49383554
vn -0.8581838 -0.1401679 0.49383554
vn -0.8581838 -0.1401679 0.49383554
vn -0.85818136 -0.14016855 -0.4938396
vn -0.85818136 -0.14016855 -0.49383953
vn -0.85818136 -0.14016855 -0.4938396
vt 0.9717101 0.041395485
vt 0.8577679 0.97559065
vt 0.9717101 0.97559065
vt 0.8577679 0.041395485
vt 0.73693204 0.97559065
vt 0.73693204 0.041395485
vt 0.8577679 0.97559065
vt 0.9717101 0.041395485
vt 0.8577679 0.041395485
vt 0.73693204 0.97559065
vt 0.73693204 0.041395485
vt 0.6535421 0.8320349
vt 0.39366406 0.8320349
vt 0.52095366 0.9408927
vt 0.52095366 0.74053645
vt 0.4072315 0.7402544
vt 0.04478112 0.9841938
vt 0.04478112 0.7402544
vt 0.04478112 0.23367763
vt 0.4072315 0.3360439
vt 0.4072315 0.012644947
vt 0.04478112 0.012644947
vt 0.4072315 0.012644947
vt 0.4072315 0.12614936
vt 0.04478112 0.98419374
vt 0.40723157 0.7402544
vt 0.04478112 0.7402544
vt 0.04478112 0.23367763
vt 0.40723157 0.33604383
vt 0.40723157 0.012644947
vt 0.04478112 0.012644947
vt 0.40723157 0.012644947
vt 0.40723157 0.1261493
vt 0.40723157 0.012644947
vt 0.04478112 0.23367763
vt 0.40723157 0.1261493
vt 0.04478112 0.012644947
vt 0.40723157 0.7402544
vt 0.04478112 0.7402544
vt 0.04478112 0.98419374
vt 0.40723157 0.33604383
vt 0.04478112 0.9841938
vt 0.04478112 0.7402544
vt 0.4072315 0.7402544
vt 0.04478112 0.23367763
vt 0.4072315 0.3360439
vt 0.4072315 0.012644947
vt 0.04478112 0.012644947
vt 0.4072315 0.012644947
vt 0.4072315 0.12614936
vt 0.40723157 0.1261493
vt 0.04478112 0.23367763
vt 0.69804466 0.2336775
vt 0.04478112 0.23367763
vt 0.40723157 0.33604383
vt 0.69804466 0.2336775
vt 0.4072315 0.3360439
vt 0.04478112 0.23367763
vt 0.6980446 0.2336775
vt 0.04478112 0.23367763
vt 0.4072315 0.12614936
vt 0.6980446 0.2336775
vt 0.4072315 0.3360439
vt 0.04478112 0.23367763
vt 0.6980446 0.2336775
vt 0.04478112 0.23367763
vt 0.4072315 0.12614936
vt 0.6980446 0.2336775
vt 0.04478112 0.23367763
vt 0.40723157 0.33604383
vt 0.69804466 0.2336775
vt 0.40723157 0.1261493
vt 0.04478112 0.23367763
vt 0.69804466 0.2336775

g wp_b05
s 1
usemtl wp_b05
f 3/3/3 2/2/2 1/1/1 
f 4/4/4 1/1/1 2/2/2 
f 2/2/2 5/5/5 4/4/4 
f 6/6/6 4/4/4 5/5/5 
f 3/3/3 8/8/8 7/7/7 
f 9/9/9 7/7/7 8/8/8 
f 7/7/7 9/9/9 10/10/10 
f 11/11/11 10/10/10 9/9/9 
f 14/14/14 13/13/13 12/12/12 
f 15/15/15 12/12/12 13/13/13 
f 18/18/18 17/17/17 16/16/16 
f 18/18/18 16/16/16 19/19/19 
f 20/20/20 19/19/19 16/16/16 
f 22/22/22 19/19/19 21/21/21 
f 24/24/24 23/23/23 19/19/19 
f 27/27/27 26/26/26 25/25/25 
f 27/27/27 28/28/28 26/26/26 
f 29/29/29 26/26/26 28/28/28 
f 31/31/31 30/30/30 28/28/28 
f 33/33/33 28/28/28 32/32/32 
f 36/36/36 35/35/35 34/34/34 
f 37/37/37 34/34/34 35/35/35 
f 39/39/39 35/35/35 38/38/38 
f 40/40/40 39/39/39 38/38/38 
f 41/41/41 38/38/38 35/35/35 
f 44/44/44 43/43/43 42/42/42 
f 43/43/43 44/44/44 45/45/45 
f 46/46/46 45/45/45 44/44/44 
f 48/48/48 45/45/45 47/47/47 
f 50/50/50 49/49/49 45/45/45 
f 53/53/53 52/52/52 51/51/51 
f 56/56/56 55/55/55 54/54/54 
f 59/59/59 58/58/58 57/57/57 
f 62/62/62 61/61/61 60/60/60 
f 65/65/65 64/64/64 63/63/63 
f 68/68/68 67/67/67 66/66/66 
f 71/71/71 70/70/70 69/69/69 
f 74/74/74 73/73/73 72/72/72 

