# Created by DisUnity v0.3.4
v 0.0031727226 -1.277733E-5 0.07529631
v -1.0446502E-5 -0.002929246 -0.0440268
v -1.0526489E-5 -0.0029384329 0.07534282
v -1.0446502E-5 -0.002929246 -0.0440268
v 0.0027496072 -1.1772422E-5 -0.044030126
v -1.0532497E-5 0.0027978308 0.07530304
v -1.0450028E-5 0.002784647 -0.04402551
v 0.0027496072 -1.1772422E-5 -0.044030126
v -0.0028833705 -1.1775146E-5 -0.044030145
v -1.0446502E-5 -0.002929246 -0.0440268
v -1.0450028E-5 0.002784647 -0.04402551
v 0.0031727226 -1.277733E-5 0.07529631
v -1.0560738E-5 0.0028022267 0.105139196
v -1.0532497E-5 0.0027978308 0.07530304
v 0.0033137607 -1.3111938E-5 0.10513177
v -1.0526489E-5 -0.0029384329 0.07534282
v -1.0553947E-5 -0.002941494 0.10519265
v -1.0446502E-5 -0.002929246 -0.0440268
v -0.0033066445 -1.2781188E-5 0.0752963
v -1.0526489E-5 -0.0029384329 0.07534282
v -1.0446502E-5 -0.002929246 -0.0440268
v -0.0028833705 -1.1775146E-5 -0.044030145
v -1.0450028E-5 0.002784647 -0.04402551
v -1.0532497E-5 0.0027978308 0.07530304
v -1.0560738E-5 0.0028022267 0.105139196
v -0.0033066445 -1.2781188E-5 0.0752963
v -1.0532497E-5 0.0027978308 0.07530304
v -0.0034477364 -1.3116174E-5 0.10513174
v -1.0553947E-5 -0.002941494 0.10519265
v -1.0526489E-5 -0.0029384329 0.07534282
v 5.122361E-9 -0.005152108 0.15196146
v 8.067023E-9 -3.5395549E-9 0.16367027
v 0.002418166 -3.6515206E-9 0.15196146
v 6.8267085E-9 -0.0037856821 0.13631442
v 0.003291404 -5.5141283E-9 0.1357399
v 8.521588E-9 -0.0050298534 0.12142629
v 0.004164642 -7.0514505E-9 0.11588303
v -1.0553947E-5 -0.002941494 0.10519265
v 0.0033137607 -1.3111938E-5 0.10513177
v -1.0553947E-5 -0.002941494 0.10519265
v 8.586833E-9 -0.00403766 0.11033985
v 8.067023E-9 -3.5395549E-9 0.16367027
v 5.122361E-9 -0.005152108 0.15196146
v -0.0024181562 -3.2308136E-9 0.15196146
v 6.8267085E-9 -0.0037856821 0.13631442
v -0.0032913974 -5.040711E-9 0.1357399
v 8.521588E-9 -0.0050298534 0.12142629
v -0.0041646394 -6.3984302E-9 0.11588303
v -1.0553947E-5 -0.002941494 0.10519265
v -0.0034477364 -1.3116174E-5 0.10513174
v -1.0553947E-5 -0.002941494 0.10519265
v 8.586833E-9 -0.00403766 0.11033985
v -1.0560738E-5 0.0028022267 0.105139196
v 0.004164642 -7.0514505E-9 0.11588303
v 7.9165785E-9 0.0040376512 0.11033985
v 0.0033137607 -1.3111938E-5 0.10513177
v 0.003291404 -5.5141283E-9 0.1357399
v 7.85492E-9 0.005029845 0.12142629
v 6.198637E-9 0.0037856735 0.13631442
v 0.002418166 -3.6515206E-9 0.15196146
v 4.530067E-9 0.0051521 0.15196146
v 8.067023E-9 -3.5395549E-9 0.16367027
v 8.067023E-9 -3.5395549E-9 0.16367027
v -0.0024181562 -3.2308136E-9 0.15196146
v 4.530067E-9 0.0051521 0.15196146
v 6.198637E-9 0.0037856735 0.13631442
v -0.0032913974 -5.040711E-9 0.1357399
v 7.85492E-9 0.005029845 0.12142629
v -0.0041646394 -6.3984302E-9 0.11588303
v -1.0560738E-5 0.0028022267 0.105139196
v -0.0034477364 -1.3116174E-5 0.10513174
v -1.0560738E-5 0.0028022267 0.105139196
v 7.9165785E-9 0.0040376512 0.11033985
v 7.9165785E-9 0.0040376512 0.11033985
v 0.004164642 -7.0514505E-9 0.11588303
v 4.7988946E-9 0.007959019 0.11588306
v 0.004164642 -7.0514505E-9 0.11588303
v 7.85492E-9 0.005029845 0.12142629
v 4.7988946E-9 0.007959019 0.11588306
v 7.85492E-9 0.005029845 0.12142629
v -0.0041646394 -6.3984302E-9 0.11588303
v 4.7988946E-9 0.007959019 0.11588306
v -0.0041646394 -6.3984302E-9 0.11588303
v 7.9165785E-9 0.0040376512 0.11033985
v 4.7988946E-9 0.007959019 0.11588306
v 8.521588E-9 -0.0050298534 0.12142629
v 0.004164642 -7.0514505E-9 0.11588303
v 6.9821238E-9 -0.007959028 0.11588306
v 0.004164642 -7.0514505E-9 0.11588303
v 8.586833E-9 -0.00403766 0.11033985
v 6.9821238E-9 -0.007959028 0.11588306
v -0.0041646394 -6.3984302E-9 0.11588303
v 8.521588E-9 -0.0050298534 0.12142629
v 6.9821238E-9 -0.007959028 0.11588306
v 8.586833E-9 -0.00403766 0.11033985
v -0.0041646394 -6.3984302E-9 0.11588303
v 6.9821238E-9 -0.007959028 0.11588306
v -1.2386954E-5 -0.01920401 0.11959865
v -1.2375568E-5 -0.017384682 0.11394189
v -7.6257874E-4 -0.015043277 0.11437217
v -9.892344E-4 -0.012897695 0.10412064
v -1.23527025E-5 -0.015298279 0.10383964
v -1.2328923E-5 -0.014057395 0.09349776
v -9.416544E-4 -0.011600683 0.09349776
v -9.892344E-4 -0.012897695 0.10412064
v -1.2377219E-5 -0.010901794 0.11436589
v -7.6257874E-4 -0.015043277 0.11437217
v -1.2360501E-5 -0.008790252 0.10697525
v -1.23295395E-5 -0.006647902 0.09349776
v -1.2347132E-5 -0.0075959596 0.1011233
v -9.416544E-4 -0.011600683 0.09349776
v -7.6257874E-4 -0.015043277 0.11437217
v -1.2377219E-5 -0.010901794 0.11436589
v -1.2386954E-5 -0.01920401 0.11959865
v -1.2386954E-5 -0.01920401 0.11959865
v 7.953597E-4 -0.015043277 0.114372194
v -1.2375568E-5 -0.017384682 0.11394189
v 0.001022065 -0.012897695 0.10412064
v -1.23527025E-5 -0.015298279 0.10383964
v -1.2328923E-5 -0.014057395 0.09349776
v 9.7453565E-4 -0.011600682 0.09349776
v -1.2377219E-5 -0.010901794 0.11436589
v 0.001022065 -0.012897695 0.10412064
v 7.953597E-4 -0.015043277 0.114372194
v -1.2360501E-5 -0.008790252 0.10697525
v -1.23295395E-5 -0.006647902 0.09349776
v -1.2347132E-5 -0.0075959596 0.1011233
v 9.7453565E-4 -0.011600682 0.09349776
v 7.953597E-4 -0.015043277 0.114372194
v -1.2386954E-5 -0.01920401 0.11959865
v -1.2377219E-5 -0.010901794 0.11436589
v -1.2380836E-5 -0.019204004 0.06739688
v -7.6257385E-4 -0.015043275 0.07262335
v -1.2370776E-5 -0.017384678 0.07305364
v -9.89232E-4 -0.012897694 0.082874894
v -1.2350279E-5 -0.015298277 0.0831559
v -1.2328923E-5 -0.014057395 0.09349776
v -9.416544E-4 -0.011600683 0.09349776
v -1.2372327E-5 -0.010901789 0.072629645
v -9.89232E-4 -0.012897694 0.082874894
v -7.6257385E-4 -0.015043275 0.07262335
v -1.2357343E-5 -0.008790249 0.08002029
v -1.23295395E-5 -0.006647902 0.09349776
v -1.2345346E-5 -0.0075959577 0.08587224
v -9.416544E-4 -0.011600683 0.09349776
v -7.6257385E-4 -0.015043275 0.07262335
v -1.2380836E-5 -0.019204004 0.06739688
v -1.2372327E-5 -0.010901789 0.072629645
v -1.2380836E-5 -0.019204004 0.06739688
v -1.2370776E-5 -0.017384678 0.07305364
v 7.953647E-4 -0.015043273 0.07262335
v 0.0010220674 -0.012897694 0.082874894
v -1.2350279E-5 -0.015298277 0.0831559
v -1.2328923E-5 -0.014057395 0.09349776
v 9.7453565E-4 -0.011600682 0.09349776
v 0.0010220674 -0.012897694 0.082874894
v -1.2372327E-5 -0.010901789 0.072629645
v 7.953647E-4 -0.015043273 0.07262335
v -1.2357343E-5 -0.008790249 0.08002029
v -1.23295395E-5 -0.006647902 0.09349776
v 9.7453565E-4 -0.011600682 0.09349776
v -1.2345346E-5 -0.0075959577 0.08587224
v 7.953647E-4 -0.015043273 0.07262335
v -1.2372327E-5 -0.010901789 0.072629645
v -1.2380836E-5 -0.019204004 0.06739688
v -1.2360501E-5 -0.008790252 0.10697525
v -9.892344E-4 -0.012897695 0.10412064
v -8.240508E-5 0.0080616325 0.10395044
v 0.001022065 -0.012897695 0.10412064
v -1.2360501E-5 -0.008790252 0.10697525
v -8.240508E-5 0.0080616325 0.10395044
v -9.892344E-4 -0.012897695 0.10412064
v -1.2347132E-5 -0.0075959596 0.1011233
v -8.240508E-5 0.0080616325 0.10395044
v -1.2347132E-5 -0.0075959596 0.1011233
v 0.001022065 -0.012897695 0.10412064
v -8.240508E-5 0.0080616325 0.10395044
v -9.89232E-4 -0.012897694 0.082874894
v -1.2357343E-5 -0.008790249 0.08002029
v -8.240262E-5 0.008061635 0.0830451
v -1.2357343E-5 -0.008790249 0.08002029
v 0.0010220674 -0.012897694 0.082874894
v -8.240262E-5 0.008061635 0.0830451
v -1.2345346E-5 -0.0075959577 0.08587224
v -9.89232E-4 -0.012897694 0.082874894
v -8.240262E-5 0.008061635 0.0830451
v 0.0010220674 -0.012897694 0.082874894
v -1.2345346E-5 -0.0075959577 0.08587224
v -8.240262E-5 0.008061635 0.0830451
vn 0.9999389 0.0108199045 -0.0022492467
vn 0.0100022955 -0.9999435 -0.003593107
vn 0.008161473 -0.99996614 -0.001052653
vn 0.0100022955 -0.9999435 -0.003593107
vn 0.9999346 0.011278836 -0.0018857891
vn 0.008979852 0.9999593 -8.6018076E-4
vn 0.010786095 0.9999403 -0.0017535139
vn 3.3865826E-6 -0.001144027 -0.99999934
vn 3.3865822E-6 -0.001144027 -0.99999934
vn 3.3865824E-6 -0.0011440269 -0.99999934
vn 3.385247E-6 0.0016539438 -0.9999986
vn 0.9999389 0.0108199045 -0.0022492467
vn 0.008219019 0.99995977 -0.0035881256
vn 0.008979852 0.9999593 -8.6018076E-4
vn 0.9999771 0.0062524457 -0.0025960724
vn 0.008161473 -0.99996614 -0.001052653
vn 0.007256568 -0.99997187 -0.0019002138
vn 0.0100022955 -0.9999435 -0.003593107
vn -0.99995065 0.009930068 -3.78798E-4
vn 0.008161473 -0.99996614 -0.001052653
vn 0.0100022955 -0.9999435 -0.003593107
vn -0.99993855 0.010505529 -0.0035468878
vn 0.010786095 0.9999403 -0.0017535139
vn 0.008979852 0.9999593 -8.6018076E-4
vn 0.008219019 0.99995977 -0.0035881256
vn -0.99995065 0.009930068 -3.78798E-4
vn 0.008979852 0.9999593 -8.6018076E-4
vn -0.99997556 0.0051481556 -0.0047288314
vn 0.007256568 -0.99997187 -0.0019002138
vn 0.008161473 -0.99996614 -0.001052653
vn 0.90352756 -0.42407426 0.061635725
vn 0.8898313 -0.4176459 0.18377207
vn 0.8905645 -0.44819224 0.077579476
vn 0.7763527 -0.62910557 0.038763694
vn 0.7616251 -0.6464157 0.045540005
vn 0.7837617 -0.6199214 0.037617456
vn 0.7585268 -0.65115017 -0.025309855
vn 0.7020151 -0.7077168 -0.07944625
vn 0.6596086 -0.74985725 -0.051289026
vn 0.7020151 -0.7077168 -0.07944625
vn 0.77546674 -0.61721385 -0.13303536
vn -0.8898312 -0.41764587 0.18377253
vn -0.90352756 -0.4240743 0.061635826
vn -0.89056444 -0.44819227 0.07757962
vn -0.7763522 -0.62910616 0.03876366
vn -0.7616244 -0.6464165 0.045540027
vn -0.7837607 -0.6199227 0.037617546
vn -0.7551161 -0.655199 -0.022670785
vn -0.6940834 -0.7162207 -0.072637945
vn -0.6475058 -0.7608884 -0.042248294
vn -0.6940834 -0.7162207 -0.072637945
vn -0.7740984 -0.61950177 -0.13034275
vn 0.696316 0.7127195 -0.084704764
vn 0.75810444 0.6514813 -0.02915247
vn 0.7817286 0.60637534 -0.14563417
vn 0.645328 0.7621336 -0.05200182
vn 0.7616253 0.6464154 0.045539927
vn 0.7837619 0.61992115 0.037617385
vn 0.7763529 0.62910527 0.038763613
vn 0.8905645 0.44819224 0.077579424
vn 0.9035275 0.42407435 0.061635688
vn 0.88983124 0.41764602 0.18377206
vn -0.8898312 0.41764593 0.18377253
vn -0.89056444 0.44819233 0.07757959
vn -0.90352756 0.4240743 0.061635815
vn -0.7763524 0.62910604 0.038763594
vn -0.76162463 0.6464163 0.045539953
vn -0.783761 0.6199223 0.037617482
vn -0.75468683 0.65554607 -0.026593473
vn -0.68837446 0.7211421 -0.078068346
vn -0.63301057 0.7729395 -0.043152038
vn -0.68837446 0.7211421 -0.078068346
vn -0.7804379 0.60866004 -0.1430023
vn 0.8419062 0.44053668 -0.31164306
vn 0.8419062 0.44053668 -0.31164306
vn 0.84190625 0.44053668 -0.3116431
vn 0.86058235 0.45030725 0.23795247
vn 0.86058235 0.4503072 0.23795247
vn 0.8605824 0.45030716 0.23795244
vn -0.8605818 0.45030767 0.23795363
vn -0.8605818 0.45030764 0.2379536
vn -0.8605818 0.45030764 0.23795363
vn -0.84190553 0.4405371 -0.31164432
vn -0.84190553 0.4405371 -0.31164432
vn -0.84190553 0.4405371 -0.31164432
vn 0.8605823 -0.45030722 0.23795271
vn 0.8605823 -0.45030725 0.23795271
vn 0.8605823 -0.45030725 0.23795271
vn 0.8419061 -0.4405367 -0.3116433
vn 0.8419061 -0.4405367 -0.31164327
vn 0.8419061 -0.4405367 -0.31164336
vn -0.86058164 -0.45030805 0.2379536
vn -0.86058164 -0.45030805 0.2379536
vn -0.86058164 -0.45030805 0.2379536
vn -0.8419053 -0.44053748 -0.31164432
vn -0.8419053 -0.44053748 -0.31164432
vn -0.8419053 -0.44053748 -0.31164432
vn -0.953034 -0.2883179 -0.09273075
vn -0.9518349 -0.2983308 -0.07077389
vn -0.95373464 -0.2942056 -0.061913718
vn -0.9298354 -0.36346284 -0.057454582
vn -0.9269968 -0.3701155 -0.060757488
vn -0.9342814 -0.35653642 0.0
vn -0.9353166 -0.3538118 0.0
vn -0.98106253 0.18929765 0.041021816
vn -0.98153365 0.18225928 0.058080275
vn -0.9822582 0.17801891 0.058975443
vn -0.97936255 0.19433607 0.055520553
vn -0.9823062 0.18728204 -1.2340895E-7
vn -0.98063487 0.19434899 0.024160493
vn -0.9828478 0.18441854 -1.1898054E-7
vn -0.94661677 0.17188704 0.27271137
vn -0.94661677 0.17188704 0.27271137
vn -0.94661677 0.17188704 0.27271137
vn 0.9461487 -0.30818588 -0.099116854
vn 0.9469358 -0.3143439 -0.067086205
vn 0.94491786 -0.31831875 -0.07617979
vn 0.9221449 -0.38208818 -0.060477246
vn 0.9191898 -0.3886147 -0.06378595
vn 0.9268392 -0.37545854 1.2864648E-7
vn 0.9279314 -0.37275106 1.3031152E-7
vn 0.9789448 0.19483304 0.060886223
vn 0.97870225 0.20067151 0.043277
vn 0.9796206 0.19115482 0.061671007
vn 0.97694546 0.20527467 0.05865019
vn 0.98014575 0.1982782 1.0925141E-7
vn 0.978362 0.20531924 0.025528902
vn 0.98072094 0.1954134 1.0467455E-7
vn 0.9388774 0.18355787 0.29123154
vn 0.93887734 0.18355785 0.29123157
vn 0.93887734 0.18355785 0.29123157
vn -0.9530341 -0.28831774 0.09273031
vn -0.95373464 -0.2942056 0.061913475
vn -0.951835 -0.29833078 0.07077342
vn -0.9298353 -0.36346298 0.05745434
vn -0.92699677 -0.37011567 0.060757253
vn -0.9342814 -0.35653642 0.0
vn -0.9353166 -0.3538118 0.0
vn -0.9815336 0.18225926 -0.058080416
vn -0.98106253 0.18929766 -0.04102199
vn -0.9822582 0.17801891 -0.05897557
vn -0.9793625 0.19433612 -0.055520702
vn -0.9823062 0.18728204 -1.2340895E-7
vn -0.98063487 0.19434899 -0.024160733
vn -0.9828478 0.18441854 -1.1898054E-7
vn -0.94661653 0.17188752 -0.27271208
vn -0.94661653 0.1718875 -0.27271208
vn -0.9466165 0.1718875 -0.27271208
vn 0.9461486 -0.30818602 0.09911697
vn 0.9449178 -0.31831887 0.076179944
vn 0.9469357 -0.31434405 0.06708634
vn 0.9221448 -0.38208836 0.060477458
vn 0.91918975 -0.3886148 0.06378613
vn 0.9268392 -0.37545854 1.2864648E-7
vn 0.9279314 -0.37275106 1.3031152E-7
vn 0.97870225 0.20067146 -0.04327673
vn 0.97894484 0.19483297 -0.060885902
vn 0.97962064 0.1911547 -0.06167071
vn 0.97694546 0.20527467 -0.058649853
vn 0.98014575 0.1982782 1.0925141E-7
vn 0.98072094 0.1954134 1.0467455E-7
vn 0.978362 0.20531921 -0.025528682
vn 0.9388779 0.18355732 -0.29123023
vn 0.9388779 0.18355733 -0.29123026
vn 0.9388779 0.18355732 -0.29123023
vn -0.9628541 0.043822654 0.26644248
vn -0.9628541 0.043822654 0.26644248
vn -0.9628541 0.043822657 0.26644248
vn 0.9608066 0.05284045 0.27213702
vn 0.9608066 0.052840453 0.272137
vn 0.9608066 0.052840456 0.27213702
vn -0.9686763 0.039920554 -0.24509701
vn -0.9686763 0.039920554 -0.24509701
vn -0.9686763 0.039920554 -0.24509701
vn 0.96769595 0.048985224 -0.24731572
vn 0.96769595 0.048985224 -0.24731572
vn 0.96769595 0.048985224 -0.24731575
vn -0.962854 0.043822657 -0.2664427
vn -0.962854 0.043822657 -0.26644275
vn -0.962854 0.043822654 -0.26644272
vn 0.96080667 0.05284045 -0.27213678
vn 0.96080667 0.05284045 -0.27213678
vn 0.96080667 0.05284045 -0.2721368
vn -0.9686763 0.03992056 0.24509682
vn -0.9686764 0.03992056 0.2450968
vn -0.9686763 0.039920557 0.24509682
vn 0.9676959 0.048985217 0.24731594
vn 0.9676959 0.048985217 0.24731594
vn 0.9676959 0.048985213 0.24731591
vt 0.580664 0.021829724
vt 0.6946061 0.19523877
vt 0.6946061 0.021829724
vt 0.6946061 0.19523877
vt 0.580664 0.19523877
vt 0.4598281 0.021829724
vt 0.4598281 0.19523877
vt 0.7894279 0.90749943
vt 0.6285236 0.90749943
vt 0.7044045 0.9917874
vt 0.7044045 0.83665276
vt 0.4639878 0.97767144
vt 0.34315193 0.45820653
vt 0.34315193 0.97767144
vt 0.4639878 0.45820653
vt 0.57793003 0.97767144
vt 0.57793003 0.45820653
vt 0.6946061 0.19523877
vt 0.580664 0.021829724
vt 0.6946061 0.021829724
vt 0.6946061 0.19523877
vt 0.580664 0.19523877
vt 0.4598281 0.19523877
vt 0.4598281 0.021829724
vt 0.34315193 0.45820653
vt 0.4639878 0.97767144
vt 0.34315193 0.97767144
vt 0.4639878 0.45820653
vt 0.57793003 0.45820653
vt 0.57793003 0.97767144
vt 0.2738019 0.7923245
vt 0.04478112 0.9841938
vt 0.04478112 0.7923245
vt 0.2738019 0.56462765
vt 0.04478112 0.56462765
vt 0.2738019 0.3360439
vt 0.04478112 0.23367763
vt 0.2738019 0.012644947
vt 0.04478112 0.012644947
vt 0.2738019 0.012644947
vt 0.2738019 0.12614936
vt 0.04478112 0.98419374
vt 0.27380195 0.7923245
vt 0.04478112 0.7923245
vt 0.27380195 0.56462765
vt 0.04478112 0.56462765
vt 0.27380195 0.33604383
vt 0.04478112 0.23367763
vt 0.27380195 0.012644947
vt 0.04478112 0.012644947
vt 0.27380195 0.012644947
vt 0.27380195 0.1261493
vt 0.27380195 0.012644947
vt 0.04478112 0.23367763
vt 0.27380195 0.1261493
vt 0.04478112 0.012644947
vt 0.04478112 0.56462765
vt 0.27380195 0.33604383
vt 0.27380195 0.56462765
vt 0.04478112 0.7923245
vt 0.27380195 0.7923245
vt 0.04478112 0.98419374
vt 0.04478112 0.9841938
vt 0.04478112 0.7923245
vt 0.2738019 0.7923245
vt 0.2738019 0.56462765
vt 0.04478112 0.56462765
vt 0.2738019 0.3360439
vt 0.04478112 0.23367763
vt 0.2738019 0.012644947
vt 0.04478112 0.012644947
vt 0.2738019 0.012644947
vt 0.2738019 0.12614936
vt 0.27380195 0.1261493
vt 0.04478112 0.23367763
vt 0.4507117 0.2336775
vt 0.04478112 0.23367763
vt 0.27380195 0.33604383
vt 0.4507117 0.2336775
vt 0.2738019 0.3360439
vt 0.04478112 0.23367763
vt 0.45071164 0.2336775
vt 0.04478112 0.23367763
vt 0.2738019 0.12614936
vt 0.45071164 0.2336775
vt 0.2738019 0.3360439
vt 0.04478112 0.23367763
vt 0.45071164 0.2336775
vt 0.04478112 0.23367763
vt 0.2738019 0.12614936
vt 0.45071164 0.2336775
vt 0.04478112 0.23367763
vt 0.27380195 0.33604383
vt 0.4507117 0.2336775
vt 0.27380195 0.1261493
vt 0.04478112 0.23367763
vt 0.4507117 0.2336775
vt 0.8875543 0.9657465
vt 0.962125 0.7776824
vt 0.8538316 0.7776824
vt 0.8538316 0.3866698
vt 0.962125 0.3866698
vt 0.962125 0.02775228
vt 0.8538316 0.02775228
vt 0.8538316 0.3866698
vt 0.741801 0.7776824
vt 0.8538316 0.7776824
vt 0.741801 0.48842096
vt 0.741801 0.02775228
vt 0.741801 0.28428108
vt 0.8538316 0.02775228
vt 0.8538316 0.7776824
vt 0.741801 0.7776824
vt 0.8875543 0.9657465
vt 0.8875543 0.9657465
vt 0.8538316 0.7776824
vt 0.962125 0.7776824
vt 0.8538316 0.3866698
vt 0.962125 0.3866698
vt 0.962125 0.02775228
vt 0.8538316 0.02775228
vt 0.741801 0.7776824
vt 0.8538316 0.3866698
vt 0.8538316 0.7776824
vt 0.741801 0.48836404
vt 0.741801 0.02775228
vt 0.741801 0.28422397
vt 0.8538316 0.02775228
vt 0.8538316 0.7776824
vt 0.8875543 0.9657465
vt 0.741801 0.7776824
vt 0.8875543 0.9657465
vt 0.8538316 0.7776824
vt 0.962125 0.7776824
vt 0.8538316 0.3866698
vt 0.962125 0.3866698
vt 0.962125 0.02775228
vt 0.8538316 0.02775228
vt 0.741801 0.7776824
vt 0.8538316 0.3866698
vt 0.8538316 0.7776824
vt 0.741801 0.48842096
vt 0.741801 0.02775228
vt 0.741801 0.28428108
vt 0.8538316 0.02775228
vt 0.8538316 0.7776824
vt 0.8875543 0.9657465
vt 0.741801 0.7776824
vt 0.8875543 0.9657465
vt 0.962125 0.7776824
vt 0.8538316 0.7776824
vt 0.8538316 0.3866698
vt 0.962125 0.3866698
vt 0.962125 0.02775228
vt 0.8538316 0.02775228
vt 0.8538316 0.3866698
vt 0.741801 0.7776824
vt 0.8538316 0.7776824
vt 0.741801 0.48836404
vt 0.741801 0.02775228
vt 0.8538316 0.02775228
vt 0.741801 0.28422397
vt 0.8538316 0.7776824
vt 0.741801 0.7776824
vt 0.8875543 0.9657465
vt 0.741801 0.48842096
vt 0.8538316 0.3866698
vt 0.5518901 0.3866698
vt 0.8538316 0.3866698
vt 0.741801 0.48836404
vt 0.5509577 0.3866698
vt 0.8538316 0.3866698
vt 0.741801 0.28428108
vt 0.5518901 0.3866698
vt 0.741801 0.28422397
vt 0.8538316 0.3866698
vt 0.5509577 0.3866698
vt 0.8538316 0.3866698
vt 0.741801 0.48842096
vt 0.5518901 0.3866698
vt 0.741801 0.48836404
vt 0.8538316 0.3866698
vt 0.5509577 0.3866698
vt 0.741801 0.28428108
vt 0.8538316 0.3866698
vt 0.5518901 0.3866698
vt 0.8538316 0.3866698
vt 0.741801 0.28422397
vt 0.5509577 0.3866698

g wp_b10
s 1
usemtl wp_b10
f 3/3/3 2/2/2 1/1/1 
f 5/5/5 1/1/1 4/4/4 
f 1/1/1 5/5/5 6/6/6 
f 7/7/7 6/6/6 5/5/5 
f 10/10/10 9/9/9 8/8/8 
f 11/11/11 8/8/8 9/9/9 
f 14/14/14 13/13/13 12/12/12 
f 15/15/15 12/12/12 13/13/13 
f 12/12/12 15/15/15 16/16/16 
f 17/17/17 16/16/16 15/15/15 
f 20/20/20 19/19/19 18/18/18 
f 22/22/22 21/21/21 19/19/19 
f 22/22/22 19/19/19 23/23/23 
f 24/24/24 23/23/23 19/19/19 
f 27/27/27 26/26/26 25/25/25 
f 28/28/28 25/25/25 26/26/26 
f 28/28/28 26/26/26 29/29/29 
f 30/30/30 29/29/29 26/26/26 
f 33/33/33 32/32/32 31/31/31 
f 31/31/31 34/34/34 33/33/33 
f 35/35/35 33/33/33 34/34/34 
f 34/34/34 36/36/36 35/35/35 
f 37/37/37 35/35/35 36/36/36 
f 39/39/39 37/37/37 38/38/38 
f 41/41/41 40/40/40 37/37/37 
f 44/44/44 43/43/43 42/42/42 
f 43/43/43 44/44/44 45/45/45 
f 46/46/46 45/45/45 44/44/44 
f 45/45/45 46/46/46 47/47/47 
f 48/48/48 47/47/47 46/46/46 
f 50/50/50 49/49/49 48/48/48 
f 52/52/52 48/48/48 51/51/51 
f 55/55/55 54/54/54 53/53/53 
f 56/56/56 53/53/53 54/54/54 
f 54/54/54 58/58/58 57/57/57 
f 59/59/59 57/57/57 58/58/58 
f 57/57/57 59/59/59 60/60/60 
f 61/61/61 60/60/60 59/59/59 
f 62/62/62 60/60/60 61/61/61 
f 65/65/65 64/64/64 63/63/63 
f 65/65/65 66/66/66 64/64/64 
f 67/67/67 64/64/64 66/66/66 
f 66/66/66 68/68/68 67/67/67 
f 69/69/69 67/67/67 68/68/68 
f 71/71/71 69/69/69 70/70/70 
f 73/73/73 72/72/72 69/69/69 
f 76/76/76 75/75/75 74/74/74 
f 79/79/79 78/78/78 77/77/77 
f 82/82/82 81/81/81 80/80/80 
f 85/85/85 84/84/84 83/83/83 
f 88/88/88 87/87/87 86/86/86 
f 91/91/91 90/90/90 89/89/89 
f 94/94/94 93/93/93 92/92/92 
f 97/97/97 96/96/96 95/95/95 
f 100/100/100 99/99/99 98/98/98 
f 100/100/100 101/101/101 99/99/99 
f 102/102/102 99/99/99 101/101/101 
f 102/102/102 101/101/101 103/103/103 
f 104/104/104 103/103/103 101/101/101 
f 107/107/107 106/106/106 105/105/105 
f 108/108/108 105/105/105 106/106/106 
f 110/110/110 109/109/109 105/105/105 
f 111/111/111 105/105/105 109/109/109 
f 114/114/114 113/113/113 112/112/112 
f 117/117/117 116/116/116 115/115/115 
f 116/116/116 117/117/117 118/118/118 
f 119/119/119 118/118/118 117/117/117 
f 119/119/119 120/120/120 118/118/118 
f 121/121/121 118/118/118 120/120/120 
f 124/124/124 123/123/123 122/122/122 
f 125/125/125 122/122/122 123/123/123 
f 127/127/127 123/123/123 126/126/126 
f 128/128/128 126/126/126 123/123/123 
f 131/131/131 130/130/130 129/129/129 
f 134/134/134 133/133/133 132/132/132 
f 133/133/133 134/134/134 135/135/135 
f 136/136/136 135/135/135 134/134/134 
f 136/136/136 137/137/137 135/135/135 
f 138/138/138 135/135/135 137/137/137 
f 141/141/141 140/140/140 139/139/139 
f 142/142/142 139/139/139 140/140/140 
f 144/144/144 140/140/140 143/143/143 
f 145/145/145 143/143/143 140/140/140 
f 148/148/148 147/147/147 146/146/146 
f 151/151/151 150/150/150 149/149/149 
f 151/151/151 152/152/152 150/150/150 
f 153/153/153 150/150/150 152/152/152 
f 153/153/153 152/152/152 154/154/154 
f 155/155/155 154/154/154 152/152/152 
f 158/158/158 157/157/157 156/156/156 
f 159/159/159 156/156/156 157/157/157 
f 161/161/161 156/156/156 160/160/160 
f 162/162/162 160/160/160 156/156/156 
f 165/165/165 164/164/164 163/163/163 
f 168/168/168 167/167/167 166/166/166 
f 171/171/171 170/170/170 169/169/169 
f 174/174/174 173/173/173 172/172/172 
f 177/177/177 176/176/176 175/175/175 
f 180/180/180 179/179/179 178/178/178 
f 183/183/183 182/182/182 181/181/181 
f 186/186/186 185/185/185 184/184/184 
f 189/189/189 188/188/188 187/187/187 

