# Created by DisUnity v0.3.4
v 0.0050551817 0.0029387262 -7.894621E-11
v 1.7093505E-8 0.0031043205 0.013472213
v 4.1062E-9 0.0063693267 2.788362E-9
v 0.0050551835 -0.0010525171 0.011702231
v 1.8855271E-8 -0.005110524 0.022569371
v 0.005055188 -0.008714611 0.018658306
v 2.4083551E-8 -0.012558385 0.026499365
v 0.005055192 -0.016273072 0.023123462
v 2.8859436E-8 -0.017729102 0.034146503
v 0.0038922902 -0.025866501 0.03439182
v 0.0035970663 -0.024637857 0.04825539
v 3.405028E-8 -0.01766526 0.0455716
v 4.1062E-9 0.0063693267 2.788362E-9
v -0.0050551747 -0.001052516 0.011702235
v -0.0050551766 0.0029387274 4.7420476E-9
v 1.7093505E-8 0.0031043205 0.013472213
v 1.8855271E-8 -0.005110524 0.022569371
v -0.0050551705 -0.00871461 0.018658316
v 2.4083551E-8 -0.012558385 0.026499365
v -0.0050551705 -0.016273068 0.023123471
v 2.8859436E-8 -0.017729102 0.034146503
v -0.0038922536 -0.0258665 0.034391824
v -0.003597017 -0.024637857 0.04825539
v 3.405028E-8 -0.01766526 0.0455716
v 5.037666E-9 -0.0059416215 0.010020861
v 0.0050551817 0.0029387262 -7.894621E-11
v 2.872695E-9 -0.0025703178 1.5979771E-9
v 0.0050551835 -0.0010525171 0.011702231
v -0.0050551747 -0.001052516 0.011702235
v 7.2567317E-9 -0.013789677 0.017109994
v -0.0050551705 -0.00871461 0.018658316
v -0.0050551766 0.0029387274 4.7420476E-9
v -0.0050551705 -0.016273068 0.023123471
v 4.528714E-9 -0.021946698 0.020128159
v 0.005055188 -0.008714611 0.018658306
v 0.005055192 -0.016273072 0.023123462
v 1.5081833E-8 -0.03246722 0.03439182
v -0.0038922536 -0.0258665 0.034391824
v 2.3844168E-8 -0.031238573 0.04825539
v -0.003597017 -0.024637857 0.04825539
v 0.0038922902 -0.025866501 0.03439182
v 0.0035970663 -0.024637857 0.04825539
v 6.1147944E-8 0.01984611 0.11780515
v -0.0014625688 0.01816989 0.09570614
v 5.260933E-8 0.02133048 0.09527681
v -0.002925199 0.005338543 0.07708195
v 4.2508628E-8 0.0103855785 0.07425988
v 3.9522117E-8 -0.008887968 0.059840705
v -0.003656513 -0.0149447685 0.062924266
v 3.405028E-8 -0.01766526 0.0455716
v -0.003597017 -0.024637857 0.04825539
v 6.1147944E-8 0.01984611 0.11780515
v 4.9344898E-8 0.013047704 0.09570614
v -0.0014625688 0.01816989 0.09570614
v -0.002925199 0.005338543 0.07708195
v 3.8939504E-8 1.03654726E-4 0.078294404
v -0.003656513 -0.0149447685 0.062924266
v 3.4775823E-8 -0.021589782 0.06488069
v -0.003597017 -0.024637857 0.04825539
v 2.3844168E-8 -0.031238573 0.04825539
v 0.0036565748 -0.014944768 0.062924266
v 0.0029252768 0.0053385464 0.07708195
v 0.0014626646 0.018169891 0.09570614
v 0.0035970663 -0.024637857 0.04825539
v 0.0029252768 0.0053385464 0.07708195
v 5.260933E-8 0.02133048 0.09527681
v 4.2508628E-8 0.0103855785 0.07425988
v 0.0014626646 0.018169891 0.09570614
v 6.1147944E-8 0.01984611 0.11780515
v 3.9522117E-8 -0.008887968 0.059840705
v 0.0036565748 -0.014944768 0.062924266
v 3.405028E-8 -0.01766526 0.0455716
v 0.0035970663 -0.024637857 0.04825539
v 0.0050551817 0.0029387262 -7.894621E-11
v 4.2454054E-9 0.003104324 -0.013472209
v 0.005055173 -0.001052514 -0.011702232
v 4.1062E-9 0.0063693267 2.788362E-9
v -2.6685558E-9 -0.005110518 -0.02256937
v 0.0050551705 -0.008714606 -0.01865831
v -1.1882086E-9 -0.012558377 -0.026499365
v 0.00505517 -0.016273065 -0.023123467
v -3.7052017E-9 -0.017729092 -0.0341465
v 0.0038922573 -0.025866492 -0.034391828
v 0.0035970204 -0.024637844 -0.048255395
v -9.4101775E-9 -0.017665247 -0.0455716
v 4.1062E-9 0.0063693267 2.788362E-9
v -0.0050551854 -0.0010525129 -0.0117022265
v 4.2454054E-9 0.003104324 -0.013472209
v -0.0050551766 0.0029387274 4.7420476E-9
v -2.6685558E-9 -0.005110518 -0.02256937
v -0.005055188 -0.008714605 -0.018658308
v -1.1882086E-9 -0.012558377 -0.026499365
v -0.0050551924 -0.016273063 -0.023123467
v -3.7052017E-9 -0.017729092 -0.0341465
v -0.0038922864 -0.025866488 -0.034391824
v -0.0035970628 -0.024637844 -0.048255395
v -9.4101775E-9 -0.017665247 -0.0455716
v -4.518969E-9 -0.005941619 -0.010020858
v 0.0050551817 0.0029387262 -7.894621E-11
v 0.005055173 -0.001052514 -0.011702232
v 2.872695E-9 -0.0025703178 1.5979771E-9
v -0.0050551854 -0.0010525129 -0.0117022265
v -9.060627E-9 -0.013789672 -0.017109994
v -0.005055188 -0.008714605 -0.018658308
v -0.0050551766 0.0029387274 4.7420476E-9
v -0.0050551924 -0.016273063 -0.023123467
v -1.4666993E-8 -0.021946695 -0.02012816
v 0.0050551705 -0.008714606 -0.01865831
v 0.00505517 -0.016273065 -0.023123467
v -1.7716765E-8 -0.032467213 -0.034391828
v -0.0038922864 -0.025866488 -0.034391824
v -2.2175755E-8 -0.03123856 -0.048255395
v -0.0035970628 -0.024637844 -0.048255395
v 0.0038922573 -0.025866492 -0.034391828
v 0.0035970204 -0.024637844 -0.048255395
v -5.1199795E-8 0.019846141 -0.11780515
v -3.8253695E-8 0.021330506 -0.095276795
v -0.0014626601 0.018169913 -0.09570613
v -0.0029252723 0.0053385636 -0.07708194
v -2.8311103E-8 0.010385598 -0.07425988
v -1.7546414E-8 -0.008887952 -0.0598407
v -0.003656573 -0.014944752 -0.06292426
v -9.4101775E-9 -0.017665247 -0.0455716
v -0.0035970628 -0.024637844 -0.048255395
v -5.1199795E-8 0.019846141 -0.11780515
v -0.0014626601 0.018169913 -0.09570613
v -4.1927574E-8 0.013047729 -0.09570613
v -0.0029252723 0.0053385636 -0.07708194
v -3.5727844E-8 1.0367558E-4 -0.078294404
v -0.003656573 -0.014944752 -0.06292426
v -2.7099219E-8 -0.021589763 -0.06488069
v -0.0035970628 -0.024637844 -0.048255395
v -2.2175755E-8 -0.03123856 -0.048255395
v 0.0036565147 -0.014944751 -0.062924266
v 0.0029252032 0.0053385673 -0.07708195
v 0.0014625734 0.018169917 -0.09570613
v 0.0035970204 -0.024637844 -0.048255395
v 0.0029252032 0.0053385673 -0.07708195
v -3.8253695E-8 0.021330506 -0.095276795
v 0.0014625734 0.018169917 -0.09570613
v -2.8311103E-8 0.010385598 -0.07425988
v -5.1199795E-8 0.019846141 -0.11780515
v -1.7546414E-8 -0.008887952 -0.0598407
v 0.0036565147 -0.014944751 -0.062924266
v -9.4101775E-9 -0.017665247 -0.0455716
v 0.0035970204 -0.024637844 -0.048255395
vn 0.5973409 0.8019874 -1.7804322E-7
vn 0.6479891 0.66586626 0.3697734
vn 0.5615351 0.8274529 -1.5757877E-7
vn 0.67831326 0.6221897 0.3908593
vn 0.70856196 0.42048723 0.5666837
vn 0.71540785 0.40297276 0.57079303
vn 0.7096964 0.47228158 0.5227629
vn 0.7287099 0.4474567 0.518425
vn 0.85284966 0.4618809 0.24354367
vn 0.88889927 0.42994353 0.15813495
vn 0.90291995 0.40924522 -0.13135424
vn 0.89822197 0.422693 -0.12053166
vn -0.5996715 0.80024636 3.9250486E-7
vn -0.6659314 0.6453641 0.37421998
vn -0.5615348 0.82745314 3.7794265E-7
vn -0.665306 0.66269976 0.3437978
vn -0.70856 0.42048797 0.56668574
vn -0.71540564 0.4029736 0.57079506
vn -0.709694 0.4722828 0.52276504
vn -0.72870743 0.447458 0.51842725
vn -0.8528481 0.4618828 0.24354537
vn -0.8888981 0.4299455 0.1581365
vn -0.90291905 0.4092472 -0.13135405
vn -0.8982211 0.422695 -0.12053145
vn 3.7688905E-4 -0.81660396 -0.5771983
vn 0.7356695 -0.6773407 -4.3524355E-7
vn 0.0011121752 -0.9999994 -1.2119422E-7
vn 0.70627177 -0.6007577 -0.3745268
vn -0.70703554 -0.6005597 -0.37340167
vn -0.047727365 -0.49094343 -0.8698831
vn -0.65163606 -0.46663797 -0.5980129
vn -0.7368062 -0.676104 2.613078E-7
vn -0.7235135 -0.39859784 -0.56360275
vn -0.008357246 -0.6547562 -0.755794
vn 0.6647682 -0.43982926 -0.60384876
vn 0.7636056 -0.41033417 -0.49853027
vn -6.4291794E-7 -0.97512186 -0.22166945
vn -0.851395 -0.49675515 -0.16840696
vn -0.0 -0.95874673 0.2842618
vn -0.8673836 -0.463404 0.18138999
vn 0.85139436 -0.4967558 -0.16840823
vn 0.86738384 -0.46340406 0.1813891
vn -0.90573364 0.42293018 0.027866807
vn -0.9081424 0.40684074 -0.09878262
vn -0.90809196 0.41086325 -0.080996625
vn -0.8860038 0.34047142 -0.3147641
vn -0.88953036 0.3542258 -0.28854766
vn -0.8730689 0.35226393 -0.33713612
vn -0.87793666 0.3628834 -0.3123184
vn -0.8982211 0.422695 -0.12053145
vn -0.90291905 0.4092472 -0.13135405
vn 2.3970117E-6 -0.9557947 0.29403487
vn 6.872336E-7 -0.8190563 0.5737131
vn -0.950576 -0.27143294 0.1507627
vn -0.8496561 -0.37287503 0.37289235
vn 4.4101682E-7 -0.6302349 0.7764045
vn -0.84389615 -0.34636953 0.40971625
vn 8.246202E-7 -0.7406885 0.6718486
vn -0.8673836 -0.463404 0.18138999
vn -0.0 -0.95874673 0.2842618
vn 0.8438969 -0.3463691 0.40971515
vn 0.8496566 -0.372875 0.37289137
vn 0.95057636 -0.2714323 0.1507615
vn 0.86738384 -0.46340406 0.1813891
vn 0.88600415 0.34047064 -0.314764
vn 0.90809274 0.4108614 -0.080996946
vn 0.88953066 0.35422507 -0.28854772
vn 0.9081433 0.40683877 -0.098782696
vn 0.90573466 0.42292818 0.027865985
vn 0.87306964 0.3522626 -0.33713555
vn 0.8779375 0.3628819 -0.31231785
vn 0.89822197 0.422693 -0.12053166
vn 0.90291995 0.40924522 -0.13135424
vn 0.5973409 0.8019874 -1.7804322E-7
vn 0.6479886 0.6658664 -0.36977375
vn 0.67831296 0.6221898 -0.3908598
vn 0.5615351 0.8274529 -1.5757877E-7
vn 0.7085613 0.42048746 -0.5666843
vn 0.7154072 0.40297294 -0.5707936
vn 0.7096959 0.47228166 -0.52276355
vn 0.7287093 0.44745678 -0.5184256
vn 0.8528494 0.46188098 -0.24354441
vn 0.8888991 0.4299436 -0.1581357
vn 0.90292007 0.40924516 0.13135353
vn 0.8982221 0.42269292 0.12053089
vn -0.5996715 0.80024636 3.9250486E-7
vn -0.6659319 0.6453641 -0.37421912
vn -0.6653063 0.6626999 -0.34379694
vn -0.5615348 0.82745314 3.7794265E-7
vn -0.7085605 0.42048803 -0.5666849
vn -0.7154063 0.4029737 -0.5707941
vn -0.7096945 0.47228295 -0.52276427
vn -0.72870785 0.44745812 -0.5184265
vn -0.85284835 0.46188295 -0.24354452
vn -0.8888982 0.42994556 -0.15813553
vn -0.902919 0.40924707 0.13135509
vn -0.89822096 0.422695 0.12053237
vn 3.7739097E-4 -0.8166041 0.577198
vn 0.7356695 -0.6773407 -4.3524355E-7
vn 0.7062722 -0.60075784 0.37452587
vn 0.0011121752 -0.9999994 -1.2119422E-7
vn -0.70703524 -0.6005598 0.3734022
vn -0.04772646 -0.49094367 0.86988306
vn -0.65163535 -0.46663815 0.5980135
vn -0.7368062 -0.676104 2.613078E-7
vn -0.7235129 -0.39859802 0.5636034
vn -0.008356492 -0.6547563 0.75579387
vn 0.6647689 -0.43982947 0.603848
vn 0.7636061 -0.41033423 0.4985294
vn -3.3955962E-7 -0.9751219 0.2216692
vn -0.85139483 -0.4967552 0.16840763
vn -2.2975847E-7 -0.9587467 -0.28426203
vn -0.86738384 -0.4634039 -0.18138927
vn 0.85139453 -0.49675584 0.16840729
vn 0.8673836 -0.463404 -0.18139003
vn -0.9057337 0.42293024 -0.027865823
vn -0.9080918 0.41086325 0.080997616
vn -0.90814227 0.4068407 0.09878368
vn -0.88600355 0.34047136 0.31476507
vn -0.8895301 0.35422575 0.28854862
vn -0.8730686 0.35226387 0.337137
vn -0.8779364 0.3628833 0.31231934
vn -0.89822096 0.422695 0.12053237
vn -0.902919 0.40924707 0.13135509
vn 3.22549E-7 -0.95579463 -0.29403505
vn -0.9505761 -0.27143294 -0.1507619
vn 1.9028047E-7 -0.81905603 -0.5737135
vn -0.8496565 -0.3728749 -0.3728917
vn -4.8364166E-7 -0.6302347 -0.77640474
vn -0.84389657 -0.34636948 -0.40971547
vn -0.0 -0.7406882 -0.67184895
vn -0.86738384 -0.4634039 -0.18138927
vn -2.2975847E-7 -0.9587467 -0.28426203
vn 0.8438965 -0.34636897 -0.40971595
vn 0.8496562 -0.37287483 -0.3728923
vn 0.95057625 -0.27143225 -0.15076247
vn 0.8673836 -0.463404 -0.18139003
vn 0.88600445 0.34047058 0.3147633
vn 0.90809286 0.4108613 0.080996186
vn 0.90814334 0.40683877 0.09878201
vn 0.88953096 0.35422495 0.28854698
vn 0.90573466 0.4229281 -0.027866725
vn 0.87307 0.3522625 0.3371348
vn 0.8779378 0.36288187 0.3123171
vn 0.8982221 0.42269292 0.12053089
vn 0.90292007 0.40924516 0.13135353
vt 0.9823513 0.73984575
vt 0.7226864 0.5320487
vt 0.9823513 0.5320487
vt 0.7226864 0.73984575
vt 0.5284902 0.5320487
vt 0.5284902 0.73984575
vt 0.36198512 0.5320487
vt 0.36198512 0.73984575
vt 0.190839 0.5320487
vt 0.190839 0.73984575
vt 0.023661448 0.73984575
vt 0.023661448 0.5320487
vt 0.9823513 0.5320487
vt 0.7226864 0.73984575
vt 0.9823513 0.73984575
vt 0.7226864 0.5320487
vt 0.5284902 0.5320487
vt 0.5284902 0.73984575
vt 0.36198512 0.5320487
vt 0.36198512 0.73984575
vt 0.190839 0.5320487
vt 0.190839 0.73984575
vt 0.023661448 0.73984575
vt 0.023661448 0.5320487
vt 0.7226864 0.9733854
vt 0.9823513 0.73984575
vt 0.9823513 0.9733854
vt 0.7226864 0.73984575
vt 0.7226864 0.73984575
vt 0.5284902 0.9733854
vt 0.5284902 0.73984575
vt 0.9823513 0.73984575
vt 0.36198512 0.73984575
vt 0.36198512 0.9733854
vt 0.5284902 0.73984575
vt 0.36198512 0.73984575
vt 0.190839 0.9733854
vt 0.190839 0.73984575
vt 0.023661448 0.9733854
vt 0.023661448 0.73984575
vt 0.190839 0.73984575
vt 0.023661448 0.73984575
vt 0.019051623 0.26041353
vt 0.2472815 0.26041353
vt 0.2472815 0.0526163
vt 0.4942247 0.26041353
vt 0.4942247 0.0526163
vt 0.7615344 0.0526163
vt 0.7615344 0.26041353
vt 0.9723121 0.0526163
vt 0.9723121 0.26041353
vt 0.019051623 0.26041353
vt 0.2472815 0.493953
vt 0.2472815 0.26041353
vt 0.4942247 0.26041353
vt 0.4942247 0.493953
vt 0.7615344 0.26041353
vt 0.7615344 0.493953
vt 0.9723121 0.26041353
vt 0.9723121 0.493953
vt 0.7615344 0.26041353
vt 0.4942247 0.26041353
vt 0.2472815 0.26041353
vt 0.9723121 0.26041353
vt 0.4942247 0.26041353
vt 0.2472815 0.0526163
vt 0.4942247 0.0526163
vt 0.2472815 0.26041353
vt 0.019051623 0.26041353
vt 0.7615344 0.0526163
vt 0.7615344 0.26041353
vt 0.9723121 0.0526163
vt 0.9723121 0.26041353
vt 0.9823513 0.73984575
vt 0.7226864 0.5320487
vt 0.7226864 0.73984575
vt 0.9823513 0.5320487
vt 0.5284902 0.5320487
vt 0.5284902 0.73984575
vt 0.36198512 0.5320487
vt 0.36198512 0.73984575
vt 0.190839 0.5320487
vt 0.190839 0.73984575
vt 0.023661448 0.73984575
vt 0.023661448 0.5320487
vt 0.9823513 0.5320487
vt 0.7226864 0.73984575
vt 0.7226864 0.5320487
vt 0.9823513 0.73984575
vt 0.5284902 0.5320487
vt 0.5284902 0.73984575
vt 0.36198512 0.5320487
vt 0.36198512 0.73984575
vt 0.190839 0.5320487
vt 0.190839 0.73984575
vt 0.023661448 0.73984575
vt 0.023661448 0.5320487
vt 0.7226864 0.9733854
vt 0.9823513 0.73984575
vt 0.7226864 0.73984575
vt 0.9823513 0.9733854
vt 0.7226864 0.73984575
vt 0.5284902 0.9733854
vt 0.5284902 0.73984575
vt 0.9823513 0.73984575
vt 0.36198512 0.73984575
vt 0.36198512 0.9733854
vt 0.5284902 0.73984575
vt 0.36198512 0.73984575
vt 0.190839 0.9733854
vt 0.190839 0.73984575
vt 0.023661448 0.9733854
vt 0.023661448 0.73984575
vt 0.190839 0.73984575
vt 0.023661448 0.73984575
vt 0.019051623 0.26041353
vt 0.2472815 0.0526163
vt 0.2472815 0.26041353
vt 0.4942247 0.26041353
vt 0.4942247 0.0526163
vt 0.7615344 0.0526163
vt 0.7615344 0.26041353
vt 0.9723121 0.0526163
vt 0.9723121 0.26041353
vt 0.019051623 0.26041353
vt 0.2472815 0.26041353
vt 0.2472815 0.493953
vt 0.4942247 0.26041353
vt 0.4942247 0.493953
vt 0.7615344 0.26041353
vt 0.7615344 0.493953
vt 0.9723121 0.26041353
vt 0.9723121 0.493953
vt 0.7615344 0.26041353
vt 0.4942247 0.26041353
vt 0.2472815 0.26041353
vt 0.9723121 0.26041353
vt 0.4942247 0.26041353
vt 0.2472815 0.0526163
vt 0.2472815 0.26041353
vt 0.4942247 0.0526163
vt 0.019051623 0.26041353
vt 0.7615344 0.0526163
vt 0.7615344 0.26041353
vt 0.9723121 0.0526163
vt 0.9723121 0.26041353

g wp_b02
s 1
usemtl wp_b02
f 3/3/3 2/2/2 1/1/1 
f 4/4/4 1/1/1 2/2/2 
f 2/2/2 5/5/5 4/4/4 
f 6/6/6 4/4/4 5/5/5 
f 5/5/5 7/7/7 6/6/6 
f 8/8/8 6/6/6 7/7/7 
f 7/7/7 9/9/9 8/8/8 
f 10/10/10 8/8/8 9/9/9 
f 10/10/10 9/9/9 11/11/11 
f 12/12/12 11/11/11 9/9/9 
f 15/15/15 14/14/14 13/13/13 
f 16/16/16 13/13/13 14/14/14 
f 16/16/16 14/14/14 17/17/17 
f 18/18/18 17/17/17 14/14/14 
f 17/17/17 18/18/18 19/19/19 
f 20/20/20 19/19/19 18/18/18 
f 19/19/19 20/20/20 21/21/21 
f 22/22/22 21/21/21 20/20/20 
f 22/22/22 23/23/23 21/21/21 
f 24/24/24 21/21/21 23/23/23 
f 27/27/27 26/26/26 25/25/25 
f 28/28/28 25/25/25 26/26/26 
f 25/25/25 29/29/29 27/27/27 
f 25/25/25 30/30/30 29/29/29 
f 25/25/25 28/28/28 30/30/30 
f 31/31/31 29/29/29 30/30/30 
f 32/32/32 27/27/27 29/29/29 
f 31/31/31 30/30/30 33/33/33 
f 34/34/34 33/33/33 30/30/30 
f 30/30/30 35/35/35 34/34/34 
f 35/35/35 30/30/30 28/28/28 
f 36/36/36 34/34/34 35/35/35 
f 34/34/34 37/37/37 33/33/33 
f 34/34/34 36/36/36 37/37/37 
f 38/38/38 33/33/33 37/37/37 
f 37/37/37 39/39/39 38/38/38 
f 40/40/40 38/38/38 39/39/39 
f 41/41/41 37/37/37 36/36/36 
f 37/37/37 41/41/41 39/39/39 
f 42/42/42 39/39/39 41/41/41 
f 45/45/45 44/44/44 43/43/43 
f 44/44/44 45/45/45 46/46/46 
f 47/47/47 46/46/46 45/45/45 
f 47/47/47 48/48/48 46/46/46 
f 49/49/49 46/46/46 48/48/48 
f 48/48/48 50/50/50 49/49/49 
f 51/51/51 49/49/49 50/50/50 
f 54/54/54 53/53/53 52/52/52 
f 54/54/54 55/55/55 53/53/53 
f 56/56/56 53/53/53 55/55/55 
f 55/55/55 57/57/57 56/56/56 
f 58/58/58 56/56/56 57/57/57 
f 57/57/57 59/59/59 58/58/58 
f 60/60/60 58/58/58 59/59/59 
f 58/58/58 61/61/61 56/56/56 
f 62/62/62 56/56/56 61/61/61 
f 56/56/56 62/62/62 53/53/53 
f 63/63/63 53/53/53 62/62/62 
f 63/63/63 52/52/52 53/53/53 
f 61/61/61 58/58/58 64/64/64 
f 60/60/60 64/64/64 58/58/58 
f 67/67/67 66/66/66 65/65/65 
f 68/68/68 65/65/65 66/66/66 
f 69/69/69 68/68/68 66/66/66 
f 67/67/67 65/65/65 70/70/70 
f 71/71/71 70/70/70 65/65/65 
f 70/70/70 71/71/71 72/72/72 
f 73/73/73 72/72/72 71/71/71 
f 76/76/76 75/75/75 74/74/74 
f 77/77/77 74/74/74 75/75/75 
f 75/75/75 76/76/76 78/78/78 
f 79/79/79 78/78/78 76/76/76 
f 78/78/78 79/79/79 80/80/80 
f 81/81/81 80/80/80 79/79/79 
f 80/80/80 81/81/81 82/82/82 
f 83/83/83 82/82/82 81/81/81 
f 83/83/83 84/84/84 82/82/82 
f 85/85/85 82/82/82 84/84/84 
f 88/88/88 87/87/87 86/86/86 
f 89/89/89 86/86/86 87/87/87 
f 88/88/88 90/90/90 87/87/87 
f 91/91/91 87/87/87 90/90/90 
f 90/90/90 92/92/92 91/91/91 
f 93/93/93 91/91/91 92/92/92 
f 92/92/92 94/94/94 93/93/93 
f 95/95/95 93/93/93 94/94/94 
f 95/95/95 94/94/94 96/96/96 
f 97/97/97 96/96/96 94/94/94 
f 100/100/100 99/99/99 98/98/98 
f 101/101/101 98/98/98 99/99/99 
f 98/98/98 101/101/101 102/102/102 
f 98/98/98 102/102/102 103/103/103 
f 98/98/98 103/103/103 100/100/100 
f 104/104/104 103/103/103 102/102/102 
f 105/105/105 102/102/102 101/101/101 
f 104/104/104 106/106/106 103/103/103 
f 107/107/107 103/103/103 106/106/106 
f 103/103/103 107/107/107 108/108/108 
f 108/108/108 100/100/100 103/103/103 
f 109/109/109 108/108/108 107/107/107 
f 107/107/107 106/106/106 110/110/110 
f 107/107/107 110/110/110 109/109/109 
f 111/111/111 110/110/110 106/106/106 
f 110/110/110 111/111/111 112/112/112 
f 113/113/113 112/112/112 111/111/111 
f 114/114/114 109/109/109 110/110/110 
f 110/110/110 112/112/112 114/114/114 
f 115/115/115 114/114/114 112/112/112 
f 118/118/118 117/117/117 116/116/116 
f 118/118/118 119/119/119 117/117/117 
f 120/120/120 117/117/117 119/119/119 
f 120/120/120 119/119/119 121/121/121 
f 122/122/122 121/121/121 119/119/119 
f 121/121/121 122/122/122 123/123/123 
f 124/124/124 123/123/123 122/122/122 
f 127/127/127 126/126/126 125/125/125 
f 126/126/126 127/127/127 128/128/128 
f 129/129/129 128/128/128 127/127/127 
f 128/128/128 129/129/129 130/130/130 
f 131/131/131 130/130/130 129/129/129 
f 130/130/130 131/131/131 132/132/132 
f 133/133/133 132/132/132 131/131/131 
f 131/131/131 129/129/129 134/134/134 
f 135/135/135 134/134/134 129/129/129 
f 129/129/129 127/127/127 135/135/135 
f 136/136/136 135/135/135 127/127/127 
f 125/125/125 136/136/136 127/127/127 
f 133/133/133 131/131/131 137/137/137 
f 134/134/134 137/137/137 131/131/131 
f 140/140/140 139/139/139 138/138/138 
f 141/141/141 138/138/138 139/139/139 
f 140/140/140 142/142/142 139/139/139 
f 141/141/141 143/143/143 138/138/138 
f 144/144/144 138/138/138 143/143/143 
f 143/143/143 145/145/145 144/144/144 
f 146/146/146 144/144/144 145/145/145 

